<svg
	xmlns="http://www.w3.org/2000/svg"
	xmlns:xlink="http://www.w3.org/1999/xlink"
	zoomAndPan="magnify"
	viewBox="0 0 37.5 37.499999"
	preserveAspectRatio="xMidYMid meet"
	version="1.0">
	<path
		fill="currentColor"
		d="M 23.128906 9.25 C 23.128906 9.707031 23.085938 10.160156 22.996094 10.605469 C 22.90625 11.050781 22.773438 11.484375 22.601562 11.90625 C 22.425781 12.328125 22.210938 12.726562 21.960938 13.105469 C 21.707031 13.484375 21.417969 13.835938 21.097656 14.15625 C 20.773438 14.480469 20.425781 14.769531 20.046875 15.019531 C 19.667969 15.273438 19.265625 15.488281 18.847656 15.664062 C 18.425781 15.835938 17.992188 15.96875 17.542969 16.058594 C 17.097656 16.144531 16.644531 16.191406 16.191406 16.191406 C 15.734375 16.191406 15.285156 16.144531 14.835938 16.058594 C 14.390625 15.96875 13.957031 15.835938 13.535156 15.664062 C 13.113281 15.488281 12.714844 15.273438 12.335938 15.019531 C 11.957031 14.769531 11.605469 14.480469 11.285156 14.15625 C 10.960938 13.835938 10.675781 13.484375 10.421875 13.105469 C 10.167969 12.726562 9.953125 12.328125 9.78125 11.90625 C 9.605469 11.484375 9.472656 11.050781 9.386719 10.605469 C 9.296875 10.160156 9.25 9.707031 9.25 9.25 C 9.25 8.796875 9.296875 8.34375 9.386719 7.898438 C 9.472656 7.449219 9.605469 7.015625 9.78125 6.597656 C 9.953125 6.175781 10.167969 5.777344 10.421875 5.398438 C 10.675781 5.019531 10.960938 4.667969 11.285156 4.34375 C 11.605469 4.023438 11.957031 3.734375 12.335938 3.480469 C 12.714844 3.230469 13.113281 3.015625 13.535156 2.839844 C 13.957031 2.667969 14.390625 2.535156 14.835938 2.445312 C 15.285156 2.355469 15.734375 2.3125 16.191406 2.3125 C 16.644531 2.3125 17.097656 2.355469 17.542969 2.445312 C 17.992188 2.535156 18.425781 2.667969 18.847656 2.839844 C 19.265625 3.015625 19.667969 3.230469 20.046875 3.480469 C 20.425781 3.734375 20.773438 4.023438 21.097656 4.34375 C 21.417969 4.667969 21.707031 5.019531 21.960938 5.398438 C 22.210938 5.777344 22.425781 6.175781 22.601562 6.597656 C 22.773438 7.015625 22.90625 7.449219 22.996094 7.898438 C 23.085938 8.34375 23.128906 8.796875 23.128906 9.25 Z M 23.128906 9.25 "
		fill-opacity="1"
		fill-rule="nonzero" />
	<path
		fill="currentColor"
		d="M 34.695312 16.191406 C 34.695312 15.542969 34.585938 14.914062 34.363281 14.308594 C 34.136719 13.699219 33.816406 13.152344 33.394531 12.660156 C 32.972656 12.167969 32.480469 11.765625 31.914062 11.449219 C 31.347656 11.136719 30.742188 10.933594 30.101562 10.835938 C 29.464844 10.738281 28.828125 10.757812 28.191406 10.890625 C 27.558594 11.019531 26.96875 11.261719 26.421875 11.605469 C 25.871094 11.949219 25.402344 12.378906 25.007812 12.894531 C 24.617188 13.410156 24.324219 13.976562 24.136719 14.59375 C 23.945312 15.214844 23.871094 15.847656 23.910156 16.492188 C 23.949219 17.140625 24.097656 17.757812 24.359375 18.351562 C 24.621094 18.941406 24.976562 19.472656 25.429688 19.933594 C 25.878906 20.398438 26.398438 20.769531 26.984375 21.046875 L 26.984375 29.296875 L 29.296875 31.609375 L 33.152344 27.753906 L 30.839844 25.441406 L 33.152344 23.128906 L 31.238281 21.21875 C 31.746094 21.019531 32.214844 20.753906 32.640625 20.417969 C 33.070312 20.078125 33.4375 19.6875 33.746094 19.238281 C 34.054688 18.789062 34.289062 18.304688 34.449219 17.785156 C 34.613281 17.265625 34.691406 16.734375 34.695312 16.191406 Z M 29.296875 16.191406 C 29.09375 16.191406 28.894531 16.152344 28.707031 16.074219 C 28.519531 15.996094 28.351562 15.882812 28.207031 15.738281 C 28.0625 15.59375 27.949219 15.425781 27.871094 15.238281 C 27.792969 15.050781 27.753906 14.851562 27.753906 14.648438 C 27.753906 14.445312 27.792969 14.246094 27.871094 14.058594 C 27.949219 13.871094 28.0625 13.703125 28.207031 13.558594 C 28.351562 13.414062 28.519531 13.300781 28.707031 13.222656 C 28.894531 13.144531 29.09375 13.105469 29.296875 13.105469 C 29.5 13.105469 29.699219 13.144531 29.886719 13.222656 C 30.074219 13.300781 30.242188 13.414062 30.386719 13.558594 C 30.53125 13.703125 30.644531 13.871094 30.722656 14.058594 C 30.800781 14.246094 30.839844 14.445312 30.839844 14.648438 C 30.839844 14.851562 30.800781 15.050781 30.722656 15.238281 C 30.644531 15.425781 30.53125 15.59375 30.386719 15.738281 C 30.242188 15.882812 30.074219 15.996094 29.886719 16.074219 C 29.699219 16.152344 29.5 16.191406 29.296875 16.191406 Z M 29.296875 16.191406 "
		fill-opacity="1"
		fill-rule="nonzero" />
	<path
		fill="currentColor"
		d="M 22.265625 19.304688 C 21.066406 18.769531 19.8125 18.503906 18.503906 18.503906 L 13.878906 18.503906 C 13.269531 18.503906 12.667969 18.5625 12.074219 18.679688 C 11.476562 18.800781 10.898438 18.976562 10.335938 19.207031 C 9.777344 19.441406 9.242188 19.726562 8.738281 20.0625 C 8.234375 20.398438 7.765625 20.785156 7.335938 21.214844 C 6.90625 21.644531 6.523438 22.109375 6.183594 22.613281 C 5.847656 23.121094 5.5625 23.652344 5.328125 24.214844 C 5.097656 24.777344 4.921875 25.355469 4.804688 25.949219 C 4.683594 26.546875 4.625 27.148438 4.625 27.753906 L 4.625 30.839844 L 24.671875 30.839844 L 24.671875 22.34375 C 23.613281 21.53125 22.8125 20.519531 22.265625 19.304688 Z M 22.265625 19.304688 "
		fill-opacity="1"
		fill-rule="nonzero" />
</svg>
