<svg xmlns="http://www.w3.org/2000/svg" xmlns:xlink="http://www.w3.org/1999/xlink" width="100" zoomAndPan="magnify" viewBox="0 0 75 74.999997" height="100" preserveAspectRatio="xMidYMid meet" version="1.0"><defs><clipPath id="7756e69721"><path d="M 13.605469 47 L 28 47 L 28 61.605469 L 13.605469 61.605469 Z M 13.605469 47 " clip-rule="nonzero"/></clipPath><clipPath id="0a0aa797a5"><path d="M 47 47 L 61.605469 47 L 61.605469 61.605469 L 47 61.605469 Z M 47 47 " clip-rule="nonzero"/></clipPath><clipPath id="5ced59bfeb"><path d="M 47 13.605469 L 61.605469 13.605469 L 61.605469 28 L 47 28 Z M 47 13.605469 " clip-rule="nonzero"/></clipPath><clipPath id="8a5d791db2"><path d="M 13.605469 13.605469 L 28 13.605469 L 28 28 L 13.605469 28 Z M 13.605469 13.605469 " clip-rule="nonzero"/></clipPath></defs><rect x="-7.5" width="90" fill="#ffffff" y="-7.5" height="89.999996" fill-opacity="1"/><rect x="-7.5" width="90" fill="#4438ca" y="-7.5" height="89.999996" fill-opacity="1"/><g clip-path="url(#7756e69721)"><path fill="#ffffff" d="M 26.347656 61.382812 L 18.382812 61.382812 C 18.226562 61.382812 18.070312 61.375 17.914062 61.359375 C 17.757812 61.34375 17.605469 61.320312 17.453125 61.292969 C 17.296875 61.261719 17.148438 61.222656 16.996094 61.179688 C 16.847656 61.132812 16.699219 61.078125 16.554688 61.019531 C 16.410156 60.960938 16.269531 60.894531 16.132812 60.820312 C 15.992188 60.746094 15.859375 60.664062 15.730469 60.578125 C 15.597656 60.492188 15.472656 60.398438 15.351562 60.300781 C 15.230469 60.199219 15.117188 60.09375 15.003906 59.984375 C 14.894531 59.875 14.789062 59.757812 14.691406 59.636719 C 14.589844 59.515625 14.5 59.390625 14.410156 59.257812 C 14.324219 59.128906 14.242188 58.996094 14.171875 58.859375 C 14.097656 58.71875 14.03125 58.578125 13.96875 58.433594 C 13.910156 58.289062 13.855469 58.140625 13.8125 57.992188 C 13.765625 57.84375 13.726562 57.691406 13.699219 57.539062 C 13.667969 57.382812 13.644531 57.230469 13.628906 57.074219 C 13.613281 56.917969 13.605469 56.761719 13.605469 56.605469 L 13.605469 48.644531 C 13.605469 48.539062 13.617188 48.433594 13.636719 48.332031 C 13.65625 48.230469 13.6875 48.128906 13.726562 48.03125 C 13.765625 47.9375 13.816406 47.84375 13.875 47.757812 C 13.933594 47.671875 14 47.589844 14.074219 47.515625 C 14.144531 47.441406 14.226562 47.375 14.3125 47.320312 C 14.402344 47.261719 14.492188 47.210938 14.589844 47.171875 C 14.6875 47.132812 14.785156 47.101562 14.886719 47.082031 C 14.992188 47.058594 15.09375 47.050781 15.199219 47.050781 C 15.304688 47.050781 15.40625 47.058594 15.507812 47.082031 C 15.613281 47.101562 15.710938 47.132812 15.808594 47.171875 C 15.90625 47.210938 15.996094 47.261719 16.082031 47.320312 C 16.171875 47.375 16.25 47.441406 16.324219 47.515625 C 16.398438 47.589844 16.464844 47.671875 16.523438 47.757812 C 16.582031 47.84375 16.628906 47.9375 16.667969 48.03125 C 16.710938 48.128906 16.742188 48.230469 16.761719 48.332031 C 16.78125 48.433594 16.792969 48.539062 16.792969 48.644531 L 16.792969 56.605469 C 16.792969 56.710938 16.800781 56.8125 16.820312 56.917969 C 16.84375 57.019531 16.871094 57.117188 16.914062 57.214844 C 16.953125 57.3125 17 57.402344 17.058594 57.492188 C 17.117188 57.578125 17.183594 57.65625 17.257812 57.730469 C 17.332031 57.804688 17.410156 57.871094 17.5 57.929688 C 17.585938 57.988281 17.675781 58.035156 17.773438 58.078125 C 17.871094 58.117188 17.96875 58.148438 18.074219 58.167969 C 18.175781 58.1875 18.277344 58.199219 18.382812 58.199219 L 26.347656 58.199219 C 26.449219 58.199219 26.554688 58.207031 26.65625 58.230469 C 26.757812 58.25 26.859375 58.277344 26.957031 58.320312 C 27.054688 58.359375 27.144531 58.410156 27.230469 58.464844 C 27.320312 58.523438 27.398438 58.589844 27.472656 58.664062 C 27.546875 58.738281 27.613281 58.820312 27.671875 58.90625 C 27.730469 58.992188 27.777344 59.085938 27.816406 59.179688 C 27.859375 59.277344 27.886719 59.378906 27.910156 59.480469 C 27.929688 59.582031 27.9375 59.6875 27.9375 59.789062 C 27.9375 59.894531 27.929688 60 27.910156 60.101562 C 27.886719 60.203125 27.859375 60.304688 27.816406 60.402344 C 27.777344 60.496094 27.730469 60.589844 27.671875 60.675781 C 27.613281 60.761719 27.546875 60.84375 27.472656 60.917969 C 27.398438 60.992188 27.320312 61.058594 27.230469 61.113281 C 27.144531 61.171875 27.054688 61.222656 26.957031 61.261719 C 26.859375 61.300781 26.757812 61.332031 26.65625 61.351562 C 26.554688 61.371094 26.449219 61.382812 26.347656 61.382812 Z M 26.347656 61.382812 " fill-opacity="1" fill-rule="nonzero"/></g><g clip-path="url(#0a0aa797a5)"><path fill="#ffffff" d="M 56.605469 61.382812 L 48.644531 61.382812 C 48.539062 61.382812 48.433594 61.371094 48.332031 61.351562 C 48.230469 61.332031 48.128906 61.300781 48.03125 61.261719 C 47.9375 61.222656 47.84375 61.171875 47.757812 61.113281 C 47.671875 61.058594 47.589844 60.992188 47.515625 60.917969 C 47.441406 60.84375 47.375 60.761719 47.320312 60.675781 C 47.261719 60.589844 47.210938 60.496094 47.171875 60.402344 C 47.132812 60.304688 47.101562 60.203125 47.082031 60.101562 C 47.058594 60 47.050781 59.894531 47.050781 59.789062 C 47.050781 59.6875 47.058594 59.582031 47.082031 59.480469 C 47.101562 59.378906 47.132812 59.277344 47.171875 59.179688 C 47.210938 59.085938 47.261719 58.992188 47.320312 58.90625 C 47.375 58.820312 47.441406 58.738281 47.515625 58.664062 C 47.589844 58.589844 47.671875 58.523438 47.757812 58.464844 C 47.84375 58.410156 47.9375 58.359375 48.03125 58.320312 C 48.128906 58.277344 48.230469 58.25 48.332031 58.230469 C 48.433594 58.207031 48.539062 58.199219 48.644531 58.199219 L 56.605469 58.199219 C 56.710938 58.199219 56.8125 58.1875 56.917969 58.167969 C 57.019531 58.148438 57.117188 58.117188 57.214844 58.078125 C 57.3125 58.035156 57.402344 57.988281 57.492188 57.929688 C 57.578125 57.871094 57.65625 57.804688 57.730469 57.730469 C 57.804688 57.65625 57.871094 57.578125 57.929688 57.492188 C 57.988281 57.402344 58.035156 57.3125 58.078125 57.214844 C 58.117188 57.117188 58.148438 57.019531 58.167969 56.917969 C 58.1875 56.8125 58.199219 56.710938 58.199219 56.605469 L 58.199219 48.644531 C 58.199219 48.539062 58.207031 48.433594 58.230469 48.332031 C 58.25 48.230469 58.277344 48.128906 58.320312 48.03125 C 58.359375 47.9375 58.410156 47.84375 58.464844 47.757812 C 58.523438 47.671875 58.589844 47.589844 58.664062 47.515625 C 58.738281 47.441406 58.820312 47.375 58.90625 47.320312 C 58.992188 47.261719 59.085938 47.210938 59.179688 47.171875 C 59.277344 47.132812 59.378906 47.101562 59.480469 47.082031 C 59.582031 47.058594 59.6875 47.050781 59.789062 47.050781 C 59.894531 47.050781 60 47.058594 60.101562 47.082031 C 60.203125 47.101562 60.304688 47.132812 60.402344 47.171875 C 60.496094 47.210938 60.589844 47.261719 60.675781 47.320312 C 60.761719 47.375 60.84375 47.441406 60.917969 47.515625 C 60.992188 47.589844 61.058594 47.671875 61.113281 47.757812 C 61.171875 47.84375 61.222656 47.9375 61.261719 48.03125 C 61.300781 48.128906 61.332031 48.230469 61.351562 48.332031 C 61.371094 48.433594 61.382812 48.539062 61.382812 48.644531 L 61.382812 56.605469 C 61.382812 56.761719 61.375 56.917969 61.359375 57.074219 C 61.34375 57.230469 61.320312 57.382812 61.292969 57.539062 C 61.261719 57.691406 61.222656 57.84375 61.179688 57.992188 C 61.132812 58.140625 61.078125 58.289062 61.019531 58.433594 C 60.960938 58.578125 60.894531 58.71875 60.820312 58.859375 C 60.746094 58.996094 60.664062 59.128906 60.578125 59.257812 C 60.492188 59.390625 60.398438 59.515625 60.300781 59.636719 C 60.199219 59.757812 60.09375 59.875 59.984375 59.984375 C 59.875 60.09375 59.757812 60.199219 59.636719 60.300781 C 59.515625 60.398438 59.390625 60.492188 59.257812 60.578125 C 59.128906 60.664062 58.996094 60.746094 58.859375 60.820312 C 58.71875 60.894531 58.578125 60.960938 58.433594 61.019531 C 58.289062 61.078125 58.140625 61.132812 57.992188 61.179688 C 57.84375 61.222656 57.691406 61.261719 57.539062 61.292969 C 57.382812 61.320312 57.230469 61.34375 57.074219 61.359375 C 56.917969 61.375 56.761719 61.382812 56.605469 61.382812 Z M 56.605469 61.382812 " fill-opacity="1" fill-rule="nonzero"/></g><g clip-path="url(#5ced59bfeb)"><path fill="#ffffff" d="M 59.789062 27.9375 C 59.6875 27.9375 59.582031 27.929688 59.480469 27.910156 C 59.378906 27.886719 59.277344 27.859375 59.179688 27.816406 C 59.085938 27.777344 58.992188 27.730469 58.90625 27.671875 C 58.820312 27.613281 58.738281 27.546875 58.664062 27.472656 C 58.589844 27.398438 58.523438 27.320312 58.464844 27.230469 C 58.410156 27.144531 58.359375 27.054688 58.320312 26.957031 C 58.277344 26.859375 58.25 26.757812 58.230469 26.65625 C 58.207031 26.554688 58.199219 26.449219 58.199219 26.347656 L 58.199219 18.382812 C 58.199219 18.277344 58.1875 18.175781 58.167969 18.074219 C 58.148438 17.96875 58.117188 17.871094 58.078125 17.773438 C 58.035156 17.675781 57.988281 17.585938 57.929688 17.5 C 57.871094 17.410156 57.804688 17.332031 57.730469 17.257812 C 57.65625 17.183594 57.578125 17.117188 57.492188 17.058594 C 57.402344 17 57.3125 16.953125 57.214844 16.914062 C 57.117188 16.871094 57.019531 16.84375 56.917969 16.820312 C 56.8125 16.800781 56.710938 16.792969 56.605469 16.792969 L 48.644531 16.792969 C 48.539062 16.792969 48.433594 16.78125 48.332031 16.761719 C 48.230469 16.742188 48.128906 16.710938 48.03125 16.667969 C 47.9375 16.628906 47.84375 16.582031 47.757812 16.523438 C 47.671875 16.464844 47.589844 16.398438 47.515625 16.324219 C 47.441406 16.25 47.375 16.171875 47.320312 16.082031 C 47.261719 15.996094 47.210938 15.90625 47.171875 15.808594 C 47.132812 15.710938 47.101562 15.613281 47.082031 15.507812 C 47.058594 15.40625 47.050781 15.304688 47.050781 15.199219 C 47.050781 15.09375 47.058594 14.992188 47.082031 14.886719 C 47.101562 14.785156 47.132812 14.6875 47.171875 14.589844 C 47.210938 14.492188 47.261719 14.402344 47.320312 14.3125 C 47.375 14.226562 47.441406 14.144531 47.515625 14.074219 C 47.589844 14 47.671875 13.933594 47.757812 13.875 C 47.84375 13.816406 47.9375 13.765625 48.03125 13.726562 C 48.128906 13.6875 48.230469 13.65625 48.332031 13.636719 C 48.433594 13.617188 48.539062 13.605469 48.644531 13.605469 L 56.605469 13.605469 C 56.761719 13.605469 56.917969 13.613281 57.074219 13.628906 C 57.230469 13.644531 57.382812 13.667969 57.539062 13.699219 C 57.691406 13.726562 57.84375 13.765625 57.992188 13.8125 C 58.140625 13.855469 58.289062 13.910156 58.433594 13.96875 C 58.578125 14.03125 58.71875 14.097656 58.859375 14.171875 C 58.996094 14.242188 59.128906 14.324219 59.257812 14.410156 C 59.390625 14.5 59.515625 14.589844 59.636719 14.691406 C 59.757812 14.789062 59.875 14.894531 59.984375 15.003906 C 60.09375 15.117188 60.199219 15.230469 60.300781 15.351562 C 60.398438 15.472656 60.492188 15.597656 60.578125 15.730469 C 60.664062 15.859375 60.746094 15.992188 60.820312 16.132812 C 60.894531 16.269531 60.960938 16.410156 61.019531 16.554688 C 61.078125 16.699219 61.132812 16.847656 61.179688 16.996094 C 61.222656 17.148438 61.261719 17.296875 61.292969 17.453125 C 61.320312 17.605469 61.34375 17.757812 61.359375 17.914062 C 61.375 18.070312 61.382812 18.226562 61.382812 18.382812 L 61.382812 26.347656 C 61.382812 26.449219 61.371094 26.554688 61.351562 26.65625 C 61.332031 26.757812 61.300781 26.859375 61.261719 26.957031 C 61.222656 27.054688 61.171875 27.144531 61.113281 27.230469 C 61.058594 27.320312 60.992188 27.398438 60.917969 27.472656 C 60.84375 27.546875 60.761719 27.613281 60.675781 27.671875 C 60.589844 27.730469 60.496094 27.777344 60.402344 27.816406 C 60.304688 27.859375 60.203125 27.886719 60.101562 27.910156 C 60 27.929688 59.894531 27.9375 59.789062 27.9375 Z M 59.789062 27.9375 " fill-opacity="1" fill-rule="nonzero"/></g><g clip-path="url(#8a5d791db2)"><path fill="#ffffff" d="M 15.199219 27.9375 C 15.09375 27.9375 14.992188 27.929688 14.886719 27.910156 C 14.785156 27.886719 14.6875 27.859375 14.589844 27.816406 C 14.492188 27.777344 14.402344 27.730469 14.3125 27.671875 C 14.226562 27.613281 14.144531 27.546875 14.074219 27.472656 C 14 27.398438 13.933594 27.320312 13.875 27.230469 C 13.816406 27.144531 13.765625 27.054688 13.726562 26.957031 C 13.6875 26.859375 13.65625 26.757812 13.636719 26.65625 C 13.617188 26.554688 13.605469 26.449219 13.605469 26.347656 L 13.605469 18.382812 C 13.605469 18.226562 13.613281 18.070312 13.628906 17.914062 C 13.644531 17.757812 13.667969 17.605469 13.699219 17.453125 C 13.726562 17.296875 13.765625 17.148438 13.8125 16.996094 C 13.855469 16.847656 13.910156 16.699219 13.96875 16.554688 C 14.03125 16.410156 14.097656 16.269531 14.171875 16.132812 C 14.242188 15.992188 14.324219 15.859375 14.410156 15.730469 C 14.5 15.597656 14.589844 15.472656 14.691406 15.351562 C 14.789062 15.230469 14.894531 15.117188 15.003906 15.003906 C 15.117188 14.894531 15.230469 14.789062 15.351562 14.691406 C 15.472656 14.589844 15.597656 14.5 15.730469 14.410156 C 15.859375 14.324219 15.992188 14.242188 16.132812 14.171875 C 16.269531 14.097656 16.410156 14.03125 16.554688 13.96875 C 16.699219 13.910156 16.847656 13.855469 16.996094 13.8125 C 17.148438 13.765625 17.296875 13.726562 17.453125 13.699219 C 17.605469 13.667969 17.757812 13.644531 17.914062 13.628906 C 18.070312 13.613281 18.226562 13.605469 18.382812 13.605469 L 26.347656 13.605469 C 26.449219 13.605469 26.554688 13.617188 26.65625 13.636719 C 26.757812 13.65625 26.859375 13.6875 26.957031 13.726562 C 27.054688 13.765625 27.144531 13.816406 27.230469 13.875 C 27.320312 13.933594 27.398438 14 27.472656 14.074219 C 27.546875 14.144531 27.613281 14.226562 27.671875 14.3125 C 27.730469 14.402344 27.777344 14.492188 27.816406 14.589844 C 27.859375 14.6875 27.886719 14.785156 27.910156 14.886719 C 27.929688 14.992188 27.9375 15.09375 27.9375 15.199219 C 27.9375 15.304688 27.929688 15.40625 27.910156 15.507812 C 27.886719 15.613281 27.859375 15.710938 27.816406 15.808594 C 27.777344 15.90625 27.730469 15.996094 27.671875 16.082031 C 27.613281 16.171875 27.546875 16.25 27.472656 16.324219 C 27.398438 16.398438 27.320312 16.464844 27.230469 16.523438 C 27.144531 16.582031 27.054688 16.628906 26.957031 16.667969 C 26.859375 16.710938 26.757812 16.742188 26.65625 16.761719 C 26.554688 16.78125 26.449219 16.792969 26.347656 16.792969 L 18.382812 16.792969 C 18.277344 16.792969 18.175781 16.800781 18.074219 16.820312 C 17.96875 16.84375 17.871094 16.871094 17.773438 16.914062 C 17.675781 16.953125 17.585938 17 17.5 17.058594 C 17.410156 17.117188 17.332031 17.183594 17.257812 17.257812 C 17.183594 17.332031 17.117188 17.410156 17.058594 17.5 C 17 17.585938 16.953125 17.675781 16.914062 17.773438 C 16.871094 17.871094 16.84375 17.96875 16.820312 18.074219 C 16.800781 18.175781 16.792969 18.277344 16.792969 18.382812 L 16.792969 26.347656 C 16.792969 26.449219 16.78125 26.554688 16.761719 26.65625 C 16.742188 26.757812 16.710938 26.859375 16.667969 26.957031 C 16.628906 27.054688 16.582031 27.144531 16.523438 27.230469 C 16.464844 27.320312 16.398438 27.398438 16.324219 27.472656 C 16.25 27.546875 16.171875 27.613281 16.082031 27.671875 C 15.996094 27.730469 15.90625 27.777344 15.808594 27.816406 C 15.710938 27.859375 15.613281 27.886719 15.507812 27.910156 C 15.40625 27.929688 15.304688 27.9375 15.199219 27.9375 Z M 15.199219 27.9375 " fill-opacity="1" fill-rule="nonzero"/></g><path fill="#ffffff" d="M 47.050781 31.125 C 47.050781 31.28125 47.046875 31.4375 47.039062 31.59375 C 47.03125 31.75 47.019531 31.90625 47.003906 32.0625 C 46.988281 32.214844 46.96875 32.371094 46.945312 32.527344 C 46.921875 32.679688 46.898438 32.835938 46.867188 32.988281 C 46.835938 33.140625 46.800781 33.292969 46.765625 33.445312 C 46.726562 33.597656 46.683594 33.75 46.636719 33.898438 C 46.59375 34.046875 46.542969 34.195312 46.492188 34.34375 C 46.4375 34.492188 46.382812 34.636719 46.324219 34.78125 C 46.261719 34.925781 46.199219 35.070312 46.132812 35.210938 C 46.066406 35.351562 45.996094 35.492188 45.921875 35.628906 C 45.847656 35.765625 45.769531 35.902344 45.691406 36.035156 C 45.609375 36.171875 45.527344 36.304688 45.441406 36.433594 C 45.351562 36.5625 45.261719 36.691406 45.167969 36.816406 C 45.078125 36.941406 44.980469 37.066406 44.882812 37.1875 C 44.78125 37.308594 44.679688 37.425781 44.574219 37.542969 C 44.46875 37.65625 44.363281 37.769531 44.25 37.878906 C 44.140625 37.992188 44.027344 38.097656 43.910156 38.203125 C 43.796875 38.308594 43.675781 38.410156 43.554688 38.511719 C 43.433594 38.609375 43.3125 38.707031 43.1875 38.800781 C 43.0625 38.894531 42.933594 38.984375 42.804688 39.070312 C 42.671875 39.15625 42.542969 39.238281 42.40625 39.320312 C 42.273438 39.402344 42.136719 39.476562 42 39.550781 C 41.859375 39.625 41.722656 39.695312 41.582031 39.761719 C 41.4375 39.828125 41.296875 39.890625 41.152344 39.953125 C 41.007812 40.011719 40.859375 40.070312 40.714844 40.121094 C 40.566406 40.171875 40.417969 40.222656 40.269531 40.269531 C 40.117188 40.3125 39.96875 40.355469 39.816406 40.394531 C 39.664062 40.429688 39.511719 40.464844 39.359375 40.496094 C 39.207031 40.527344 39.050781 40.554688 38.898438 40.578125 C 38.742188 40.597656 38.585938 40.617188 38.429688 40.632812 C 38.277344 40.648438 38.121094 40.660156 37.964844 40.667969 C 37.808594 40.675781 37.652344 40.679688 37.496094 40.679688 C 37.339844 40.679688 37.183594 40.675781 37.027344 40.667969 C 36.871094 40.660156 36.714844 40.648438 36.558594 40.632812 C 36.402344 40.617188 36.246094 40.597656 36.09375 40.578125 C 35.9375 40.554688 35.785156 40.527344 35.628906 40.496094 C 35.476562 40.464844 35.324219 40.429688 35.171875 40.394531 C 35.019531 40.355469 34.871094 40.3125 34.722656 40.269531 C 34.570312 40.222656 34.421875 40.171875 34.277344 40.121094 C 34.128906 40.070312 33.984375 40.011719 33.835938 39.953125 C 33.695312 39.890625 33.550781 39.828125 33.410156 39.761719 C 33.269531 39.695312 33.128906 39.625 32.988281 39.550781 C 32.851562 39.476562 32.714844 39.402344 32.582031 39.320312 C 32.449219 39.238281 32.316406 39.15625 32.1875 39.070312 C 32.054688 38.984375 31.929688 38.894531 31.800781 38.800781 C 31.675781 38.707031 31.554688 38.609375 31.433594 38.511719 C 31.3125 38.410156 31.195312 38.308594 31.078125 38.203125 C 30.960938 38.097656 30.847656 37.992188 30.738281 37.878906 C 30.628906 37.769531 30.519531 37.65625 30.414062 37.542969 C 30.308594 37.425781 30.207031 37.308594 30.109375 37.1875 C 30.007812 37.066406 29.914062 36.941406 29.820312 36.816406 C 29.726562 36.691406 29.636719 36.5625 29.550781 36.433594 C 29.460938 36.304688 29.378906 36.171875 29.300781 36.035156 C 29.21875 35.902344 29.140625 35.765625 29.066406 35.628906 C 28.992188 35.492188 28.921875 35.351562 28.855469 35.210938 C 28.789062 35.070312 28.726562 34.925781 28.667969 34.78125 C 28.605469 34.636719 28.550781 34.492188 28.496094 34.34375 C 28.445312 34.195312 28.394531 34.046875 28.351562 33.898438 C 28.304688 33.75 28.265625 33.597656 28.226562 33.445312 C 28.1875 33.292969 28.152344 33.140625 28.121094 32.988281 C 28.09375 32.835938 28.066406 32.679688 28.042969 32.527344 C 28.019531 32.371094 28 32.214844 27.984375 32.0625 C 27.96875 31.90625 27.957031 31.75 27.949219 31.59375 C 27.941406 31.4375 27.9375 31.28125 27.9375 31.125 C 27.9375 30.96875 27.941406 30.8125 27.949219 30.65625 C 27.957031 30.5 27.96875 30.34375 27.984375 30.1875 C 28 30.03125 28.019531 29.878906 28.042969 29.722656 C 28.066406 29.566406 28.09375 29.414062 28.121094 29.261719 C 28.152344 29.105469 28.1875 28.953125 28.226562 28.800781 C 28.265625 28.652344 28.304688 28.5 28.351562 28.351562 C 28.394531 28.199219 28.445312 28.050781 28.496094 27.90625 C 28.550781 27.757812 28.605469 27.613281 28.667969 27.46875 C 28.726562 27.324219 28.789062 27.179688 28.855469 27.039062 C 28.921875 26.898438 28.992188 26.757812 29.066406 26.621094 C 29.140625 26.480469 29.21875 26.347656 29.300781 26.210938 C 29.378906 26.078125 29.460938 25.945312 29.550781 25.816406 C 29.636719 25.6875 29.726562 25.558594 29.820312 25.433594 C 29.914062 25.304688 30.007812 25.183594 30.109375 25.0625 C 30.207031 24.941406 30.308594 24.824219 30.414062 24.707031 C 30.519531 24.589844 30.628906 24.476562 30.738281 24.367188 C 30.847656 24.257812 30.960938 24.148438 31.078125 24.042969 C 31.195312 23.9375 31.3125 23.835938 31.433594 23.738281 C 31.554688 23.640625 31.675781 23.542969 31.800781 23.449219 C 31.929688 23.355469 32.054688 23.265625 32.1875 23.179688 C 32.316406 23.09375 32.449219 23.007812 32.582031 22.929688 C 32.714844 22.847656 32.851562 22.769531 32.988281 22.695312 C 33.128906 22.625 33.269531 22.554688 33.410156 22.484375 C 33.550781 22.417969 33.695312 22.355469 33.835938 22.296875 C 33.984375 22.234375 34.128906 22.179688 34.277344 22.128906 C 34.421875 22.074219 34.570312 22.027344 34.722656 21.980469 C 34.871094 21.933594 35.019531 21.894531 35.171875 21.855469 C 35.324219 21.816406 35.476562 21.78125 35.628906 21.753906 C 35.785156 21.722656 35.9375 21.695312 36.09375 21.671875 C 36.246094 21.648438 36.402344 21.628906 36.558594 21.613281 C 36.714844 21.601562 36.871094 21.589844 37.027344 21.582031 C 37.183594 21.574219 37.339844 21.570312 37.496094 21.570312 C 37.652344 21.570312 37.808594 21.574219 37.964844 21.582031 C 38.121094 21.589844 38.277344 21.601562 38.429688 21.613281 C 38.585938 21.628906 38.742188 21.648438 38.898438 21.671875 C 39.050781 21.695312 39.207031 21.722656 39.359375 21.753906 C 39.511719 21.78125 39.664062 21.816406 39.816406 21.855469 C 39.96875 21.894531 40.117188 21.933594 40.269531 21.980469 C 40.417969 22.027344 40.566406 22.074219 40.714844 22.128906 C 40.859375 22.179688 41.007812 22.234375 41.152344 22.296875 C 41.296875 22.355469 41.4375 22.417969 41.582031 22.484375 C 41.722656 22.554688 41.859375 22.625 42 22.695312 C 42.136719 22.769531 42.273438 22.847656 42.40625 22.929688 C 42.542969 23.007812 42.671875 23.09375 42.804688 23.179688 C 42.933594 23.265625 43.0625 23.355469 43.1875 23.449219 C 43.3125 23.542969 43.433594 23.640625 43.554688 23.738281 C 43.675781 23.835938 43.796875 23.9375 43.910156 24.042969 C 44.027344 24.148438 44.140625 24.257812 44.25 24.367188 C 44.363281 24.476562 44.46875 24.589844 44.574219 24.707031 C 44.679688 24.824219 44.78125 24.941406 44.882812 25.0625 C 44.980469 25.183594 45.078125 25.304688 45.167969 25.433594 C 45.261719 25.558594 45.351562 25.6875 45.441406 25.816406 C 45.527344 25.945312 45.609375 26.078125 45.691406 26.210938 C 45.769531 26.347656 45.847656 26.480469 45.921875 26.621094 C 45.996094 26.757812 46.066406 26.898438 46.132812 27.039062 C 46.199219 27.179688 46.261719 27.324219 46.324219 27.46875 C 46.382812 27.613281 46.4375 27.757812 46.492188 27.90625 C 46.542969 28.050781 46.59375 28.199219 46.636719 28.351562 C 46.683594 28.5 46.726562 28.652344 46.765625 28.800781 C 46.800781 28.953125 46.835938 29.105469 46.867188 29.261719 C 46.898438 29.414062 46.921875 29.566406 46.945312 29.722656 C 46.96875 29.878906 46.988281 30.03125 47.003906 30.1875 C 47.019531 30.34375 47.03125 30.5 47.039062 30.65625 C 47.046875 30.8125 47.050781 30.96875 47.050781 31.125 Z M 47.050781 31.125 " fill-opacity="1" fill-rule="nonzero"/><path fill="#ffffff" d="M 51.828125 51.828125 C 51.828125 51.933594 51.816406 52.035156 51.796875 52.136719 C 51.777344 52.242188 51.746094 52.339844 51.707031 52.4375 C 51.667969 52.535156 51.617188 52.625 51.558594 52.710938 C 51.5 52.800781 51.433594 52.878906 51.363281 52.953125 C 51.289062 53.027344 51.207031 53.09375 51.121094 53.152344 C 51.03125 53.210938 50.941406 53.257812 50.84375 53.300781 C 50.746094 53.339844 50.648438 53.371094 50.546875 53.390625 C 50.441406 53.410156 50.339844 53.421875 50.234375 53.421875 L 24.753906 53.421875 C 24.648438 53.421875 24.546875 53.410156 24.445312 53.390625 C 24.339844 53.371094 24.242188 53.339844 24.144531 53.300781 C 24.046875 53.257812 23.957031 53.210938 23.871094 53.152344 C 23.78125 53.09375 23.703125 53.027344 23.628906 52.953125 C 23.554688 52.878906 23.488281 52.800781 23.429688 52.710938 C 23.371094 52.625 23.324219 52.535156 23.28125 52.4375 C 23.242188 52.339844 23.210938 52.242188 23.191406 52.136719 C 23.171875 52.035156 23.160156 51.933594 23.160156 51.828125 C 23.160156 51.277344 23.191406 50.730469 23.257812 50.183594 C 23.320312 49.636719 23.414062 49.09375 23.539062 48.558594 C 23.664062 48.023438 23.820312 47.496094 24.007812 46.980469 C 24.195312 46.460938 24.410156 45.957031 24.652344 45.464844 C 24.898438 44.972656 25.167969 44.496094 25.46875 44.03125 C 25.769531 43.570312 26.09375 43.128906 26.441406 42.703125 C 26.792969 42.28125 27.167969 41.878906 27.5625 41.496094 C 27.960938 41.117188 28.378906 40.757812 28.816406 40.425781 C 28.960938 40.5625 29.109375 40.695312 29.261719 40.824219 C 29.410156 40.953125 29.566406 41.078125 29.722656 41.203125 C 29.878906 41.324219 30.039062 41.441406 30.203125 41.558594 C 30.367188 41.671875 30.53125 41.78125 30.699219 41.890625 C 30.867188 41.996094 31.039062 42.097656 31.210938 42.195312 C 31.386719 42.296875 31.558594 42.390625 31.738281 42.480469 C 31.914062 42.570312 32.09375 42.65625 32.277344 42.738281 C 32.457031 42.824219 32.640625 42.898438 32.828125 42.972656 C 33.011719 43.046875 33.199219 43.117188 33.386719 43.179688 C 33.574219 43.246094 33.765625 43.304688 33.957031 43.359375 C 34.148438 43.417969 34.339844 43.46875 34.535156 43.515625 C 34.726562 43.558594 34.921875 43.601562 35.117188 43.640625 C 35.3125 43.675781 35.511719 43.710938 35.707031 43.738281 C 35.90625 43.765625 36.101562 43.789062 36.300781 43.808594 C 36.5 43.828125 36.699219 43.839844 36.898438 43.851562 C 37.097656 43.859375 37.296875 43.863281 37.496094 43.863281 C 37.695312 43.863281 37.894531 43.859375 38.09375 43.851562 C 38.289062 43.839844 38.488281 43.828125 38.6875 43.808594 C 38.886719 43.789062 39.085938 43.765625 39.28125 43.738281 C 39.480469 43.710938 39.675781 43.675781 39.871094 43.640625 C 40.066406 43.601562 40.261719 43.558594 40.453125 43.515625 C 40.648438 43.46875 40.839844 43.417969 41.03125 43.359375 C 41.222656 43.304688 41.414062 43.246094 41.601562 43.179688 C 41.789062 43.117188 41.976562 43.046875 42.164062 42.972656 C 42.347656 42.898438 42.53125 42.824219 42.710938 42.738281 C 42.894531 42.65625 43.074219 42.570312 43.25 42.480469 C 43.429688 42.390625 43.605469 42.296875 43.777344 42.195312 C 43.949219 42.097656 44.121094 41.996094 44.289062 41.890625 C 44.457031 41.78125 44.621094 41.671875 44.785156 41.558594 C 44.949219 41.441406 45.109375 41.324219 45.265625 41.203125 C 45.421875 41.078125 45.578125 40.953125 45.730469 40.824219 C 45.878906 40.695312 46.027344 40.5625 46.175781 40.425781 C 46.613281 40.757812 47.027344 41.117188 47.425781 41.496094 C 47.824219 41.878906 48.195312 42.28125 48.546875 42.703125 C 48.898438 43.128906 49.222656 43.570312 49.519531 44.03125 C 49.820312 44.496094 50.09375 44.972656 50.335938 45.464844 C 50.582031 45.957031 50.796875 46.460938 50.980469 46.980469 C 51.167969 47.496094 51.324219 48.023438 51.449219 48.558594 C 51.574219 49.09375 51.667969 49.636719 51.734375 50.183594 C 51.796875 50.730469 51.828125 51.277344 51.828125 51.828125 Z M 51.828125 51.828125 " fill-opacity="1" fill-rule="nonzero"/></svg>