<?xml version="1.0" standalone="no"?>
<!DOCTYPE svg PUBLIC "-//W3C//DTD SVG 20010904//EN"
 "http://www.w3.org/TR/2001/REC-SVG-20010904/DTD/svg10.dtd">
<svg version="1.0" xmlns="http://www.w3.org/2000/svg"
 width="700.000000pt" height="700.000000pt" viewBox="0 0 700.000000 700.000000"
 preserveAspectRatio="xMidYMid meet">
<metadata>
Created by potrace 1.14, written by Peter Selinger 2001-2017
</metadata>
<g transform="translate(0.000000,700.000000) scale(0.100000,-0.100000)"
fill="#000000" stroke="none">
<path d="M695 6889 c-77 -10 -133 -28 -209 -65 -183 -92 -310 -253 -357 -454
-16 -67 -18 -139 -19 -702 0 -621 0 -628 21 -673 37 -79 123 -135 206 -135 83
0 170 59 206 139 19 44 20 68 21 661 1 575 2 617 20 652 23 47 60 85 111 111
39 20 51 21 660 22 l620 1 50 27 c169 93 156 335 -21 408 -31 13 -1213 20
-1309 8z"/>
<path d="M5017 6883 c-50 -15 -97 -55 -128 -108 -27 -48 -30 -141 -6 -196 18
-40 84 -104 125 -121 19 -8 220 -12 647 -13 616 -1 620 -1 662 -23 23 -12 56
-36 73 -54 59 -64 60 -71 60 -732 0 -677 -3 -645 78 -718 66 -60 169 -74 249
-33 40 20 100 87 110 122 4 16 8 323 7 683 l0 655 -23 69 c-74 225 -224 376
-447 452 l-79 27 -643 1 c-492 1 -653 -2 -685 -11z"/>
<path d="M3397 5764 c-1 -1 -27 -5 -57 -9 -675 -83 -1190 -662 -1190 -1341 -1
-127 3 -166 27 -283 73 -366 321 -709 648 -898 205 -119 407 -174 650 -178
212 -4 377 25 555 100 355 148 644 460 764 825 58 175 82 406 61 580 -73 616
-549 1104 -1162 1191 -65 9 -289 19 -296 13z"/>
<path d="M2199 3026 c-310 -258 -537 -607 -650 -999 -25 -85 -40 -155 -64
-297 -3 -19 -9 -95 -12 -168 -5 -111 -3 -140 12 -177 21 -56 66 -102 125 -128
44 -20 72 -20 1885 -20 1012 0 1856 4 1875 8 66 14 121 62 152 132 16 36 20
65 19 127 -10 574 -258 1105 -700 1499 -94 84 -95 84 -138 48 -261 -220 -524
-351 -831 -415 -142 -30 -232 -39 -377 -38 -97 1 -291 18 -305 27 -3 2 -24 6
-47 9 -22 4 -72 16 -109 27 -38 10 -77 21 -86 24 -64 15 -236 93 -363 165 -74
42 -198 133 -284 209 -13 11 -27 21 -31 21 -3 0 -35 -24 -71 -54z"/>
<path d="M301 2138 c-81 -12 -138 -58 -173 -137 -18 -42 -19 -72 -16 -690 3
-583 5 -652 21 -706 57 -190 190 -348 365 -431 131 -63 139 -64 840 -64 691 0
673 -1 735 58 116 110 87 301 -57 368 l-51 23 -604 1 c-418 0 -616 4 -642 12
-51 15 -105 61 -132 111 -21 42 -22 44 -23 659 -1 659 -1 647 -52 715 -48 64
-125 94 -211 81z"/>
<path d="M6640 2139 c-87 -16 -158 -76 -178 -150 -9 -31 -13 -222 -15 -654 -2
-609 -2 -610 -24 -652 -27 -51 -82 -96 -132 -112 -27 -8 -216 -11 -633 -11
-665 0 -654 1 -726 -69 -113 -110 -75 -305 71 -366 55 -23 1291 -22 1382 1
229 58 416 236 486 464 l23 75 1 660 0 660 -28 47 c-45 76 -143 123 -227 107z"/>
</g>
</svg>
