<svg xmlns="http://www.w3.org/2000/svg" xmlns:xlink="http://www.w3.org/1999/xlink" width="500" zoomAndPan="magnify" viewBox="0 0 375 374.999991" height="500" preserveAspectRatio="xMidYMid meet" version="1.0"><path fill="#4338ca" d="M 100 375 L 37.5 375 C 36.273438 375 35.046875 374.941406 33.824219 374.820312 C 32.601562 374.699219 31.390625 374.519531 30.183594 374.28125 C 28.980469 374.039062 27.789062 373.742188 26.613281 373.386719 C 25.4375 373.027344 24.285156 372.617188 23.148438 372.144531 C 22.015625 371.675781 20.90625 371.152344 19.824219 370.570312 C 18.738281 369.992188 17.6875 369.363281 16.667969 368.679688 C 15.644531 367.996094 14.660156 367.265625 13.710938 366.488281 C 12.761719 365.707031 11.851562 364.886719 10.984375 364.015625 C 10.113281 363.148438 9.292969 362.238281 8.511719 361.289062 C 7.734375 360.339844 7.003906 359.355469 6.320312 358.332031 C 5.636719 357.3125 5.007812 356.261719 4.429688 355.175781 C 3.847656 354.09375 3.324219 352.984375 2.855469 351.851562 C 2.382812 350.714844 1.972656 349.5625 1.613281 348.386719 C 1.257812 347.210938 0.960938 346.019531 0.71875 344.816406 C 0.480469 343.609375 0.300781 342.398438 0.179688 341.175781 C 0.0585938 339.953125 0 338.726562 0 337.5 L 0 275 C 0 274.179688 0.078125 273.367188 0.238281 272.5625 C 0.398438 271.757812 0.636719 270.976562 0.953125 270.214844 C 1.265625 269.457031 1.652344 268.738281 2.105469 268.054688 C 2.5625 267.371094 3.082031 266.742188 3.660156 266.160156 C 4.242188 265.582031 4.871094 265.0625 5.554688 264.605469 C 6.238281 264.152344 6.957031 263.765625 7.714844 263.453125 C 8.476562 263.136719 9.257812 262.898438 10.0625 262.738281 C 10.867188 262.578125 11.679688 262.5 12.5 262.5 C 13.320312 262.5 14.132812 262.578125 14.9375 262.738281 C 15.742188 262.898438 16.523438 263.136719 17.285156 263.453125 C 18.042969 263.765625 18.761719 264.152344 19.445312 264.605469 C 20.128906 265.0625 20.757812 265.582031 21.339844 266.160156 C 21.917969 266.742188 22.4375 267.371094 22.894531 268.054688 C 23.347656 268.738281 23.734375 269.457031 24.046875 270.214844 C 24.363281 270.976562 24.601562 271.757812 24.761719 272.5625 C 24.921875 273.367188 25 274.179688 25 275 L 25 337.5 C 25 338.320312 25.078125 339.132812 25.238281 339.9375 C 25.398438 340.742188 25.636719 341.523438 25.953125 342.285156 C 26.265625 343.042969 26.652344 343.761719 27.105469 344.445312 C 27.5625 345.128906 28.082031 345.757812 28.660156 346.339844 C 29.242188 346.917969 29.871094 347.4375 30.554688 347.894531 C 31.238281 348.347656 31.957031 348.734375 32.714844 349.046875 C 33.476562 349.363281 34.257812 349.601562 35.0625 349.757812 C 35.867188 349.917969 36.679688 350 37.5 350 L 100 350 C 100.820312 350 101.632812 350.078125 102.4375 350.238281 C 103.242188 350.398438 104.023438 350.636719 104.785156 350.953125 C 105.542969 351.265625 106.261719 351.652344 106.945312 352.105469 C 107.628906 352.5625 108.257812 353.082031 108.839844 353.660156 C 109.417969 354.242188 109.9375 354.871094 110.394531 355.554688 C 110.847656 356.238281 111.234375 356.957031 111.546875 357.714844 C 111.863281 358.476562 112.101562 359.257812 112.261719 360.0625 C 112.417969 360.867188 112.5 361.679688 112.5 362.5 C 112.5 363.320312 112.417969 364.132812 112.261719 364.9375 C 112.101562 365.742188 111.863281 366.523438 111.546875 367.285156 C 111.234375 368.042969 110.847656 368.761719 110.394531 369.445312 C 109.9375 370.128906 109.417969 370.757812 108.839844 371.339844 C 108.257812 371.917969 107.628906 372.4375 106.945312 372.894531 C 106.261719 373.347656 105.542969 373.734375 104.785156 374.046875 C 104.023438 374.363281 103.242188 374.601562 102.4375 374.757812 C 101.632812 374.917969 100.820312 375 100 375 Z M 100 375 " fill-opacity="1" fill-rule="nonzero"/><path fill="#4338ca" d="M 337.5 375 L 275 375 C 274.179688 375 273.367188 374.917969 272.5625 374.757812 C 271.757812 374.601562 270.976562 374.363281 270.214844 374.046875 C 269.457031 373.734375 268.738281 373.347656 268.054688 372.894531 C 267.371094 372.4375 266.742188 371.917969 266.160156 371.339844 C 265.582031 370.757812 265.0625 370.128906 264.605469 369.445312 C 264.152344 368.761719 263.765625 368.042969 263.453125 367.285156 C 263.136719 366.523438 262.898438 365.742188 262.738281 364.9375 C 262.578125 364.132812 262.5 363.320312 262.5 362.5 C 262.5 361.679688 262.578125 360.867188 262.738281 360.0625 C 262.898438 359.257812 263.136719 358.476562 263.453125 357.714844 C 263.765625 356.957031 264.152344 356.238281 264.605469 355.554688 C 265.0625 354.871094 265.582031 354.242188 266.160156 353.660156 C 266.742188 353.082031 267.371094 352.5625 268.054688 352.105469 C 268.738281 351.652344 269.457031 351.265625 270.214844 350.953125 C 270.976562 350.636719 271.757812 350.398438 272.5625 350.238281 C 273.367188 350.078125 274.179688 350 275 350 L 337.5 350 C 338.320312 350 339.132812 349.917969 339.9375 349.757812 C 340.742188 349.601562 341.523438 349.363281 342.285156 349.046875 C 343.042969 348.734375 343.761719 348.347656 344.445312 347.894531 C 345.128906 347.4375 345.757812 346.917969 346.339844 346.339844 C 346.917969 345.757812 347.4375 345.128906 347.894531 344.445312 C 348.347656 343.761719 348.734375 343.042969 349.046875 342.285156 C 349.363281 341.523438 349.601562 340.742188 349.757812 339.9375 C 349.917969 339.132812 350 338.320312 350 337.5 L 350 275 C 350 274.179688 350.078125 273.367188 350.238281 272.5625 C 350.398438 271.757812 350.636719 270.976562 350.953125 270.214844 C 351.265625 269.457031 351.652344 268.738281 352.105469 268.054688 C 352.5625 267.371094 353.082031 266.742188 353.660156 266.160156 C 354.242188 265.582031 354.871094 265.0625 355.554688 264.605469 C 356.238281 264.152344 356.957031 263.765625 357.714844 263.453125 C 358.476562 263.136719 359.257812 262.898438 360.0625 262.738281 C 360.867188 262.578125 361.679688 262.5 362.5 262.5 C 363.320312 262.5 364.132812 262.578125 364.9375 262.738281 C 365.742188 262.898438 366.523438 263.136719 367.285156 263.453125 C 368.042969 263.765625 368.761719 264.152344 369.445312 264.605469 C 370.128906 265.0625 370.757812 265.582031 371.339844 266.160156 C 371.917969 266.742188 372.4375 267.371094 372.894531 268.054688 C 373.347656 268.738281 373.734375 269.457031 374.046875 270.214844 C 374.363281 270.976562 374.601562 271.757812 374.757812 272.5625 C 374.917969 273.367188 375 274.179688 375 275 L 375 337.5 C 375 338.726562 374.941406 339.953125 374.820312 341.175781 C 374.699219 342.398438 374.519531 343.609375 374.28125 344.816406 C 374.039062 346.019531 373.742188 347.210938 373.386719 348.386719 C 373.027344 349.5625 372.617188 350.714844 372.144531 351.851562 C 371.675781 352.984375 371.152344 354.09375 370.570312 355.175781 C 369.992188 356.261719 369.363281 357.3125 368.679688 358.332031 C 367.996094 359.355469 367.265625 360.339844 366.488281 361.289062 C 365.707031 362.238281 364.886719 363.148438 364.015625 364.015625 C 363.148438 364.886719 362.238281 365.707031 361.289062 366.488281 C 360.339844 367.265625 359.355469 367.996094 358.332031 368.679688 C 357.3125 369.363281 356.261719 369.992188 355.175781 370.570312 C 354.09375 371.152344 352.984375 371.675781 351.851562 372.144531 C 350.714844 372.617188 349.5625 373.027344 348.386719 373.386719 C 347.210938 373.742188 346.019531 374.039062 344.816406 374.28125 C 343.609375 374.519531 342.398438 374.699219 341.175781 374.820312 C 339.953125 374.941406 338.726562 375 337.5 375 Z M 337.5 375 " fill-opacity="1" fill-rule="nonzero"/><path fill="#4338ca" d="M 362.5 112.5 C 361.679688 112.5 360.867188 112.417969 360.0625 112.261719 C 359.257812 112.101562 358.476562 111.863281 357.714844 111.546875 C 356.957031 111.234375 356.238281 110.847656 355.554688 110.394531 C 354.871094 109.9375 354.242188 109.417969 353.660156 108.839844 C 353.082031 108.257812 352.5625 107.628906 352.105469 106.945312 C 351.652344 106.261719 351.265625 105.542969 350.953125 104.785156 C 350.636719 104.023438 350.398438 103.242188 350.238281 102.4375 C 350.078125 101.632812 350 100.820312 350 100 L 350 37.5 C 350 36.679688 349.917969 35.867188 349.757812 35.0625 C 349.601562 34.257812 349.363281 33.476562 349.046875 32.714844 C 348.734375 31.957031 348.347656 31.238281 347.894531 30.554688 C 347.4375 29.871094 346.917969 29.242188 346.339844 28.660156 C 345.757812 28.082031 345.128906 27.5625 344.445312 27.105469 C 343.761719 26.652344 343.042969 26.265625 342.285156 25.953125 C 341.523438 25.636719 340.742188 25.398438 339.9375 25.238281 C 339.132812 25.078125 338.320312 25 337.5 25 L 275 25 C 274.179688 25 273.367188 24.921875 272.5625 24.761719 C 271.757812 24.601562 270.976562 24.363281 270.214844 24.046875 C 269.457031 23.734375 268.738281 23.347656 268.054688 22.894531 C 267.371094 22.4375 266.742188 21.917969 266.160156 21.339844 C 265.582031 20.757812 265.0625 20.128906 264.605469 19.445312 C 264.152344 18.761719 263.765625 18.042969 263.453125 17.285156 C 263.136719 16.523438 262.898438 15.742188 262.738281 14.9375 C 262.578125 14.132812 262.5 13.320312 262.5 12.5 C 262.5 11.679688 262.578125 10.867188 262.738281 10.0625 C 262.898438 9.257812 263.136719 8.476562 263.453125 7.714844 C 263.765625 6.957031 264.152344 6.238281 264.605469 5.554688 C 265.0625 4.871094 265.582031 4.242188 266.160156 3.660156 C 266.742188 3.082031 267.371094 2.5625 268.054688 2.105469 C 268.738281 1.652344 269.457031 1.265625 270.214844 0.953125 C 270.976562 0.636719 271.757812 0.398438 272.5625 0.238281 C 273.367188 0.078125 274.179688 0 275 0 L 337.5 0 C 338.726562 0 339.953125 0.0585938 341.175781 0.179688 C 342.398438 0.300781 343.609375 0.480469 344.816406 0.71875 C 346.019531 0.960938 347.210938 1.257812 348.386719 1.613281 C 349.5625 1.972656 350.714844 2.382812 351.851562 2.855469 C 352.984375 3.324219 354.09375 3.847656 355.175781 4.429688 C 356.261719 5.007812 357.3125 5.636719 358.332031 6.320312 C 359.355469 7.003906 360.339844 7.734375 361.289062 8.511719 C 362.238281 9.292969 363.148438 10.113281 364.015625 10.984375 C 364.886719 11.851562 365.707031 12.761719 366.488281 13.710938 C 367.265625 14.660156 367.996094 15.644531 368.679688 16.667969 C 369.363281 17.6875 369.992188 18.738281 370.570312 19.824219 C 371.152344 20.90625 371.675781 22.015625 372.144531 23.148438 C 372.617188 24.285156 373.027344 25.4375 373.386719 26.613281 C 373.742188 27.789062 374.039062 28.980469 374.28125 30.183594 C 374.519531 31.390625 374.699219 32.601562 374.820312 33.824219 C 374.941406 35.046875 375 36.273438 375 37.5 L 375 100 C 375 100.820312 374.917969 101.632812 374.757812 102.4375 C 374.601562 103.242188 374.363281 104.023438 374.046875 104.785156 C 373.734375 105.542969 373.347656 106.261719 372.894531 106.945312 C 372.4375 107.628906 371.917969 108.257812 371.339844 108.839844 C 370.757812 109.417969 370.128906 109.9375 369.445312 110.394531 C 368.761719 110.847656 368.042969 111.234375 367.285156 111.546875 C 366.523438 111.863281 365.742188 112.101562 364.9375 112.261719 C 364.132812 112.417969 363.320312 112.5 362.5 112.5 Z M 362.5 112.5 " fill-opacity="1" fill-rule="nonzero"/><path fill="#4338ca" d="M 12.5 112.5 C 11.679688 112.5 10.867188 112.417969 10.0625 112.261719 C 9.257812 112.101562 8.476562 111.863281 7.714844 111.546875 C 6.957031 111.234375 6.238281 110.847656 5.554688 110.394531 C 4.871094 109.9375 4.242188 109.417969 3.660156 108.839844 C 3.082031 108.257812 2.5625 107.628906 2.105469 106.945312 C 1.652344 106.261719 1.265625 105.542969 0.953125 104.785156 C 0.636719 104.023438 0.398438 103.242188 0.238281 102.4375 C 0.078125 101.632812 0 100.820312 0 100 L 0 37.5 C 0 36.273438 0.0585938 35.046875 0.179688 33.824219 C 0.300781 32.601562 0.480469 31.390625 0.71875 30.183594 C 0.960938 28.980469 1.257812 27.789062 1.613281 26.613281 C 1.972656 25.4375 2.382812 24.285156 2.855469 23.148438 C 3.324219 22.015625 3.847656 20.90625 4.429688 19.824219 C 5.007812 18.738281 5.636719 17.6875 6.320312 16.667969 C 7.003906 15.644531 7.734375 14.660156 8.511719 13.710938 C 9.292969 12.761719 10.113281 11.851562 10.984375 10.984375 C 11.851562 10.113281 12.761719 9.292969 13.710938 8.511719 C 14.660156 7.734375 15.644531 7.003906 16.667969 6.320312 C 17.6875 5.636719 18.738281 5.007812 19.824219 4.429688 C 20.90625 3.847656 22.015625 3.324219 23.148438 2.855469 C 24.285156 2.382812 25.4375 1.972656 26.613281 1.613281 C 27.789062 1.257812 28.980469 0.960938 30.183594 0.71875 C 31.390625 0.480469 32.601562 0.300781 33.824219 0.179688 C 35.046875 0.0585938 36.273438 0 37.5 0 L 100 0 C 100.820312 0 101.632812 0.078125 102.4375 0.238281 C 103.242188 0.398438 104.023438 0.636719 104.785156 0.953125 C 105.542969 1.265625 106.261719 1.652344 106.945312 2.105469 C 107.628906 2.5625 108.257812 3.082031 108.839844 3.660156 C 109.417969 4.242188 109.9375 4.871094 110.394531 5.554688 C 110.847656 6.238281 111.234375 6.957031 111.546875 7.714844 C 111.863281 8.476562 112.101562 9.257812 112.261719 10.0625 C 112.417969 10.867188 112.5 11.679688 112.5 12.5 C 112.5 13.320312 112.417969 14.132812 112.261719 14.9375 C 112.101562 15.742188 111.863281 16.523438 111.546875 17.285156 C 111.234375 18.042969 110.847656 18.761719 110.394531 19.445312 C 109.9375 20.128906 109.417969 20.757812 108.839844 21.339844 C 108.257812 21.917969 107.628906 22.4375 106.945312 22.894531 C 106.261719 23.347656 105.542969 23.734375 104.785156 24.046875 C 104.023438 24.363281 103.242188 24.601562 102.4375 24.761719 C 101.632812 24.921875 100.820312 25 100 25 L 37.5 25 C 36.679688 25 35.867188 25.078125 35.0625 25.238281 C 34.257812 25.398438 33.476562 25.636719 32.714844 25.953125 C 31.957031 26.265625 31.238281 26.652344 30.554688 27.105469 C 29.871094 27.5625 29.242188 28.082031 28.660156 28.660156 C 28.082031 29.242188 27.5625 29.871094 27.105469 30.554688 C 26.652344 31.238281 26.265625 31.957031 25.953125 32.714844 C 25.636719 33.476562 25.398438 34.257812 25.238281 35.0625 C 25.078125 35.867188 25 36.679688 25 37.5 L 25 100 C 25 100.820312 24.921875 101.632812 24.761719 102.4375 C 24.601562 103.242188 24.363281 104.023438 24.046875 104.785156 C 23.734375 105.542969 23.347656 106.261719 22.894531 106.945312 C 22.4375 107.628906 21.917969 108.257812 21.339844 108.839844 C 20.757812 109.417969 20.128906 109.9375 19.445312 110.394531 C 18.761719 110.847656 18.042969 111.234375 17.285156 111.546875 C 16.523438 111.863281 15.742188 112.101562 14.9375 112.261719 C 14.132812 112.417969 13.320312 112.5 12.5 112.5 Z M 12.5 112.5 " fill-opacity="1" fill-rule="nonzero"/><path fill="#4338ca" d="M 262.5 137.5 C 262.5 138.726562 262.46875 139.953125 262.410156 141.179688 C 262.347656 142.40625 262.257812 143.628906 262.140625 144.851562 C 262.019531 146.074219 261.867188 147.289062 261.6875 148.503906 C 261.507812 149.71875 261.296875 150.929688 261.058594 152.132812 C 260.820312 153.335938 260.550781 154.53125 260.253906 155.722656 C 259.953125 156.914062 259.625 158.097656 259.269531 159.269531 C 258.914062 160.445312 258.527344 161.609375 258.117188 162.765625 C 257.703125 163.921875 257.261719 165.066406 256.789062 166.203125 C 256.320312 167.335938 255.824219 168.457031 255.300781 169.566406 C 254.773438 170.675781 254.222656 171.773438 253.644531 172.855469 C 253.066406 173.9375 252.460938 175.003906 251.828125 176.058594 C 251.199219 177.109375 250.542969 178.148438 249.859375 179.167969 C 249.179688 180.1875 248.472656 181.191406 247.742188 182.175781 C 247.007812 183.164062 246.253906 184.128906 245.476562 185.078125 C 244.695312 186.027344 243.894531 186.957031 243.070312 187.867188 C 242.246094 188.777344 241.402344 189.664062 240.53125 190.53125 C 239.664062 191.402344 238.777344 192.246094 237.867188 193.070312 C 236.957031 193.894531 236.027344 194.695312 235.078125 195.476562 C 234.128906 196.253906 233.164062 197.007812 232.175781 197.742188 C 231.191406 198.472656 230.1875 199.179688 229.167969 199.859375 C 228.148438 200.542969 227.109375 201.199219 226.058594 201.828125 C 225.003906 202.460938 223.9375 203.066406 222.855469 203.644531 C 221.773438 204.222656 220.675781 204.773438 219.566406 205.300781 C 218.457031 205.824219 217.335938 206.320312 216.203125 206.789062 C 215.066406 207.261719 213.921875 207.703125 212.765625 208.117188 C 211.609375 208.527344 210.445312 208.914062 209.269531 209.269531 C 208.097656 209.625 206.914062 209.953125 205.722656 210.253906 C 204.53125 210.550781 203.335938 210.820312 202.132812 211.058594 C 200.929688 211.296875 199.71875 211.507812 198.503906 211.6875 C 197.289062 211.867188 196.074219 212.019531 194.851562 212.140625 C 193.628906 212.257812 192.40625 212.347656 191.179688 212.410156 C 189.953125 212.46875 188.726562 212.5 187.5 212.5 C 186.273438 212.5 185.046875 212.46875 183.820312 212.410156 C 182.59375 212.347656 181.371094 212.257812 180.148438 212.140625 C 178.925781 212.019531 177.710938 211.867188 176.496094 211.6875 C 175.28125 211.507812 174.070312 211.296875 172.867188 211.058594 C 171.664062 210.820312 170.46875 210.550781 169.277344 210.253906 C 168.085938 209.953125 166.902344 209.625 165.730469 209.269531 C 164.554688 208.914062 163.390625 208.527344 162.234375 208.117188 C 161.078125 207.703125 159.933594 207.261719 158.796875 206.789062 C 157.664062 206.320312 156.542969 205.824219 155.433594 205.300781 C 154.324219 204.773438 153.226562 204.222656 152.144531 203.644531 C 151.0625 203.066406 149.996094 202.460938 148.941406 201.828125 C 147.890625 201.199219 146.851562 200.542969 145.832031 199.859375 C 144.8125 199.179688 143.808594 198.472656 142.824219 197.742188 C 141.835938 197.007812 140.871094 196.253906 139.921875 195.476562 C 138.972656 194.695312 138.042969 193.894531 137.132812 193.070312 C 136.222656 192.246094 135.335938 191.402344 134.46875 190.53125 C 133.597656 189.664062 132.753906 188.777344 131.929688 187.867188 C 131.105469 186.957031 130.304688 186.027344 129.523438 185.078125 C 128.746094 184.128906 127.992188 183.164062 127.257812 182.175781 C 126.527344 181.191406 125.820312 180.1875 125.140625 179.167969 C 124.457031 178.148438 123.800781 177.109375 123.171875 176.058594 C 122.539062 175.003906 121.933594 173.9375 121.355469 172.855469 C 120.777344 171.773438 120.226562 170.675781 119.699219 169.566406 C 119.175781 168.457031 118.679688 167.335938 118.210938 166.203125 C 117.738281 165.066406 117.296875 163.921875 116.882812 162.765625 C 116.46875 161.609375 116.085938 160.445312 115.730469 159.269531 C 115.375 158.097656 115.046875 156.914062 114.746094 155.722656 C 114.449219 154.53125 114.179688 153.335938 113.941406 152.132812 C 113.703125 150.929688 113.492188 149.71875 113.3125 148.503906 C 113.132812 147.289062 112.980469 146.074219 112.859375 144.851562 C 112.742188 143.628906 112.652344 142.40625 112.589844 141.179688 C 112.53125 139.953125 112.5 138.726562 112.5 137.5 C 112.5 136.273438 112.53125 135.046875 112.589844 133.820312 C 112.652344 132.59375 112.742188 131.371094 112.859375 130.148438 C 112.980469 128.925781 113.132812 127.710938 113.3125 126.496094 C 113.492188 125.28125 113.703125 124.070312 113.941406 122.867188 C 114.179688 121.664062 114.449219 120.46875 114.746094 119.277344 C 115.046875 118.085938 115.375 116.902344 115.730469 115.730469 C 116.085938 114.554688 116.46875 113.390625 116.882812 112.234375 C 117.296875 111.078125 117.738281 109.933594 118.210938 108.796875 C 118.679688 107.664062 119.175781 106.542969 119.699219 105.433594 C 120.226562 104.324219 120.777344 103.226562 121.355469 102.144531 C 121.933594 101.0625 122.539062 99.996094 123.171875 98.941406 C 123.800781 97.890625 124.457031 96.851562 125.140625 95.832031 C 125.820312 94.8125 126.527344 93.808594 127.257812 92.824219 C 127.992188 91.835938 128.746094 90.871094 129.523438 89.921875 C 130.304688 88.972656 131.105469 88.042969 131.929688 87.132812 C 132.753906 86.222656 133.597656 85.335938 134.46875 84.46875 C 135.335938 83.597656 136.222656 82.753906 137.132812 81.929688 C 138.042969 81.105469 138.972656 80.304688 139.921875 79.523438 C 140.871094 78.746094 141.835938 77.992188 142.824219 77.257812 C 143.808594 76.527344 144.8125 75.820312 145.832031 75.140625 C 146.851562 74.457031 147.890625 73.800781 148.941406 73.171875 C 149.996094 72.539062 151.0625 71.933594 152.144531 71.355469 C 153.226562 70.777344 154.324219 70.226562 155.433594 69.699219 C 156.542969 69.175781 157.664062 68.679688 158.796875 68.210938 C 159.933594 67.738281 161.078125 67.296875 162.234375 66.882812 C 163.390625 66.46875 164.554688 66.085938 165.730469 65.730469 C 166.902344 65.375 168.085938 65.046875 169.277344 64.746094 C 170.46875 64.449219 171.664062 64.179688 172.867188 63.941406 C 174.070312 63.703125 175.28125 63.492188 176.496094 63.3125 C 177.710938 63.132812 178.925781 62.980469 180.148438 62.859375 C 181.371094 62.742188 182.59375 62.652344 183.820312 62.589844 C 185.046875 62.53125 186.273438 62.5 187.5 62.5 C 188.726562 62.5 189.953125 62.53125 191.179688 62.589844 C 192.40625 62.652344 193.628906 62.742188 194.851562 62.859375 C 196.074219 62.980469 197.289062 63.132812 198.503906 63.3125 C 199.71875 63.492188 200.929688 63.703125 202.132812 63.941406 C 203.335938 64.179688 204.53125 64.449219 205.722656 64.746094 C 206.914062 65.046875 208.097656 65.375 209.269531 65.730469 C 210.445312 66.085938 211.609375 66.46875 212.765625 66.882812 C 213.921875 67.296875 215.066406 67.738281 216.203125 68.210938 C 217.335938 68.679688 218.457031 69.175781 219.566406 69.699219 C 220.675781 70.226562 221.773438 70.777344 222.855469 71.355469 C 223.9375 71.933594 225.003906 72.539062 226.058594 73.171875 C 227.109375 73.800781 228.148438 74.457031 229.167969 75.140625 C 230.1875 75.820312 231.191406 76.527344 232.175781 77.257812 C 233.164062 77.992188 234.128906 78.746094 235.078125 79.523438 C 236.027344 80.304688 236.957031 81.105469 237.867188 81.929688 C 238.777344 82.753906 239.664062 83.597656 240.53125 84.46875 C 241.402344 85.335938 242.246094 86.222656 243.070312 87.132812 C 243.894531 88.042969 244.695312 88.972656 245.476562 89.921875 C 246.253906 90.871094 247.007812 91.835938 247.742188 92.824219 C 248.472656 93.808594 249.179688 94.8125 249.859375 95.832031 C 250.542969 96.851562 251.199219 97.890625 251.828125 98.941406 C 252.460938 99.996094 253.066406 101.0625 253.644531 102.144531 C 254.222656 103.226562 254.773438 104.324219 255.300781 105.433594 C 255.824219 106.542969 256.320312 107.664062 256.789062 108.796875 C 257.261719 109.933594 257.703125 111.078125 258.117188 112.234375 C 258.527344 113.390625 258.914062 114.554688 259.269531 115.730469 C 259.625 116.902344 259.953125 118.085938 260.253906 119.277344 C 260.550781 120.46875 260.820312 121.664062 261.058594 122.867188 C 261.296875 124.070312 261.507812 125.28125 261.6875 126.496094 C 261.867188 127.710938 262.019531 128.925781 262.140625 130.148438 C 262.257812 131.371094 262.347656 132.59375 262.410156 133.820312 C 262.46875 135.046875 262.5 136.273438 262.5 137.5 Z M 262.5 137.5 " fill-opacity="1" fill-rule="nonzero"/><path fill="#4338ca" d="M 300 300 C 300 300.820312 299.917969 301.632812 299.757812 302.4375 C 299.601562 303.242188 299.363281 304.023438 299.046875 304.785156 C 298.734375 305.542969 298.347656 306.261719 297.894531 306.945312 C 297.4375 307.628906 296.917969 308.257812 296.339844 308.839844 C 295.757812 309.417969 295.128906 309.9375 294.445312 310.394531 C 293.761719 310.847656 293.042969 311.234375 292.285156 311.546875 C 291.523438 311.863281 290.742188 312.097656 289.9375 312.257812 C 289.132812 312.417969 288.320312 312.5 287.5 312.5 L 87.5 312.5 C 86.679688 312.5 85.867188 312.417969 85.0625 312.257812 C 84.257812 312.101562 83.476562 311.863281 82.714844 311.546875 C 81.957031 311.234375 81.238281 310.847656 80.554688 310.394531 C 79.871094 309.9375 79.242188 309.417969 78.660156 308.839844 C 78.082031 308.257812 77.5625 307.628906 77.105469 306.945312 C 76.652344 306.261719 76.265625 305.542969 75.953125 304.785156 C 75.636719 304.023438 75.398438 303.242188 75.238281 302.4375 C 75.078125 301.632812 75 300.820312 75 300 C 75 295.683594 75.25 291.378906 75.746094 287.089844 C 76.242188 282.800781 76.984375 278.554688 77.96875 274.351562 C 78.953125 270.148438 80.179688 266.015625 81.640625 261.949219 C 83.101562 257.886719 84.789062 253.921875 86.707031 250.054688 C 88.625 246.1875 90.761719 242.441406 93.109375 238.816406 C 95.457031 235.195312 98.007812 231.71875 100.757812 228.390625 C 103.507812 225.0625 106.4375 221.902344 109.550781 218.910156 C 112.664062 215.917969 115.9375 213.113281 119.375 210.5 C 120.515625 211.570312 121.679688 212.613281 122.867188 213.632812 C 124.054688 214.648438 125.265625 215.636719 126.503906 216.59375 C 127.738281 217.554688 128.992188 218.484375 130.273438 219.382812 C 131.550781 220.28125 132.851562 221.152344 134.171875 221.992188 C 135.492188 222.828125 136.832031 223.636719 138.1875 224.410156 C 139.546875 225.1875 140.921875 225.929688 142.316406 226.640625 C 143.707031 227.351562 145.117188 228.027344 146.542969 228.671875 C 147.96875 229.316406 149.40625 229.925781 150.859375 230.503906 C 152.3125 231.078125 153.78125 231.621094 155.261719 232.128906 C 156.738281 232.632812 158.230469 233.105469 159.730469 233.542969 C 161.234375 233.980469 162.742188 234.378906 164.265625 234.746094 C 165.785156 235.109375 167.3125 235.441406 168.847656 235.734375 C 170.386719 236.027344 171.925781 236.285156 173.476562 236.503906 C 175.023438 236.726562 176.574219 236.910156 178.132812 237.054688 C 179.691406 237.203125 181.25 237.3125 182.8125 237.386719 C 184.375 237.460938 185.9375 237.5 187.5 237.5 C 189.0625 237.5 190.625 237.460938 192.1875 237.386719 C 193.75 237.3125 195.308594 237.203125 196.867188 237.054688 C 198.425781 236.910156 199.976562 236.726562 201.523438 236.503906 C 203.074219 236.285156 204.613281 236.027344 206.152344 235.734375 C 207.6875 235.441406 209.214844 235.109375 210.734375 234.746094 C 212.257812 234.378906 213.765625 233.980469 215.269531 233.542969 C 216.769531 233.105469 218.261719 232.632812 219.738281 232.128906 C 221.21875 231.621094 222.6875 231.078125 224.140625 230.503906 C 225.59375 229.925781 227.03125 229.316406 228.457031 228.671875 C 229.882812 228.027344 231.292969 227.351562 232.683594 226.640625 C 234.078125 225.929688 235.453125 225.1875 236.8125 224.410156 C 238.167969 223.636719 239.507812 222.828125 240.828125 221.992188 C 242.148438 221.152344 243.449219 220.28125 244.726562 219.382812 C 246.007812 218.484375 247.261719 217.554688 248.496094 216.59375 C 249.734375 215.636719 250.945312 214.648438 252.132812 213.632812 C 253.320312 212.613281 254.484375 211.570312 255.625 210.5 C 259.0625 213.113281 262.335938 215.917969 265.449219 218.910156 C 268.5625 221.902344 271.492188 225.0625 274.242188 228.390625 C 276.992188 231.71875 279.542969 235.195312 281.890625 238.816406 C 284.238281 242.441406 286.375 246.1875 288.292969 250.054688 C 290.210938 253.921875 291.898438 257.886719 293.359375 261.949219 C 294.820312 266.015625 296.046875 270.148438 297.03125 274.351562 C 298.015625 278.554688 298.757812 282.800781 299.253906 287.089844 C 299.75 291.378906 300 295.683594 300 300 Z M 300 300 " fill-opacity="1" fill-rule="nonzero"/></svg>