<svg xmlns="http://www.w3.org/2000/svg" xmlns:xlink="http://www.w3.org/1999/xlink" width="100" zoomAndPan="magnify" viewBox="0 0 75 74.999997" height="100" preserveAspectRatio="xMidYMid meet" version="1.0"><defs><clipPath id="32f612e666"><path d="M 7.5 49 L 26 49 L 26 67.5 L 7.5 67.5 Z M 7.5 49 " clip-rule="nonzero"/></clipPath><clipPath id="8bbf260912"><path d="M 49 49 L 67.5 49 L 67.5 67.5 L 49 67.5 Z M 49 49 " clip-rule="nonzero"/></clipPath><clipPath id="9423b55eb1"><path d="M 49 7.5 L 67.5 7.5 L 67.5 26 L 49 26 Z M 49 7.5 " clip-rule="nonzero"/></clipPath><clipPath id="dc0a32db9e"><path d="M 7.5 7.5 L 26 7.5 L 26 26 L 7.5 26 Z M 7.5 7.5 " clip-rule="nonzero"/></clipPath></defs><g clip-path="url(#32f612e666)"><path fill="#ffffff" d="M 23.5 67.5 L 13.5 67.5 C 13.304688 67.5 13.109375 67.492188 12.910156 67.472656 C 12.714844 67.453125 12.523438 67.421875 12.328125 67.386719 C 12.136719 67.347656 11.945312 67.296875 11.757812 67.242188 C 11.570312 67.183594 11.386719 67.117188 11.203125 67.042969 C 11.023438 66.96875 10.84375 66.882812 10.671875 66.792969 C 10.5 66.699219 10.328125 66.597656 10.167969 66.488281 C 10.003906 66.378906 9.84375 66.261719 9.695312 66.136719 C 9.542969 66.011719 9.394531 65.882812 9.257812 65.742188 C 9.117188 65.605469 8.988281 65.457031 8.863281 65.304688 C 8.738281 65.15625 8.621094 64.996094 8.511719 64.832031 C 8.402344 64.671875 8.300781 64.5 8.207031 64.328125 C 8.117188 64.15625 8.03125 63.976562 7.957031 63.796875 C 7.882812 63.613281 7.816406 63.429688 7.757812 63.242188 C 7.703125 63.054688 7.652344 62.863281 7.613281 62.671875 C 7.578125 62.476562 7.546875 62.285156 7.527344 62.089844 C 7.507812 61.890625 7.5 61.695312 7.5 61.5 L 7.5 51.5 C 7.5 51.367188 7.511719 51.238281 7.539062 51.109375 C 7.5625 50.980469 7.601562 50.855469 7.652344 50.734375 C 7.703125 50.613281 7.765625 50.5 7.835938 50.390625 C 7.910156 50.28125 7.992188 50.179688 8.085938 50.085938 C 8.179688 49.992188 8.28125 49.910156 8.390625 49.835938 C 8.5 49.765625 8.613281 49.703125 8.734375 49.652344 C 8.855469 49.601562 8.980469 49.5625 9.109375 49.539062 C 9.238281 49.511719 9.367188 49.5 9.5 49.5 C 9.632812 49.5 9.761719 49.511719 9.890625 49.539062 C 10.019531 49.5625 10.144531 49.601562 10.265625 49.652344 C 10.386719 49.703125 10.5 49.765625 10.609375 49.835938 C 10.71875 49.910156 10.820312 49.992188 10.914062 50.085938 C 11.007812 50.179688 11.089844 50.28125 11.164062 50.390625 C 11.234375 50.5 11.296875 50.613281 11.347656 50.734375 C 11.398438 50.855469 11.4375 50.980469 11.460938 51.109375 C 11.488281 51.238281 11.5 51.367188 11.5 51.5 L 11.5 61.5 C 11.5 61.632812 11.511719 61.761719 11.539062 61.890625 C 11.5625 62.019531 11.601562 62.144531 11.652344 62.265625 C 11.703125 62.386719 11.765625 62.5 11.835938 62.609375 C 11.910156 62.71875 11.992188 62.820312 12.085938 62.914062 C 12.179688 63.007812 12.28125 63.089844 12.390625 63.164062 C 12.5 63.234375 12.613281 63.296875 12.734375 63.347656 C 12.855469 63.398438 12.980469 63.4375 13.109375 63.460938 C 13.238281 63.488281 13.367188 63.5 13.5 63.5 L 23.5 63.5 C 23.632812 63.5 23.761719 63.511719 23.890625 63.539062 C 24.019531 63.5625 24.144531 63.601562 24.265625 63.652344 C 24.386719 63.703125 24.5 63.765625 24.609375 63.835938 C 24.71875 63.910156 24.820312 63.992188 24.914062 64.085938 C 25.007812 64.179688 25.089844 64.28125 25.164062 64.390625 C 25.234375 64.5 25.296875 64.613281 25.347656 64.734375 C 25.398438 64.855469 25.4375 64.980469 25.460938 65.109375 C 25.488281 65.238281 25.5 65.367188 25.5 65.5 C 25.5 65.632812 25.488281 65.761719 25.460938 65.890625 C 25.4375 66.019531 25.398438 66.144531 25.347656 66.265625 C 25.296875 66.386719 25.234375 66.5 25.164062 66.609375 C 25.089844 66.71875 25.007812 66.820312 24.914062 66.914062 C 24.820312 67.007812 24.71875 67.089844 24.609375 67.164062 C 24.5 67.234375 24.386719 67.296875 24.265625 67.347656 C 24.144531 67.398438 24.019531 67.4375 23.890625 67.460938 C 23.761719 67.488281 23.632812 67.5 23.5 67.5 Z M 23.5 67.5 " fill-opacity="1" fill-rule="nonzero"/></g><g clip-path="url(#8bbf260912)"><path fill="#ffffff" d="M 61.5 67.5 L 51.5 67.5 C 51.367188 67.5 51.238281 67.488281 51.109375 67.460938 C 50.980469 67.4375 50.855469 67.398438 50.734375 67.347656 C 50.613281 67.296875 50.5 67.234375 50.390625 67.164062 C 50.28125 67.089844 50.179688 67.007812 50.085938 66.914062 C 49.992188 66.820312 49.910156 66.71875 49.835938 66.609375 C 49.765625 66.5 49.703125 66.386719 49.652344 66.265625 C 49.601562 66.144531 49.5625 66.019531 49.539062 65.890625 C 49.511719 65.761719 49.5 65.632812 49.5 65.5 C 49.5 65.367188 49.511719 65.238281 49.539062 65.109375 C 49.5625 64.980469 49.601562 64.855469 49.652344 64.734375 C 49.703125 64.613281 49.765625 64.5 49.835938 64.390625 C 49.910156 64.28125 49.992188 64.179688 50.085938 64.085938 C 50.179688 63.992188 50.28125 63.910156 50.390625 63.835938 C 50.5 63.765625 50.613281 63.703125 50.734375 63.652344 C 50.855469 63.601562 50.980469 63.5625 51.109375 63.539062 C 51.238281 63.511719 51.367188 63.5 51.5 63.5 L 61.5 63.5 C 61.632812 63.5 61.761719 63.488281 61.890625 63.460938 C 62.019531 63.4375 62.144531 63.398438 62.265625 63.347656 C 62.386719 63.296875 62.5 63.234375 62.609375 63.164062 C 62.71875 63.089844 62.820312 63.007812 62.914062 62.914062 C 63.007812 62.820312 63.089844 62.71875 63.164062 62.609375 C 63.234375 62.5 63.296875 62.386719 63.347656 62.265625 C 63.398438 62.144531 63.4375 62.019531 63.460938 61.890625 C 63.488281 61.761719 63.5 61.632812 63.5 61.5 L 63.5 51.5 C 63.5 51.367188 63.511719 51.238281 63.539062 51.109375 C 63.5625 50.980469 63.601562 50.855469 63.652344 50.734375 C 63.703125 50.613281 63.765625 50.5 63.835938 50.390625 C 63.910156 50.28125 63.992188 50.179688 64.085938 50.085938 C 64.179688 49.992188 64.28125 49.910156 64.390625 49.835938 C 64.5 49.765625 64.613281 49.703125 64.734375 49.652344 C 64.855469 49.601562 64.980469 49.5625 65.109375 49.539062 C 65.238281 49.511719 65.367188 49.5 65.5 49.5 C 65.632812 49.5 65.761719 49.511719 65.890625 49.539062 C 66.019531 49.5625 66.144531 49.601562 66.265625 49.652344 C 66.386719 49.703125 66.5 49.765625 66.609375 49.835938 C 66.71875 49.910156 66.820312 49.992188 66.914062 50.085938 C 67.007812 50.179688 67.089844 50.28125 67.164062 50.390625 C 67.234375 50.5 67.296875 50.613281 67.347656 50.734375 C 67.398438 50.855469 67.4375 50.980469 67.460938 51.109375 C 67.488281 51.238281 67.5 51.367188 67.5 51.5 L 67.5 61.5 C 67.5 61.695312 67.492188 61.890625 67.472656 62.089844 C 67.453125 62.285156 67.421875 62.476562 67.386719 62.671875 C 67.347656 62.863281 67.296875 63.054688 67.242188 63.242188 C 67.183594 63.429688 67.117188 63.613281 67.042969 63.796875 C 66.96875 63.976562 66.882812 64.15625 66.792969 64.328125 C 66.699219 64.5 66.597656 64.671875 66.488281 64.832031 C 66.378906 64.996094 66.261719 65.15625 66.136719 65.304688 C 66.011719 65.457031 65.882812 65.605469 65.742188 65.742188 C 65.605469 65.882812 65.457031 66.011719 65.304688 66.136719 C 65.15625 66.261719 64.996094 66.378906 64.832031 66.488281 C 64.671875 66.597656 64.5 66.699219 64.328125 66.792969 C 64.15625 66.882812 63.976562 66.96875 63.796875 67.042969 C 63.613281 67.117188 63.429688 67.183594 63.242188 67.242188 C 63.054688 67.296875 62.863281 67.347656 62.671875 67.386719 C 62.476562 67.421875 62.285156 67.453125 62.089844 67.472656 C 61.890625 67.492188 61.695312 67.5 61.5 67.5 Z M 61.5 67.5 " fill-opacity="1" fill-rule="nonzero"/></g><g clip-path="url(#9423b55eb1)"><path fill="#ffffff" d="M 65.5 25.5 C 65.367188 25.5 65.238281 25.488281 65.109375 25.460938 C 64.980469 25.4375 64.855469 25.398438 64.734375 25.347656 C 64.613281 25.296875 64.5 25.234375 64.390625 25.164062 C 64.28125 25.089844 64.179688 25.007812 64.085938 24.914062 C 63.992188 24.820312 63.910156 24.71875 63.835938 24.609375 C 63.765625 24.5 63.703125 24.386719 63.652344 24.265625 C 63.601562 24.144531 63.5625 24.019531 63.539062 23.890625 C 63.511719 23.761719 63.5 23.632812 63.5 23.5 L 63.5 13.5 C 63.5 13.367188 63.488281 13.238281 63.460938 13.109375 C 63.4375 12.980469 63.398438 12.855469 63.347656 12.734375 C 63.296875 12.613281 63.234375 12.5 63.164062 12.390625 C 63.089844 12.28125 63.007812 12.179688 62.914062 12.085938 C 62.820312 11.992188 62.71875 11.910156 62.609375 11.835938 C 62.5 11.765625 62.386719 11.703125 62.265625 11.652344 C 62.144531 11.601562 62.019531 11.5625 61.890625 11.539062 C 61.761719 11.511719 61.632812 11.5 61.5 11.5 L 51.5 11.5 C 51.367188 11.5 51.238281 11.488281 51.109375 11.460938 C 50.980469 11.4375 50.855469 11.398438 50.734375 11.347656 C 50.613281 11.296875 50.5 11.234375 50.390625 11.164062 C 50.28125 11.089844 50.179688 11.007812 50.085938 10.914062 C 49.992188 10.820312 49.910156 10.71875 49.835938 10.609375 C 49.765625 10.5 49.703125 10.386719 49.652344 10.265625 C 49.601562 10.144531 49.5625 10.019531 49.539062 9.890625 C 49.511719 9.761719 49.5 9.632812 49.5 9.5 C 49.5 9.367188 49.511719 9.238281 49.539062 9.109375 C 49.5625 8.980469 49.601562 8.855469 49.652344 8.734375 C 49.703125 8.613281 49.765625 8.5 49.835938 8.390625 C 49.910156 8.28125 49.992188 8.179688 50.085938 8.085938 C 50.179688 7.992188 50.28125 7.910156 50.390625 7.835938 C 50.5 7.765625 50.613281 7.703125 50.734375 7.652344 C 50.855469 7.601562 50.980469 7.5625 51.109375 7.539062 C 51.238281 7.511719 51.367188 7.5 51.5 7.5 L 61.5 7.5 C 61.695312 7.5 61.890625 7.507812 62.089844 7.527344 C 62.285156 7.546875 62.476562 7.578125 62.671875 7.613281 C 62.863281 7.652344 63.054688 7.703125 63.242188 7.757812 C 63.429688 7.816406 63.613281 7.882812 63.796875 7.957031 C 63.976562 8.03125 64.15625 8.117188 64.328125 8.207031 C 64.5 8.300781 64.671875 8.402344 64.832031 8.511719 C 64.996094 8.621094 65.15625 8.738281 65.304688 8.863281 C 65.457031 8.988281 65.605469 9.117188 65.742188 9.257812 C 65.882812 9.394531 66.011719 9.542969 66.136719 9.695312 C 66.261719 9.84375 66.378906 10.003906 66.488281 10.167969 C 66.597656 10.328125 66.699219 10.5 66.792969 10.671875 C 66.882812 10.84375 66.96875 11.023438 67.042969 11.203125 C 67.117188 11.386719 67.183594 11.570312 67.242188 11.757812 C 67.296875 11.945312 67.347656 12.136719 67.386719 12.328125 C 67.421875 12.523438 67.453125 12.714844 67.472656 12.910156 C 67.492188 13.109375 67.5 13.304688 67.5 13.5 L 67.5 23.5 C 67.5 23.632812 67.488281 23.761719 67.460938 23.890625 C 67.4375 24.019531 67.398438 24.144531 67.347656 24.265625 C 67.296875 24.386719 67.234375 24.5 67.164062 24.609375 C 67.089844 24.71875 67.007812 24.820312 66.914062 24.914062 C 66.820312 25.007812 66.71875 25.089844 66.609375 25.164062 C 66.5 25.234375 66.386719 25.296875 66.265625 25.347656 C 66.144531 25.398438 66.019531 25.4375 65.890625 25.460938 C 65.761719 25.488281 65.632812 25.5 65.5 25.5 Z M 65.5 25.5 " fill-opacity="1" fill-rule="nonzero"/></g><g clip-path="url(#dc0a32db9e)"><path fill="#ffffff" d="M 9.5 25.5 C 9.367188 25.5 9.238281 25.488281 9.109375 25.460938 C 8.980469 25.4375 8.855469 25.398438 8.734375 25.347656 C 8.613281 25.296875 8.5 25.234375 8.390625 25.164062 C 8.28125 25.089844 8.179688 25.007812 8.085938 24.914062 C 7.992188 24.820312 7.910156 24.71875 7.835938 24.609375 C 7.765625 24.5 7.703125 24.386719 7.652344 24.265625 C 7.601562 24.144531 7.5625 24.019531 7.539062 23.890625 C 7.511719 23.761719 7.5 23.632812 7.5 23.5 L 7.5 13.5 C 7.5 13.304688 7.507812 13.109375 7.527344 12.910156 C 7.546875 12.714844 7.578125 12.523438 7.613281 12.328125 C 7.652344 12.136719 7.703125 11.945312 7.757812 11.757812 C 7.816406 11.570312 7.882812 11.386719 7.957031 11.203125 C 8.03125 11.023438 8.117188 10.84375 8.207031 10.671875 C 8.300781 10.5 8.402344 10.328125 8.511719 10.167969 C 8.621094 10.003906 8.738281 9.84375 8.863281 9.695312 C 8.988281 9.542969 9.117188 9.394531 9.257812 9.257812 C 9.394531 9.117188 9.542969 8.988281 9.695312 8.863281 C 9.84375 8.738281 10.003906 8.621094 10.167969 8.511719 C 10.328125 8.402344 10.5 8.300781 10.671875 8.207031 C 10.84375 8.117188 11.023438 8.03125 11.203125 7.957031 C 11.386719 7.882812 11.570312 7.816406 11.757812 7.757812 C 11.945312 7.703125 12.136719 7.652344 12.328125 7.613281 C 12.523438 7.578125 12.714844 7.546875 12.910156 7.527344 C 13.109375 7.507812 13.304688 7.5 13.5 7.5 L 23.5 7.5 C 23.632812 7.5 23.761719 7.511719 23.890625 7.539062 C 24.019531 7.5625 24.144531 7.601562 24.265625 7.652344 C 24.386719 7.703125 24.5 7.765625 24.609375 7.835938 C 24.71875 7.910156 24.820312 7.992188 24.914062 8.085938 C 25.007812 8.179688 25.089844 8.28125 25.164062 8.390625 C 25.234375 8.5 25.296875 8.613281 25.347656 8.734375 C 25.398438 8.855469 25.4375 8.980469 25.460938 9.109375 C 25.488281 9.238281 25.5 9.367188 25.5 9.5 C 25.5 9.632812 25.488281 9.761719 25.460938 9.890625 C 25.4375 10.019531 25.398438 10.144531 25.347656 10.265625 C 25.296875 10.386719 25.234375 10.5 25.164062 10.609375 C 25.089844 10.71875 25.007812 10.820312 24.914062 10.914062 C 24.820312 11.007812 24.71875 11.089844 24.609375 11.164062 C 24.5 11.234375 24.386719 11.296875 24.265625 11.347656 C 24.144531 11.398438 24.019531 11.4375 23.890625 11.460938 C 23.761719 11.488281 23.632812 11.5 23.5 11.5 L 13.5 11.5 C 13.367188 11.5 13.238281 11.511719 13.109375 11.539062 C 12.980469 11.5625 12.855469 11.601562 12.734375 11.652344 C 12.613281 11.703125 12.5 11.765625 12.390625 11.835938 C 12.28125 11.910156 12.179688 11.992188 12.085938 12.085938 C 11.992188 12.179688 11.910156 12.28125 11.835938 12.390625 C 11.765625 12.5 11.703125 12.613281 11.652344 12.734375 C 11.601562 12.855469 11.5625 12.980469 11.539062 13.109375 C 11.511719 13.238281 11.5 13.367188 11.5 13.5 L 11.5 23.5 C 11.5 23.632812 11.488281 23.761719 11.460938 23.890625 C 11.4375 24.019531 11.398438 24.144531 11.347656 24.265625 C 11.296875 24.386719 11.234375 24.5 11.164062 24.609375 C 11.089844 24.71875 11.007812 24.820312 10.914062 24.914062 C 10.820312 25.007812 10.71875 25.089844 10.609375 25.164062 C 10.5 25.234375 10.386719 25.296875 10.265625 25.347656 C 10.144531 25.398438 10.019531 25.4375 9.890625 25.460938 C 9.761719 25.488281 9.632812 25.5 9.5 25.5 Z M 9.5 25.5 " fill-opacity="1" fill-rule="nonzero"/></g><path fill="#ffffff" d="M 49.5 29.5 C 49.5 29.695312 49.496094 29.890625 49.484375 30.089844 C 49.476562 30.285156 49.460938 30.480469 49.441406 30.675781 C 49.421875 30.871094 49.398438 31.066406 49.371094 31.261719 C 49.339844 31.453125 49.308594 31.648438 49.269531 31.839844 C 49.230469 32.035156 49.1875 32.226562 49.140625 32.414062 C 49.09375 32.605469 49.039062 32.796875 48.984375 32.984375 C 48.925781 33.171875 48.863281 33.359375 48.796875 33.542969 C 48.734375 33.726562 48.660156 33.910156 48.585938 34.09375 C 48.511719 34.273438 48.433594 34.453125 48.347656 34.628906 C 48.265625 34.808594 48.175781 34.984375 48.082031 35.15625 C 47.992188 35.328125 47.894531 35.5 47.792969 35.667969 C 47.691406 35.835938 47.585938 36.003906 47.476562 36.167969 C 47.367188 36.328125 47.253906 36.492188 47.140625 36.648438 C 47.019531 36.804688 46.902344 36.960938 46.777344 37.113281 C 46.652344 37.265625 46.523438 37.414062 46.390625 37.558594 C 46.257812 37.703125 46.125 37.847656 45.984375 37.984375 C 45.847656 38.125 45.703125 38.257812 45.558594 38.390625 C 45.414062 38.523438 45.265625 38.652344 45.113281 38.777344 C 44.960938 38.902344 44.804688 39.019531 44.648438 39.140625 C 44.492188 39.253906 44.328125 39.367188 44.167969 39.476562 C 44.003906 39.585938 43.835938 39.691406 43.667969 39.792969 C 43.5 39.894531 43.328125 39.992188 43.15625 40.082031 C 42.984375 40.175781 42.808594 40.265625 42.628906 40.347656 C 42.453125 40.433594 42.273438 40.511719 42.09375 40.585938 C 41.910156 40.660156 41.726562 40.734375 41.542969 40.796875 C 41.359375 40.863281 41.171875 40.925781 40.984375 40.984375 C 40.796875 41.039062 40.605469 41.09375 40.414062 41.140625 C 40.226562 41.1875 40.035156 41.230469 39.839844 41.269531 C 39.648438 41.308594 39.453125 41.339844 39.261719 41.371094 C 39.066406 41.398438 38.871094 41.421875 38.675781 41.441406 C 38.480469 41.460938 38.285156 41.476562 38.089844 41.484375 C 37.890625 41.496094 37.695312 41.5 37.5 41.5 C 37.304688 41.5 37.109375 41.496094 36.910156 41.484375 C 36.714844 41.476562 36.519531 41.460938 36.324219 41.441406 C 36.128906 41.421875 35.933594 41.398438 35.738281 41.371094 C 35.546875 41.339844 35.351562 41.308594 35.160156 41.269531 C 34.964844 41.230469 34.773438 41.1875 34.585938 41.140625 C 34.394531 41.09375 34.203125 41.039062 34.015625 40.984375 C 33.828125 40.925781 33.640625 40.863281 33.457031 40.796875 C 33.273438 40.734375 33.089844 40.660156 32.90625 40.585938 C 32.726562 40.511719 32.546875 40.433594 32.371094 40.347656 C 32.191406 40.265625 32.015625 40.175781 31.84375 40.082031 C 31.671875 39.992188 31.5 39.894531 31.332031 39.792969 C 31.164062 39.691406 30.996094 39.585938 30.832031 39.476562 C 30.671875 39.367188 30.507812 39.253906 30.351562 39.140625 C 30.195312 39.019531 30.039062 38.902344 29.886719 38.777344 C 29.734375 38.652344 29.585938 38.523438 29.441406 38.390625 C 29.296875 38.257812 29.152344 38.125 29.015625 37.984375 C 28.875 37.847656 28.742188 37.703125 28.609375 37.558594 C 28.476562 37.414062 28.347656 37.265625 28.222656 37.113281 C 28.097656 36.960938 27.980469 36.804688 27.859375 36.648438 C 27.746094 36.492188 27.632812 36.328125 27.523438 36.167969 C 27.414062 36.003906 27.308594 35.835938 27.207031 35.667969 C 27.105469 35.5 27.007812 35.328125 26.917969 35.15625 C 26.824219 34.984375 26.734375 34.808594 26.652344 34.628906 C 26.566406 34.453125 26.488281 34.273438 26.414062 34.09375 C 26.339844 33.910156 26.265625 33.726562 26.203125 33.542969 C 26.136719 33.359375 26.074219 33.171875 26.015625 32.984375 C 25.960938 32.796875 25.90625 32.605469 25.859375 32.414062 C 25.8125 32.226562 25.769531 32.035156 25.730469 31.839844 C 25.691406 31.648438 25.660156 31.453125 25.628906 31.261719 C 25.601562 31.066406 25.578125 30.871094 25.558594 30.675781 C 25.539062 30.480469 25.523438 30.285156 25.515625 30.089844 C 25.503906 29.890625 25.5 29.695312 25.5 29.5 C 25.5 29.304688 25.503906 29.109375 25.515625 28.910156 C 25.523438 28.714844 25.539062 28.519531 25.558594 28.324219 C 25.578125 28.128906 25.601562 27.933594 25.628906 27.738281 C 25.660156 27.546875 25.691406 27.351562 25.730469 27.160156 C 25.769531 26.964844 25.8125 26.773438 25.859375 26.585938 C 25.90625 26.394531 25.960938 26.203125 26.015625 26.015625 C 26.074219 25.828125 26.136719 25.640625 26.203125 25.457031 C 26.265625 25.273438 26.339844 25.089844 26.414062 24.90625 C 26.488281 24.726562 26.566406 24.546875 26.652344 24.371094 C 26.734375 24.191406 26.824219 24.015625 26.917969 23.84375 C 27.007812 23.671875 27.105469 23.5 27.207031 23.332031 C 27.308594 23.164062 27.414062 22.996094 27.523438 22.832031 C 27.632812 22.671875 27.746094 22.507812 27.859375 22.351562 C 27.980469 22.195312 28.097656 22.039062 28.222656 21.886719 C 28.347656 21.734375 28.476562 21.585938 28.609375 21.441406 C 28.742188 21.296875 28.875 21.152344 29.015625 21.015625 C 29.152344 20.875 29.296875 20.742188 29.441406 20.609375 C 29.585938 20.476562 29.734375 20.347656 29.886719 20.222656 C 30.039062 20.097656 30.195312 19.980469 30.351562 19.859375 C 30.507812 19.746094 30.671875 19.632812 30.832031 19.523438 C 30.996094 19.414062 31.164062 19.308594 31.332031 19.207031 C 31.5 19.105469 31.671875 19.007812 31.84375 18.917969 C 32.015625 18.824219 32.191406 18.734375 32.371094 18.652344 C 32.546875 18.566406 32.726562 18.488281 32.90625 18.414062 C 33.089844 18.339844 33.273438 18.265625 33.457031 18.203125 C 33.640625 18.136719 33.828125 18.074219 34.015625 18.015625 C 34.203125 17.960938 34.394531 17.90625 34.585938 17.859375 C 34.773438 17.8125 34.964844 17.769531 35.160156 17.730469 C 35.351562 17.691406 35.546875 17.660156 35.738281 17.628906 C 35.933594 17.601562 36.128906 17.578125 36.324219 17.558594 C 36.519531 17.539062 36.714844 17.523438 36.910156 17.515625 C 37.109375 17.503906 37.304688 17.5 37.5 17.5 C 37.695312 17.5 37.890625 17.503906 38.089844 17.515625 C 38.285156 17.523438 38.480469 17.539062 38.675781 17.558594 C 38.871094 17.578125 39.066406 17.601562 39.261719 17.628906 C 39.453125 17.660156 39.648438 17.691406 39.839844 17.730469 C 40.035156 17.769531 40.226562 17.8125 40.414062 17.859375 C 40.605469 17.90625 40.796875 17.960938 40.984375 18.015625 C 41.171875 18.074219 41.359375 18.136719 41.542969 18.203125 C 41.726562 18.265625 41.910156 18.339844 42.09375 18.414062 C 42.273438 18.488281 42.453125 18.566406 42.628906 18.652344 C 42.808594 18.734375 42.984375 18.824219 43.15625 18.917969 C 43.328125 19.007812 43.5 19.105469 43.667969 19.207031 C 43.835938 19.308594 44.003906 19.414062 44.167969 19.523438 C 44.328125 19.632812 44.492188 19.746094 44.648438 19.859375 C 44.804688 19.980469 44.960938 20.097656 45.113281 20.222656 C 45.265625 20.347656 45.414062 20.476562 45.558594 20.609375 C 45.703125 20.742188 45.847656 20.875 45.984375 21.015625 C 46.125 21.152344 46.257812 21.296875 46.390625 21.441406 C 46.523438 21.585938 46.652344 21.734375 46.777344 21.886719 C 46.902344 22.039062 47.019531 22.195312 47.140625 22.351562 C 47.253906 22.507812 47.367188 22.671875 47.476562 22.832031 C 47.585938 22.996094 47.691406 23.164062 47.792969 23.332031 C 47.894531 23.5 47.992188 23.671875 48.082031 23.84375 C 48.175781 24.015625 48.265625 24.191406 48.347656 24.371094 C 48.433594 24.546875 48.511719 24.726562 48.585938 24.90625 C 48.660156 25.089844 48.734375 25.273438 48.796875 25.457031 C 48.863281 25.640625 48.925781 25.828125 48.984375 26.015625 C 49.039062 26.203125 49.09375 26.394531 49.140625 26.585938 C 49.1875 26.773438 49.230469 26.964844 49.269531 27.160156 C 49.308594 27.351562 49.339844 27.546875 49.371094 27.738281 C 49.398438 27.933594 49.421875 28.128906 49.441406 28.324219 C 49.460938 28.519531 49.476562 28.714844 49.484375 28.910156 C 49.496094 29.109375 49.5 29.304688 49.5 29.5 Z M 49.5 29.5 " fill-opacity="1" fill-rule="nonzero"/><path fill="#ffffff" d="M 55.5 55.5 C 55.5 55.632812 55.488281 55.761719 55.460938 55.890625 C 55.4375 56.019531 55.398438 56.144531 55.347656 56.265625 C 55.296875 56.386719 55.234375 56.5 55.164062 56.609375 C 55.089844 56.71875 55.007812 56.820312 54.914062 56.914062 C 54.820312 57.007812 54.71875 57.089844 54.609375 57.164062 C 54.5 57.234375 54.386719 57.296875 54.265625 57.347656 C 54.144531 57.398438 54.019531 57.4375 53.890625 57.460938 C 53.761719 57.488281 53.632812 57.5 53.5 57.5 L 21.5 57.5 C 21.367188 57.5 21.238281 57.488281 21.109375 57.460938 C 20.980469 57.4375 20.855469 57.398438 20.734375 57.347656 C 20.613281 57.296875 20.5 57.234375 20.390625 57.164062 C 20.28125 57.089844 20.179688 57.007812 20.085938 56.914062 C 19.992188 56.820312 19.910156 56.71875 19.835938 56.609375 C 19.765625 56.5 19.703125 56.386719 19.652344 56.265625 C 19.601562 56.144531 19.5625 56.019531 19.539062 55.890625 C 19.511719 55.761719 19.5 55.632812 19.5 55.5 C 19.5 54.808594 19.539062 54.121094 19.621094 53.433594 C 19.699219 52.75 19.816406 52.070312 19.976562 51.394531 C 20.132812 50.722656 20.328125 50.0625 20.5625 49.410156 C 20.796875 48.761719 21.066406 48.128906 21.375 47.507812 C 21.679688 46.890625 22.023438 46.289062 22.398438 45.710938 C 22.773438 45.132812 23.179688 44.574219 23.621094 44.042969 C 24.0625 43.511719 24.53125 43.003906 25.027344 42.527344 C 25.527344 42.046875 26.050781 41.597656 26.601562 41.179688 C 26.78125 41.351562 26.96875 41.519531 27.160156 41.679688 C 27.347656 41.84375 27.542969 42 27.742188 42.15625 C 27.9375 42.308594 28.140625 42.457031 28.34375 42.601562 C 28.546875 42.746094 28.757812 42.882812 28.96875 43.019531 C 29.179688 43.152344 29.394531 43.28125 29.609375 43.40625 C 29.828125 43.53125 30.046875 43.648438 30.269531 43.761719 C 30.492188 43.875 30.71875 43.984375 30.945312 44.085938 C 31.175781 44.191406 31.40625 44.289062 31.636719 44.378906 C 31.871094 44.472656 32.105469 44.558594 32.34375 44.640625 C 32.578125 44.722656 32.816406 44.796875 33.058594 44.867188 C 33.296875 44.9375 33.539062 45 33.78125 45.058594 C 34.027344 45.117188 34.269531 45.171875 34.515625 45.21875 C 34.761719 45.265625 35.007812 45.304688 35.257812 45.339844 C 35.503906 45.375 35.75 45.40625 36 45.429688 C 36.25 45.453125 36.5 45.46875 36.75 45.480469 C 37 45.492188 37.25 45.5 37.5 45.5 C 37.75 45.5 38 45.492188 38.25 45.480469 C 38.5 45.46875 38.75 45.453125 39 45.429688 C 39.25 45.40625 39.496094 45.375 39.742188 45.339844 C 39.992188 45.304688 40.238281 45.265625 40.484375 45.21875 C 40.730469 45.171875 40.972656 45.117188 41.21875 45.058594 C 41.460938 45 41.703125 44.9375 41.941406 44.867188 C 42.183594 44.796875 42.421875 44.722656 42.65625 44.640625 C 42.894531 44.558594 43.128906 44.472656 43.363281 44.378906 C 43.59375 44.289062 43.824219 44.191406 44.054688 44.085938 C 44.28125 43.984375 44.507812 43.875 44.730469 43.761719 C 44.953125 43.648438 45.171875 43.53125 45.390625 43.40625 C 45.605469 43.28125 45.820312 43.152344 46.03125 43.019531 C 46.242188 42.882812 46.453125 42.746094 46.65625 42.601562 C 46.859375 42.457031 47.0625 42.308594 47.257812 42.15625 C 47.457031 42 47.652344 41.84375 47.839844 41.679688 C 48.03125 41.519531 48.21875 41.351562 48.398438 41.179688 C 48.949219 41.597656 49.472656 42.046875 49.972656 42.527344 C 50.46875 43.003906 50.9375 43.511719 51.378906 44.042969 C 51.820312 44.574219 52.226562 45.132812 52.601562 45.710938 C 52.976562 46.289062 53.320312 46.890625 53.625 47.507812 C 53.933594 48.128906 54.203125 48.761719 54.4375 49.410156 C 54.671875 50.0625 54.867188 50.722656 55.023438 51.394531 C 55.183594 52.070312 55.300781 52.75 55.378906 53.433594 C 55.460938 54.121094 55.5 54.808594 55.5 55.5 Z M 55.5 55.5 " fill-opacity="1" fill-rule="nonzero"/></svg>