<svg xmlns="http://www.w3.org/2000/svg" xmlns:xlink="http://www.w3.org/1999/xlink" width="500" zoomAndPan="magnify" viewBox="0 0 375 37.5" height="50" preserveAspectRatio="xMidYMid meet" version="1.0"><defs><clipPath id="af909c251a"><path d="M 7.621094 5.074219 L 35 5.074219 L 35 30 L 7.621094 30 Z M 7.621094 5.074219 " clip-rule="nonzero"/></clipPath><clipPath id="901f96bb8b"><path d="M 40.632812 5.074219 L 64.316406 5.074219 L 64.316406 30.238281 L 40.632812 30.238281 Z M 40.632812 5.074219 " clip-rule="nonzero"/></clipPath><clipPath id="5f4fbf8eef"><path d="M 52 5.074219 L 64.316406 5.074219 L 64.316406 30.238281 L 52 30.238281 Z M 52 5.074219 " clip-rule="nonzero"/></clipPath><clipPath id="22660f0906"><path d="M 79 5.792969 L 100 5.792969 L 100 29.476562 L 79 29.476562 Z M 79 5.792969 " clip-rule="nonzero"/></clipPath><clipPath id="23d08bf777"><path d="M 266 10.808594 L 279 10.808594 L 279 24.871094 L 266 24.871094 Z M 266 10.808594 " clip-rule="nonzero"/></clipPath><clipPath id="ee856fef10"><path d="M 234 10.808594 L 247 10.808594 L 247 24.871094 L 234 24.871094 Z M 234 10.808594 " clip-rule="nonzero"/></clipPath><clipPath id="a0d0ab52da"><path d="M 249 10.808594 L 264 10.808594 L 264 24.871094 L 249 24.871094 Z M 249 10.808594 " clip-rule="nonzero"/></clipPath><clipPath id="683b55cf06"><path d="M 249 18 L 256 18 L 256 24.871094 L 249 24.871094 Z M 249 18 " clip-rule="nonzero"/></clipPath><clipPath id="9d4c7cc065"><path d="M 220.105469 10.808594 L 235 10.808594 L 235 24.871094 L 220.105469 24.871094 Z M 220.105469 10.808594 " clip-rule="nonzero"/></clipPath><clipPath id="f406f815dc"><path d="M 278 23 L 280 23 L 280 24.871094 L 278 24.871094 Z M 278 23 " clip-rule="nonzero"/></clipPath><clipPath id="cb372c8f5a"><path d="M 280 18 L 284 18 L 284 24.871094 L 280 24.871094 Z M 280 18 " clip-rule="nonzero"/></clipPath><clipPath id="ce987e29fb"><path d="M 284 18 L 289.675781 18 L 289.675781 24.871094 L 284 24.871094 Z M 284 18 " clip-rule="nonzero"/></clipPath><clipPath id="f2e9e01ac5"><path d="M 302 29 L 303 29 L 303 29.8125 L 302 29.8125 Z M 302 29 " clip-rule="nonzero"/></clipPath><clipPath id="c04a481dd0"><path d="M 302 6.128906 L 327 6.128906 L 327 28 L 302 28 Z M 302 6.128906 " clip-rule="nonzero"/></clipPath><clipPath id="796cb29804"><path d="M 307 6.128906 L 322 6.128906 L 322 20 L 307 20 Z M 307 6.128906 " clip-rule="nonzero"/></clipPath><clipPath id="c5ec10acee"><path d="M 301.710938 6.128906 L 327.613281 6.128906 L 327.613281 29.8125 L 301.710938 29.8125 Z M 301.710938 6.128906 " clip-rule="nonzero"/></clipPath><clipPath id="5430db6c7f"><path d="M 336.550781 7.617188 L 368 7.617188 L 368 27.601562 L 336.550781 27.601562 Z M 336.550781 7.617188 " clip-rule="nonzero"/></clipPath></defs><g clip-path="url(#af909c251a)"><path fill="#00d8ff" d="M 30.117188 13.410156 C 29.835938 13.3125 29.542969 13.21875 29.238281 13.132812 C 29.289062 12.933594 29.335938 12.734375 29.375 12.539062 C 30.042969 9.328125 29.605469 6.742188 28.121094 5.890625 C 26.691406 5.074219 24.363281 5.925781 22.007812 7.960938 C 21.78125 8.15625 21.554688 8.363281 21.328125 8.582031 C 21.175781 8.4375 21.023438 8.296875 20.875 8.164062 C 18.40625 5.988281 15.933594 5.074219 14.445312 5.925781 C 13.023438 6.746094 12.601562 9.175781 13.199219 12.21875 C 13.257812 12.511719 13.324219 12.8125 13.402344 13.117188 C 13.050781 13.214844 12.714844 13.320312 12.390625 13.433594 C 9.496094 14.433594 7.648438 16.003906 7.648438 17.632812 C 7.648438 19.3125 9.632812 21 12.644531 22.023438 C 12.882812 22.105469 13.132812 22.179688 13.386719 22.253906 C 13.304688 22.582031 13.230469 22.90625 13.171875 23.222656 C 12.597656 26.210938 13.046875 28.585938 14.464844 29.398438 C 15.933594 30.238281 18.394531 29.375 20.792969 27.292969 C 20.984375 27.128906 21.175781 26.953125 21.363281 26.773438 C 21.613281 27.007812 21.859375 27.230469 22.101562 27.441406 C 24.425781 29.425781 26.71875 30.226562 28.140625 29.410156 C 29.605469 28.570312 30.082031 26.019531 29.460938 22.917969 C 29.414062 22.679688 29.359375 22.4375 29.300781 22.191406 C 29.472656 22.140625 29.640625 22.089844 29.808594 22.035156 C 32.941406 21.003906 34.980469 19.335938 34.980469 17.632812 C 34.980469 16 33.070312 14.417969 30.117188 13.410156 Z M 29.441406 20.933594 C 29.289062 20.984375 29.136719 21.03125 28.980469 21.074219 C 28.636719 19.988281 28.167969 18.832031 27.597656 17.636719 C 28.140625 16.472656 28.589844 15.332031 28.925781 14.25 C 29.207031 14.332031 29.476562 14.414062 29.738281 14.503906 C 32.269531 15.371094 33.8125 16.648438 33.8125 17.632812 C 33.8125 18.679688 32.144531 20.042969 29.441406 20.933594 Z M 28.316406 23.140625 C 28.589844 24.511719 28.628906 25.753906 28.449219 26.722656 C 28.285156 27.59375 27.957031 28.175781 27.554688 28.40625 C 26.691406 28.902344 24.851562 28.257812 22.863281 26.5625 C 22.636719 26.367188 22.40625 26.160156 22.175781 25.941406 C 22.945312 25.105469 23.71875 24.132812 24.46875 23.050781 C 25.789062 22.9375 27.035156 22.746094 28.167969 22.484375 C 28.226562 22.710938 28.273438 22.925781 28.316406 23.140625 Z M 16.964844 28.320312 C 16.125 28.617188 15.453125 28.625 15.050781 28.394531 C 14.1875 27.898438 13.828125 25.996094 14.316406 23.4375 C 14.375 23.144531 14.441406 22.84375 14.519531 22.539062 C 15.636719 22.785156 16.875 22.960938 18.199219 23.066406 C 18.957031 24.125 19.75 25.09375 20.546875 25.945312 C 20.371094 26.113281 20.199219 26.269531 20.027344 26.421875 C 18.964844 27.339844 17.902344 27.996094 16.964844 28.320312 Z M 13.023438 20.925781 C 11.691406 20.476562 10.589844 19.886719 9.835938 19.246094 C 9.160156 18.667969 8.816406 18.097656 8.816406 17.632812 C 8.816406 16.644531 10.300781 15.382812 12.773438 14.527344 C 13.074219 14.421875 13.390625 14.324219 13.714844 14.234375 C 14.058594 15.339844 14.507812 16.492188 15.046875 17.660156 C 14.5 18.84375 14.042969 20.019531 13.699219 21.136719 C 13.464844 21.070312 13.242188 21 13.023438 20.925781 Z M 14.347656 11.996094 C 13.832031 9.390625 14.171875 7.421875 15.03125 6.929688 C 15.945312 6.40625 17.96875 7.152344 20.097656 9.03125 C 20.234375 9.152344 20.371094 9.277344 20.507812 9.40625 C 19.714844 10.253906 18.929688 11.21875 18.179688 12.269531 C 16.894531 12.386719 15.664062 12.578125 14.535156 12.832031 C 14.460938 12.546875 14.398438 12.269531 14.347656 11.996094 Z M 26.132812 14.886719 C 25.863281 14.421875 25.585938 13.96875 25.304688 13.527344 C 26.175781 13.636719 27.011719 13.785156 27.796875 13.960938 C 27.558594 14.710938 27.265625 15.496094 26.921875 16.296875 C 26.671875 15.832031 26.410156 15.359375 26.132812 14.886719 Z M 21.328125 10.238281 C 21.867188 10.816406 22.40625 11.460938 22.933594 12.164062 C 22.402344 12.140625 21.859375 12.125 21.3125 12.125 C 20.773438 12.125 20.238281 12.140625 19.703125 12.164062 C 20.234375 11.46875 20.78125 10.824219 21.328125 10.238281 Z M 16.488281 14.894531 C 16.21875 15.359375 15.960938 15.828125 15.71875 16.296875 C 15.378906 15.496094 15.085938 14.710938 14.847656 13.949219 C 15.628906 13.777344 16.460938 13.632812 17.328125 13.527344 C 17.039062 13.972656 16.757812 14.425781 16.488281 14.894531 Z M 17.351562 21.820312 C 16.457031 21.722656 15.613281 21.585938 14.832031 21.417969 C 15.074219 20.644531 15.371094 19.84375 15.71875 19.023438 C 15.964844 19.492188 16.222656 19.960938 16.492188 20.429688 C 16.769531 20.902344 17.058594 21.367188 17.351562 21.820312 Z M 21.359375 25.109375 C 20.804688 24.519531 20.253906 23.863281 19.714844 23.15625 C 20.238281 23.175781 20.773438 23.1875 21.3125 23.1875 C 21.871094 23.1875 22.421875 23.175781 22.964844 23.152344 C 22.429688 23.867188 21.894531 24.527344 21.359375 25.109375 Z M 26.929688 18.980469 C 27.296875 19.808594 27.605469 20.609375 27.847656 21.371094 C 27.058594 21.546875 26.199219 21.691406 25.300781 21.800781 C 25.585938 21.355469 25.863281 20.894531 26.140625 20.417969 C 26.417969 19.941406 26.679688 19.460938 26.929688 18.980469 Z M 25.128906 19.839844 C 24.699219 20.578125 24.261719 21.277344 23.816406 21.941406 C 23.007812 21.996094 22.167969 22.027344 21.3125 22.027344 C 20.464844 22.027344 19.636719 22.003906 18.839844 21.949219 C 18.375 21.28125 17.929688 20.574219 17.503906 19.847656 C 17.082031 19.121094 16.691406 18.390625 16.335938 17.660156 C 16.691406 16.929688 17.078125 16.199219 17.5 15.472656 C 17.921875 14.746094 18.367188 14.046875 18.824219 13.378906 C 19.636719 13.316406 20.472656 13.285156 21.3125 13.285156 C 22.160156 13.285156 22.996094 13.316406 23.804688 13.378906 C 24.257812 14.042969 24.699219 14.738281 25.125 15.46875 C 25.550781 16.203125 25.945312 16.929688 26.300781 17.644531 C 25.945312 18.371094 25.554688 19.105469 25.128906 19.839844 Z M 27.535156 6.894531 C 28.453125 7.417969 28.808594 9.53125 28.230469 12.304688 C 28.195312 12.480469 28.152344 12.660156 28.109375 12.84375 C 26.976562 12.582031 25.746094 12.390625 24.457031 12.269531 C 23.703125 11.207031 22.925781 10.242188 22.144531 9.40625 C 22.355469 9.207031 22.566406 9.015625 22.773438 8.835938 C 24.789062 7.089844 26.675781 6.402344 27.535156 6.894531 Z M 21.3125 15.210938 C 22.660156 15.210938 23.753906 16.292969 23.753906 17.632812 C 23.753906 18.96875 22.660156 20.054688 21.3125 20.054688 C 19.964844 20.054688 18.875 18.96875 18.875 17.632812 C 18.875 16.292969 19.964844 15.210938 21.3125 15.210938 Z M 21.3125 15.210938 " fill-opacity="1" fill-rule="nonzero"/></g><g clip-path="url(#901f96bb8b)"><path fill="#e23237" d="M 40.632812 9.292969 L 52.3125 5.148438 L 64.296875 9.230469 L 62.359375 24.625 L 52.3125 30.164062 L 42.425781 24.695312 Z M 40.632812 9.292969 " fill-opacity="1" fill-rule="nonzero"/></g><g clip-path="url(#5f4fbf8eef)"><path fill="#b52e31" d="M 64.296875 9.230469 L 52.3125 5.148438 L 52.3125 30.164062 L 62.359375 24.625 Z M 64.296875 9.230469 " fill-opacity="1" fill-rule="nonzero"/></g><path fill="#ffffff" d="M 52.328125 8.074219 L 45.050781 24.207031 L 47.765625 24.152344 L 49.234375 20.507812 L 55.742188 20.507812 L 57.335938 24.179688 L 59.925781 24.234375 Z M 52.347656 13.253906 L 54.808594 18.378906 L 50.199219 18.378906 L 52.355469 13.253906 Z M 52.347656 13.253906 " fill-opacity="1" fill-rule="nonzero"/><path fill="#ffffff" d="M 191.476562 24.082031 L 187.898438 17.4375 L 185.644531 20.160156 L 185.644531 24.082031 L 183.757812 24.082031 L 183.757812 11.371094 L 185.644531 11.371094 L 185.644531 17.527344 L 190.550781 11.371094 L 192.730469 11.371094 L 189.167969 15.835938 L 193.691406 24.082031 Z M 197.777344 24.082031 L 197.777344 11.371094 L 199.667969 11.371094 L 199.667969 24.082031 Z M 209.511719 13.1875 L 209.511719 24.082031 L 207.621094 24.082031 L 207.621094 13.1875 L 204.027344 13.1875 L 204.027344 11.371094 L 213.105469 11.371094 L 213.105469 13.1875 Z M 209.511719 13.1875 " fill-opacity="1" fill-rule="nonzero"/><path fill="#9d9d9d" d="M 111.535156 24.300781 C 110.496094 24.328125 109.476562 24.039062 108.609375 23.476562 C 107.796875 22.941406 107.195312 22.140625 106.902344 21.214844 L 108.683594 20.558594 C 108.929688 21.128906 109.332031 21.617188 109.84375 21.964844 C 110.363281 22.316406 110.980469 22.496094 111.605469 22.484375 C 112.207031 22.515625 112.800781 22.335938 113.285156 21.976562 C 113.710938 21.617188 113.945312 21.078125 113.914062 20.523438 C 113.914062 20.265625 113.855469 20.015625 113.742188 19.789062 C 113.640625 19.582031 113.507812 19.394531 113.351562 19.234375 C 113.148438 19.050781 112.921875 18.902344 112.679688 18.789062 C 112.375 18.636719 112.125 18.523438 111.925781 18.441406 C 111.722656 18.363281 111.429688 18.257812 111.042969 18.125 C 110.558594 17.957031 110.195312 17.824219 109.953125 17.726562 C 109.625 17.585938 109.308594 17.425781 109 17.246094 C 108.667969 17.070312 108.367188 16.84375 108.109375 16.570312 C 107.886719 16.308594 107.703125 16.011719 107.574219 15.691406 C 107.058594 14.441406 107.402344 13 108.425781 12.113281 C 109.152344 11.472656 110.140625 11.152344 111.386719 11.152344 C 112.429688 11.152344 113.285156 11.382812 113.957031 11.839844 C 114.609375 12.273438 115.089844 12.925781 115.308594 13.675781 L 113.566406 14.257812 C 113.390625 13.863281 113.097656 13.535156 112.722656 13.320312 C 112.269531 13.070312 111.757812 12.949219 111.242188 12.96875 C 110.734375 12.9375 110.234375 13.078125 109.816406 13.367188 C 109.46875 13.636719 109.277344 14.054688 109.296875 14.492188 C 109.300781 14.828125 109.445312 15.144531 109.699219 15.363281 C 109.9375 15.601562 110.222656 15.792969 110.535156 15.925781 C 110.824219 16.046875 111.265625 16.210938 111.859375 16.417969 C 112.222656 16.550781 112.492188 16.652344 112.667969 16.71875 C 112.84375 16.785156 113.101562 16.894531 113.441406 17.054688 C 113.710938 17.171875 113.972656 17.316406 114.21875 17.480469 C 114.441406 17.640625 114.65625 17.8125 114.855469 17.996094 C 115.074219 18.1875 115.261719 18.410156 115.410156 18.660156 C 115.550781 18.917969 115.660156 19.191406 115.738281 19.476562 C 115.828125 19.8125 115.875 20.15625 115.875 20.503906 C 115.875 21.691406 115.46875 22.621094 114.65625 23.292969 C 113.84375 23.964844 112.804688 24.300781 111.535156 24.300781 Z M 123.175781 24.082031 L 118.816406 11.371094 L 120.851562 11.371094 L 123.738281 20.234375 C 123.898438 20.710938 124.03125 21.195312 124.136719 21.6875 C 124.246094 21.195312 124.378906 20.710938 124.539062 20.234375 L 127.390625 11.371094 L 129.40625 11.371094 L 125.0625 24.082031 Z M 133.253906 24.082031 L 133.253906 11.371094 L 141.136719 11.371094 L 141.136719 13.148438 L 135.144531 13.148438 L 135.144531 16.636719 L 139.011719 16.636719 L 139.011719 18.417969 L 135.144531 18.417969 L 135.144531 22.304688 L 141.539062 22.304688 L 141.539062 24.082031 Z M 146.351562 24.082031 L 146.351562 11.371094 L 148.238281 11.371094 L 148.238281 22.265625 L 154.449219 22.265625 L 154.449219 24.082031 Z M 161.570312 13.1875 L 161.570312 24.082031 L 159.679688 24.082031 L 159.679688 13.1875 L 156.085938 13.1875 L 156.085938 11.371094 L 165.164062 11.371094 L 165.164062 13.1875 Z M 169.070312 24.082031 L 169.070312 11.371094 L 176.953125 11.371094 L 176.953125 13.148438 L 170.960938 13.148438 L 170.960938 16.636719 L 174.828125 16.636719 L 174.828125 18.417969 L 170.960938 18.417969 L 170.960938 22.304688 L 177.351562 22.304688 L 177.351562 24.082031 Z M 169.070312 24.082031 " fill-opacity="1" fill-rule="nonzero"/><g clip-path="url(#22660f0906)"><path fill="#ff3e00" d="M 98.285156 8.953125 C 96.070312 5.78125 91.691406 4.839844 88.527344 6.855469 L 82.96875 10.398438 C 81.449219 11.355469 80.402344 12.90625 80.085938 14.671875 C 79.820312 16.140625 80.054688 17.660156 80.75 18.980469 C 80.273438 19.703125 79.949219 20.515625 79.792969 21.367188 C 79.472656 23.164062 79.894531 25.019531 80.957031 26.503906 C 83.171875 29.679688 87.550781 30.617188 90.714844 28.601562 L 96.273438 25.058594 C 97.792969 24.101562 98.839844 22.554688 99.15625 20.785156 C 99.421875 19.316406 99.1875 17.796875 98.492188 16.476562 C 98.96875 15.753906 99.292969 14.941406 99.445312 14.089844 C 99.765625 12.292969 99.347656 10.4375 98.285156 8.953125 " fill-opacity="1" fill-rule="nonzero"/></g><path fill="#ffffff" d="M 87.984375 26.804688 C 86.191406 27.269531 84.300781 26.570312 83.242188 25.046875 C 82.605469 24.152344 82.355469 23.039062 82.546875 21.957031 C 82.578125 21.78125 82.621094 21.609375 82.679688 21.4375 L 82.785156 21.117188 L 83.066406 21.328125 C 83.726562 21.8125 84.460938 22.179688 85.242188 22.414062 L 85.449219 22.476562 L 85.429688 22.683594 C 85.40625 22.976562 85.484375 23.269531 85.652344 23.511719 C 85.972656 23.96875 86.542969 24.179688 87.082031 24.039062 C 87.203125 24.007812 87.316406 23.957031 87.421875 23.890625 L 92.980469 20.347656 C 93.257812 20.171875 93.445312 19.890625 93.503906 19.574219 C 93.5625 19.246094 93.484375 18.910156 93.292969 18.640625 C 92.976562 18.183594 92.40625 17.96875 91.867188 18.109375 C 91.746094 18.144531 91.628906 18.191406 91.523438 18.261719 L 89.402344 19.613281 C 89.054688 19.832031 88.671875 20 88.273438 20.109375 C 86.480469 20.574219 84.589844 19.871094 83.535156 18.351562 C 82.894531 17.457031 82.644531 16.34375 82.835938 15.261719 C 83.027344 14.199219 83.65625 13.265625 84.570312 12.691406 L 90.128906 9.148438 C 90.476562 8.925781 90.859375 8.761719 91.257812 8.652344 C 93.050781 8.1875 94.941406 8.890625 95.996094 10.410156 C 96.636719 11.304688 96.886719 12.417969 96.695312 13.5 C 96.664062 13.675781 96.617188 13.851562 96.5625 14.019531 L 96.457031 14.339844 L 96.171875 14.132812 C 95.515625 13.648438 94.78125 13.28125 94 13.042969 L 93.792969 12.980469 L 93.8125 12.773438 C 93.835938 12.480469 93.757812 12.1875 93.585938 11.949219 C 93.269531 11.492188 92.699219 11.277344 92.160156 11.417969 C 92.039062 11.453125 91.925781 11.5 91.820312 11.570312 L 86.261719 15.109375 C 85.984375 15.285156 85.796875 15.566406 85.738281 15.886719 C 85.679688 16.210938 85.753906 16.546875 85.949219 16.816406 C 86.265625 17.273438 86.835938 17.488281 87.375 17.347656 C 87.496094 17.316406 87.613281 17.265625 87.71875 17.199219 L 89.839844 15.847656 C 90.1875 15.625 90.566406 15.457031 90.96875 15.351562 C 92.757812 14.882812 94.652344 15.585938 95.707031 17.105469 C 96.34375 18 96.597656 19.113281 96.40625 20.195312 C 96.214844 21.257812 95.585938 22.191406 94.671875 22.765625 L 89.113281 26.308594 C 88.765625 26.53125 88.382812 26.699219 87.984375 26.804688 " fill-opacity="1" fill-rule="nonzero"/><g clip-path="url(#23d08bf777)"><path fill="#ffffff" d="M 266.175781 10.8125 L 278.109375 10.8125 L 278.109375 13.039062 L 273.375 13.039062 L 273.375 24.753906 L 271.007812 24.753906 L 271.007812 13.039062 L 266.175781 13.039062 Z M 266.175781 10.8125 " fill-opacity="1" fill-rule="nonzero"/></g><g clip-path="url(#ee856fef10)"><path fill="#ffffff" d="M 246.554688 10.8125 L 246.554688 13.039062 L 236.992188 13.039062 L 236.992188 16.621094 L 244.683594 16.621094 L 244.683594 18.847656 L 236.992188 18.847656 L 236.992188 22.527344 L 246.554688 22.527344 L 246.554688 24.753906 L 234.625 24.753906 L 234.625 10.8125 Z M 246.554688 10.8125 " fill-opacity="1" fill-rule="nonzero"/></g><g clip-path="url(#a0d0ab52da)"><path fill="#ffffff" d="M 252.511719 10.820312 L 249.417969 10.820312 L 260.507812 24.757812 L 263.613281 24.757812 L 258.066406 17.792969 L 263.605469 10.828125 L 260.507812 10.835938 L 256.515625 15.847656 Z M 252.511719 10.820312 " fill-opacity="1" fill-rule="nonzero"/></g><g clip-path="url(#683b55cf06)"><path fill="#ffffff" d="M 255.691406 20.777344 L 254.140625 18.828125 L 249.40625 24.769531 L 252.511719 24.769531 Z M 255.691406 20.777344 " fill-opacity="1" fill-rule="nonzero"/></g><g clip-path="url(#9d4c7cc065)"><path fill="#ffffff" d="M 234.710938 24.753906 L 223.601562 10.808594 L 220.644531 10.808594 L 220.644531 24.746094 L 223.011719 24.746094 L 223.011719 13.789062 L 231.738281 24.753906 Z M 234.710938 24.753906 " fill-opacity="1" fill-rule="evenodd"/></g><g clip-path="url(#f406f815dc)"><path fill="#ffffff" d="M 278.640625 24.667969 C 278.464844 24.667969 278.320312 24.609375 278.195312 24.488281 C 278.074219 24.363281 278.011719 24.21875 278.011719 24.042969 C 278.011719 23.875 278.074219 23.730469 278.195312 23.609375 C 278.320312 23.484375 278.464844 23.425781 278.640625 23.425781 C 278.804688 23.425781 278.953125 23.484375 279.074219 23.609375 C 279.199219 23.730469 279.261719 23.875 279.265625 24.042969 C 279.261719 24.160156 279.234375 24.265625 279.175781 24.359375 C 279.117188 24.453125 279.042969 24.53125 278.949219 24.582031 C 278.855469 24.640625 278.753906 24.667969 278.640625 24.667969 Z M 278.640625 24.667969 " fill-opacity="1" fill-rule="nonzero"/></g><g clip-path="url(#cb372c8f5a)"><path fill="#ffffff" d="M 282.679688 18.796875 L 283.726562 18.796875 L 283.726562 22.878906 C 283.726562 23.257812 283.644531 23.578125 283.488281 23.847656 C 283.328125 24.117188 283.109375 24.324219 282.828125 24.46875 C 282.546875 24.613281 282.21875 24.6875 281.84375 24.6875 C 281.503906 24.6875 281.199219 24.625 280.925781 24.503906 C 280.652344 24.382812 280.4375 24.199219 280.277344 23.960938 C 280.117188 23.71875 280.039062 23.421875 280.039062 23.0625 L 281.089844 23.0625 C 281.089844 23.21875 281.125 23.355469 281.191406 23.46875 C 281.257812 23.582031 281.351562 23.667969 281.472656 23.730469 C 281.589844 23.789062 281.730469 23.820312 281.886719 23.820312 C 282.054688 23.820312 282.199219 23.785156 282.316406 23.714844 C 282.433594 23.644531 282.523438 23.539062 282.585938 23.398438 C 282.644531 23.257812 282.675781 23.085938 282.679688 22.878906 Z M 282.679688 18.796875 " fill-opacity="1" fill-rule="nonzero"/></g><g clip-path="url(#ce987e29fb)"><path fill="#ffffff" d="M 288.042969 20.394531 C 288.015625 20.144531 287.902344 19.953125 287.707031 19.816406 C 287.511719 19.675781 287.257812 19.605469 286.945312 19.605469 C 286.722656 19.605469 286.535156 19.640625 286.378906 19.707031 C 286.222656 19.773438 286.097656 19.863281 286.015625 19.976562 C 285.933594 20.089844 285.890625 20.21875 285.886719 20.363281 C 285.886719 20.484375 285.914062 20.589844 285.972656 20.679688 C 286.027344 20.769531 286.105469 20.84375 286.203125 20.90625 C 286.296875 20.96875 286.40625 21.019531 286.523438 21.058594 C 286.640625 21.101562 286.757812 21.136719 286.878906 21.164062 L 287.425781 21.300781 C 287.644531 21.351562 287.859375 21.421875 288.0625 21.507812 C 288.265625 21.59375 288.449219 21.703125 288.609375 21.835938 C 288.773438 21.96875 288.902344 22.128906 288.996094 22.316406 C 289.089844 22.503906 289.140625 22.722656 289.140625 22.976562 C 289.140625 23.316406 289.050781 23.613281 288.878906 23.871094 C 288.703125 24.128906 288.449219 24.332031 288.121094 24.476562 C 287.792969 24.621094 287.394531 24.695312 286.925781 24.695312 C 286.472656 24.695312 286.078125 24.625 285.746094 24.484375 C 285.414062 24.34375 285.15625 24.140625 284.96875 23.871094 C 284.777344 23.601562 284.679688 23.277344 284.664062 22.890625 L 285.703125 22.890625 C 285.71875 23.089844 285.78125 23.257812 285.890625 23.394531 C 286 23.53125 286.144531 23.628906 286.320312 23.695312 C 286.5 23.761719 286.699219 23.792969 286.917969 23.792969 C 287.148438 23.792969 287.347656 23.757812 287.523438 23.691406 C 287.699219 23.621094 287.832031 23.527344 287.929688 23.402344 C 288.03125 23.277344 288.082031 23.132812 288.082031 22.96875 C 288.082031 22.816406 288.035156 22.6875 287.949219 22.589844 C 287.859375 22.492188 287.738281 22.40625 287.582031 22.339844 C 287.425781 22.273438 287.242188 22.214844 287.035156 22.160156 L 286.371094 21.992188 C 285.890625 21.867188 285.511719 21.679688 285.234375 21.429688 C 284.957031 21.179688 284.816406 20.847656 284.816406 20.429688 C 284.816406 20.089844 284.910156 19.789062 285.097656 19.53125 C 285.285156 19.273438 285.539062 19.074219 285.863281 18.929688 C 286.183594 18.789062 286.550781 18.71875 286.957031 18.71875 C 287.371094 18.71875 287.734375 18.789062 288.046875 18.929688 C 288.359375 19.074219 288.605469 19.273438 288.78125 19.523438 C 288.960938 19.777344 289.054688 20.066406 289.058594 20.394531 Z M 288.042969 20.394531 " fill-opacity="1" fill-rule="nonzero"/></g><g clip-path="url(#f2e9e01ac5)"><path fill="#000000" d="M 302.824219 29.777344 L 302.820312 29.769531 L 302.820312 29.765625 Z M 302.824219 29.777344 " fill-opacity="1" fill-rule="nonzero"/></g><g clip-path="url(#c04a481dd0)"><path fill="#41b883" d="M 302.46875 6.933594 L 314.609375 27.828125 L 326.746094 6.933594 L 321.890625 6.933594 L 314.609375 19.46875 L 307.261719 6.933594 Z M 302.46875 6.933594 " fill-opacity="1" fill-rule="nonzero"/></g><g clip-path="url(#796cb29804)"><path fill="#35495e" d="M 307.261719 6.933594 L 314.609375 19.53125 L 321.890625 6.933594 L 317.398438 6.933594 L 314.609375 11.777344 L 311.753906 6.933594 Z M 307.261719 6.933594 " fill-opacity="1" fill-rule="nonzero"/></g><g clip-path="url(#c5ec10acee)"><path fill="#000000" d="M 314.609375 29.167969 C 314.316406 29.167969 314.046875 29.011719 313.90625 28.761719 L 301.824219 7.332031 C 301.683594 7.082031 301.6875 6.777344 301.832031 6.53125 C 301.976562 6.285156 302.238281 6.132812 302.527344 6.132812 L 307.109375 6.132812 C 307.140625 6.128906 307.171875 6.128906 307.199219 6.128906 L 311.753906 6.128906 C 312.042969 6.128906 312.308594 6.28125 312.453125 6.53125 L 314.609375 10.269531 L 316.765625 6.53125 C 316.910156 6.28125 317.175781 6.128906 317.464844 6.128906 L 322.019531 6.128906 C 322.050781 6.128906 322.085938 6.128906 322.117188 6.132812 L 326.6875 6.132812 C 326.976562 6.132812 327.238281 6.285156 327.382812 6.53125 C 327.527344 6.777344 327.53125 7.085938 327.390625 7.332031 L 315.308594 28.761719 C 315.167969 29.011719 314.898438 29.167969 314.609375 29.167969 Z M 303.902344 7.742188 L 314.609375 26.726562 L 325.3125 7.742188 L 322.015625 7.742188 C 321.980469 7.742188 321.945312 7.738281 321.914062 7.734375 L 317.929688 7.734375 L 315.304688 12.28125 C 315.160156 12.53125 314.894531 12.683594 314.609375 12.683594 C 314.320312 12.683594 314.054688 12.53125 313.910156 12.28125 L 311.289062 7.734375 L 307.292969 7.734375 C 307.261719 7.738281 307.230469 7.742188 307.199219 7.742188 Z M 303.902344 7.742188 " fill-opacity="1" fill-rule="nonzero"/></g><g clip-path="url(#5430db6c7f)"><path fill="#00dc82" d="M 353.746094 27.601562 L 364.996094 27.601562 C 365.351562 27.601562 365.695312 27.476562 366.007812 27.300781 C 366.320312 27.125 366.640625 26.90625 366.820312 26.601562 C 366.996094 26.296875 367.121094 25.953125 367.121094 25.601562 C 367.121094 25.253906 367 24.90625 366.820312 24.605469 L 359.21875 11.714844 C 359.039062 11.410156 358.820312 11.191406 358.507812 11.015625 C 358.195312 10.839844 357.753906 10.714844 357.394531 10.714844 C 357.035156 10.714844 356.691406 10.839844 356.378906 11.015625 C 356.070312 11.191406 355.847656 11.410156 355.671875 11.714844 L 353.746094 15.011719 L 349.894531 8.617188 C 349.714844 8.3125 349.496094 7.992188 349.183594 7.816406 C 348.871094 7.640625 348.53125 7.617188 348.171875 7.617188 C 347.8125 7.617188 347.46875 7.640625 347.15625 7.816406 C 346.847656 7.992188 346.527344 8.3125 346.347656 8.617188 L 336.921875 24.605469 C 336.742188 24.90625 336.71875 25.253906 336.71875 25.601562 C 336.71875 25.953125 336.742188 26.296875 336.921875 26.601562 C 337.101562 26.90625 337.421875 27.125 337.730469 27.300781 C 338.042969 27.476562 338.386719 27.601562 338.746094 27.601562 L 345.839844 27.601562 C 348.652344 27.601562 350.695312 26.359375 352.121094 24.003906 L 355.570312 18.109375 L 357.394531 15.011719 L 362.96875 24.402344 L 355.570312 24.402344 Z M 345.738281 24.402344 L 340.773438 24.402344 L 348.171875 11.8125 L 351.921875 18.109375 L 349.4375 22.378906 C 348.488281 23.90625 347.410156 24.402344 345.738281 24.402344 Z M 345.738281 24.402344 " fill-opacity="1" fill-rule="nonzero"/></g></svg>