<svg xmlns="http://www.w3.org/2000/svg" xmlns:xlink="http://www.w3.org/1999/xlink" width="500" zoomAndPan="magnify" viewBox="0 0 375 37.5" height="50" preserveAspectRatio="xMidYMid meet" version="1.0"><defs><clipPath id="80ff514597"><path d="M 7.621094 5.074219 L 35 5.074219 L 35 30 L 7.621094 30 Z M 7.621094 5.074219 " clip-rule="nonzero"/></clipPath><clipPath id="ef8b578fce"><path d="M 40.632812 5.074219 L 64.316406 5.074219 L 64.316406 30.238281 L 40.632812 30.238281 Z M 40.632812 5.074219 " clip-rule="nonzero"/></clipPath><clipPath id="9a1915f6d7"><path d="M 52 5.074219 L 64.316406 5.074219 L 64.316406 30.238281 L 52 30.238281 Z M 52 5.074219 " clip-rule="nonzero"/></clipPath><clipPath id="93c8cf6f9b"><path d="M 302 29 L 303 29 L 303 29.8125 L 302 29.8125 Z M 302 29 " clip-rule="nonzero"/></clipPath><clipPath id="eebf09120e"><path d="M 302 6.128906 L 327 6.128906 L 327 28 L 302 28 Z M 302 6.128906 " clip-rule="nonzero"/></clipPath><clipPath id="94c4e3de24"><path d="M 307 6.128906 L 322 6.128906 L 322 20 L 307 20 Z M 307 6.128906 " clip-rule="nonzero"/></clipPath><clipPath id="66d6d53bb9"><path d="M 301.710938 6.128906 L 327.613281 6.128906 L 327.613281 29.8125 L 301.710938 29.8125 Z M 301.710938 6.128906 " clip-rule="nonzero"/></clipPath><clipPath id="2eda1e242c"><path d="M 79 5.792969 L 100 5.792969 L 100 29.476562 L 79 29.476562 Z M 79 5.792969 " clip-rule="nonzero"/></clipPath><clipPath id="ec9f1a9aa9"><path d="M 265 11.125 L 278 11.125 L 278 24.449219 L 265 24.449219 Z M 265 11.125 " clip-rule="nonzero"/></clipPath><clipPath id="41d60da504"><path d="M 234 11.125 L 247 11.125 L 247 24.449219 L 234 24.449219 Z M 234 11.125 " clip-rule="nonzero"/></clipPath><clipPath id="3099de0ec1"><path d="M 249 11.125 L 264 11.125 L 264 24.449219 L 249 24.449219 Z M 249 11.125 " clip-rule="nonzero"/></clipPath><clipPath id="e0eee685c3"><path d="M 249 18 L 256 18 L 256 24.449219 L 249 24.449219 Z M 249 18 " clip-rule="nonzero"/></clipPath><clipPath id="92e7f0c62c"><path d="M 221.097656 11.125 L 236 11.125 L 236 24.449219 L 221.097656 24.449219 Z M 221.097656 11.125 " clip-rule="nonzero"/></clipPath><clipPath id="4b003ba14f"><path d="M 277 23 L 279 23 L 279 24.449219 L 277 24.449219 Z M 277 23 " clip-rule="nonzero"/></clipPath><clipPath id="e29934fe65"><path d="M 279 18 L 283 18 L 283 24.449219 L 279 24.449219 Z M 279 18 " clip-rule="nonzero"/></clipPath><clipPath id="7c81e366f9"><path d="M 283 18 L 288.449219 18 L 288.449219 24.449219 L 283 24.449219 Z M 283 18 " clip-rule="nonzero"/></clipPath><clipPath id="b29b77091b"><path d="M 334.171875 6.128906 L 367 6.128906 L 367 27.59375 L 334.171875 27.59375 Z M 334.171875 6.128906 " clip-rule="nonzero"/></clipPath></defs><g clip-path="url(#80ff514597)"><path fill="#00d8ff" d="M 30.117188 13.410156 C 29.835938 13.3125 29.542969 13.21875 29.238281 13.132812 C 29.289062 12.933594 29.335938 12.734375 29.375 12.539062 C 30.042969 9.328125 29.605469 6.742188 28.121094 5.890625 C 26.691406 5.074219 24.363281 5.925781 22.007812 7.960938 C 21.78125 8.15625 21.554688 8.363281 21.328125 8.582031 C 21.175781 8.4375 21.023438 8.296875 20.875 8.164062 C 18.40625 5.988281 15.933594 5.074219 14.445312 5.925781 C 13.023438 6.746094 12.601562 9.175781 13.199219 12.21875 C 13.257812 12.511719 13.324219 12.8125 13.402344 13.117188 C 13.050781 13.214844 12.714844 13.320312 12.390625 13.433594 C 9.496094 14.433594 7.648438 16.003906 7.648438 17.632812 C 7.648438 19.3125 9.632812 21 12.644531 22.023438 C 12.882812 22.105469 13.132812 22.179688 13.386719 22.253906 C 13.304688 22.582031 13.230469 22.90625 13.171875 23.222656 C 12.597656 26.210938 13.046875 28.585938 14.464844 29.398438 C 15.933594 30.238281 18.394531 29.375 20.792969 27.292969 C 20.984375 27.128906 21.175781 26.953125 21.363281 26.773438 C 21.613281 27.007812 21.859375 27.230469 22.101562 27.441406 C 24.425781 29.425781 26.71875 30.226562 28.140625 29.410156 C 29.605469 28.570312 30.082031 26.019531 29.460938 22.917969 C 29.414062 22.679688 29.359375 22.4375 29.300781 22.191406 C 29.472656 22.140625 29.640625 22.089844 29.808594 22.035156 C 32.941406 21.003906 34.980469 19.335938 34.980469 17.632812 C 34.980469 16 33.070312 14.417969 30.117188 13.410156 Z M 29.441406 20.933594 C 29.289062 20.984375 29.136719 21.03125 28.980469 21.074219 C 28.636719 19.988281 28.167969 18.832031 27.597656 17.636719 C 28.140625 16.472656 28.589844 15.332031 28.925781 14.25 C 29.207031 14.332031 29.476562 14.414062 29.738281 14.503906 C 32.269531 15.371094 33.8125 16.648438 33.8125 17.632812 C 33.8125 18.679688 32.144531 20.042969 29.441406 20.933594 Z M 28.316406 23.140625 C 28.589844 24.511719 28.628906 25.753906 28.449219 26.722656 C 28.285156 27.59375 27.957031 28.175781 27.554688 28.40625 C 26.691406 28.902344 24.851562 28.257812 22.863281 26.5625 C 22.636719 26.367188 22.40625 26.160156 22.175781 25.941406 C 22.945312 25.105469 23.71875 24.132812 24.46875 23.050781 C 25.789062 22.9375 27.035156 22.746094 28.167969 22.484375 C 28.226562 22.710938 28.273438 22.925781 28.316406 23.140625 Z M 16.964844 28.320312 C 16.125 28.617188 15.453125 28.625 15.050781 28.394531 C 14.1875 27.898438 13.828125 25.996094 14.316406 23.4375 C 14.375 23.144531 14.441406 22.84375 14.519531 22.539062 C 15.636719 22.785156 16.875 22.960938 18.199219 23.066406 C 18.957031 24.125 19.75 25.09375 20.546875 25.945312 C 20.371094 26.113281 20.199219 26.269531 20.027344 26.421875 C 18.964844 27.339844 17.902344 27.996094 16.964844 28.320312 Z M 13.023438 20.925781 C 11.691406 20.476562 10.589844 19.886719 9.835938 19.246094 C 9.160156 18.667969 8.816406 18.097656 8.816406 17.632812 C 8.816406 16.644531 10.300781 15.382812 12.773438 14.527344 C 13.074219 14.421875 13.390625 14.324219 13.714844 14.234375 C 14.058594 15.339844 14.507812 16.492188 15.046875 17.660156 C 14.5 18.84375 14.042969 20.019531 13.699219 21.136719 C 13.464844 21.070312 13.242188 21 13.023438 20.925781 Z M 14.347656 11.996094 C 13.832031 9.390625 14.171875 7.421875 15.03125 6.929688 C 15.945312 6.40625 17.96875 7.152344 20.097656 9.03125 C 20.234375 9.152344 20.371094 9.277344 20.507812 9.40625 C 19.714844 10.253906 18.929688 11.21875 18.179688 12.269531 C 16.894531 12.386719 15.664062 12.578125 14.535156 12.832031 C 14.460938 12.546875 14.398438 12.269531 14.347656 11.996094 Z M 26.132812 14.886719 C 25.863281 14.421875 25.585938 13.96875 25.304688 13.527344 C 26.175781 13.636719 27.011719 13.785156 27.796875 13.960938 C 27.558594 14.710938 27.265625 15.496094 26.921875 16.296875 C 26.671875 15.832031 26.410156 15.359375 26.132812 14.886719 Z M 21.328125 10.238281 C 21.867188 10.816406 22.40625 11.460938 22.933594 12.164062 C 22.402344 12.140625 21.859375 12.125 21.3125 12.125 C 20.773438 12.125 20.238281 12.140625 19.703125 12.164062 C 20.234375 11.46875 20.78125 10.824219 21.328125 10.238281 Z M 16.488281 14.894531 C 16.21875 15.359375 15.960938 15.828125 15.71875 16.296875 C 15.378906 15.496094 15.085938 14.710938 14.847656 13.949219 C 15.628906 13.777344 16.460938 13.632812 17.328125 13.527344 C 17.039062 13.972656 16.757812 14.425781 16.488281 14.894531 Z M 17.351562 21.820312 C 16.457031 21.722656 15.613281 21.585938 14.832031 21.417969 C 15.074219 20.644531 15.371094 19.84375 15.71875 19.023438 C 15.964844 19.492188 16.222656 19.960938 16.492188 20.429688 C 16.769531 20.902344 17.058594 21.367188 17.351562 21.820312 Z M 21.359375 25.109375 C 20.804688 24.519531 20.253906 23.863281 19.714844 23.15625 C 20.238281 23.175781 20.773438 23.1875 21.3125 23.1875 C 21.871094 23.1875 22.421875 23.175781 22.964844 23.152344 C 22.429688 23.867188 21.894531 24.527344 21.359375 25.109375 Z M 26.929688 18.980469 C 27.296875 19.808594 27.605469 20.609375 27.847656 21.371094 C 27.058594 21.546875 26.199219 21.691406 25.300781 21.800781 C 25.585938 21.355469 25.863281 20.894531 26.140625 20.417969 C 26.417969 19.941406 26.679688 19.460938 26.929688 18.980469 Z M 25.128906 19.839844 C 24.699219 20.578125 24.261719 21.277344 23.816406 21.941406 C 23.007812 21.996094 22.167969 22.027344 21.3125 22.027344 C 20.464844 22.027344 19.636719 22.003906 18.839844 21.949219 C 18.375 21.28125 17.929688 20.574219 17.503906 19.847656 C 17.082031 19.121094 16.691406 18.390625 16.335938 17.660156 C 16.691406 16.929688 17.078125 16.199219 17.5 15.472656 C 17.921875 14.746094 18.367188 14.046875 18.824219 13.378906 C 19.636719 13.316406 20.472656 13.285156 21.3125 13.285156 C 22.160156 13.285156 22.996094 13.316406 23.804688 13.378906 C 24.257812 14.042969 24.699219 14.738281 25.125 15.46875 C 25.550781 16.203125 25.945312 16.929688 26.300781 17.644531 C 25.945312 18.371094 25.554688 19.105469 25.128906 19.839844 Z M 27.535156 6.894531 C 28.453125 7.417969 28.808594 9.53125 28.230469 12.304688 C 28.195312 12.480469 28.152344 12.660156 28.109375 12.84375 C 26.976562 12.582031 25.746094 12.390625 24.457031 12.269531 C 23.703125 11.207031 22.925781 10.242188 22.144531 9.40625 C 22.355469 9.207031 22.566406 9.015625 22.773438 8.835938 C 24.789062 7.089844 26.675781 6.402344 27.535156 6.894531 Z M 21.3125 15.210938 C 22.660156 15.210938 23.753906 16.292969 23.753906 17.632812 C 23.753906 18.96875 22.660156 20.054688 21.3125 20.054688 C 19.964844 20.054688 18.875 18.96875 18.875 17.632812 C 18.875 16.292969 19.964844 15.210938 21.3125 15.210938 Z M 21.3125 15.210938 " fill-opacity="1" fill-rule="nonzero"/></g><g clip-path="url(#ef8b578fce)"><path fill="#e23237" d="M 40.632812 9.292969 L 52.3125 5.148438 L 64.296875 9.230469 L 62.359375 24.625 L 52.3125 30.164062 L 42.425781 24.695312 Z M 40.632812 9.292969 " fill-opacity="1" fill-rule="nonzero"/></g><g clip-path="url(#9a1915f6d7)"><path fill="#b52e31" d="M 64.296875 9.230469 L 52.3125 5.148438 L 52.3125 30.164062 L 62.359375 24.625 Z M 64.296875 9.230469 " fill-opacity="1" fill-rule="nonzero"/></g><path fill="#ffffff" d="M 52.328125 8.074219 L 45.050781 24.207031 L 47.765625 24.152344 L 49.234375 20.507812 L 55.742188 20.507812 L 57.335938 24.179688 L 59.925781 24.234375 Z M 52.347656 13.253906 L 54.808594 18.378906 L 50.199219 18.378906 L 52.355469 13.253906 Z M 52.347656 13.253906 " fill-opacity="1" fill-rule="nonzero"/><g clip-path="url(#93c8cf6f9b)"><path fill="#000000" d="M 302.824219 29.777344 L 302.820312 29.769531 L 302.820312 29.765625 Z M 302.824219 29.777344 " fill-opacity="1" fill-rule="nonzero"/></g><g clip-path="url(#eebf09120e)"><path fill="#41b883" d="M 302.46875 6.933594 L 314.609375 27.828125 L 326.746094 6.933594 L 321.890625 6.933594 L 314.609375 19.46875 L 307.261719 6.933594 Z M 302.46875 6.933594 " fill-opacity="1" fill-rule="nonzero"/></g><g clip-path="url(#94c4e3de24)"><path fill="#35495e" d="M 307.261719 6.933594 L 314.609375 19.53125 L 321.890625 6.933594 L 317.398438 6.933594 L 314.609375 11.777344 L 311.753906 6.933594 Z M 307.261719 6.933594 " fill-opacity="1" fill-rule="nonzero"/></g><g clip-path="url(#66d6d53bb9)"><path fill="#000000" d="M 314.609375 29.167969 C 314.316406 29.167969 314.046875 29.011719 313.90625 28.761719 L 301.824219 7.332031 C 301.683594 7.082031 301.6875 6.777344 301.832031 6.53125 C 301.976562 6.285156 302.238281 6.132812 302.527344 6.132812 L 307.109375 6.132812 C 307.140625 6.128906 307.171875 6.128906 307.199219 6.128906 L 311.753906 6.128906 C 312.042969 6.128906 312.308594 6.28125 312.453125 6.53125 L 314.609375 10.269531 L 316.765625 6.53125 C 316.910156 6.28125 317.175781 6.128906 317.464844 6.128906 L 322.019531 6.128906 C 322.050781 6.128906 322.085938 6.128906 322.117188 6.132812 L 326.6875 6.132812 C 326.976562 6.132812 327.238281 6.285156 327.382812 6.53125 C 327.527344 6.777344 327.53125 7.085938 327.390625 7.332031 L 315.308594 28.761719 C 315.167969 29.011719 314.898438 29.167969 314.609375 29.167969 Z M 303.902344 7.742188 L 314.609375 26.726562 L 325.3125 7.742188 L 322.015625 7.742188 C 321.980469 7.742188 321.945312 7.738281 321.914062 7.734375 L 317.929688 7.734375 L 315.304688 12.28125 C 315.160156 12.53125 314.894531 12.683594 314.609375 12.683594 C 314.320312 12.683594 314.054688 12.53125 313.910156 12.28125 L 311.289062 7.734375 L 307.292969 7.734375 C 307.261719 7.738281 307.230469 7.742188 307.199219 7.742188 Z M 303.902344 7.742188 " fill-opacity="1" fill-rule="nonzero"/></g><path fill="#8d8d93" d="M 191.371094 23.863281 L 187.796875 17.296875 L 185.546875 19.988281 L 185.546875 23.863281 L 183.660156 23.863281 L 183.660156 11.300781 L 185.546875 11.300781 L 185.546875 17.386719 L 190.445312 11.300781 L 192.621094 11.300781 L 189.066406 15.714844 L 193.585938 23.863281 Z M 197.667969 23.863281 L 197.667969 11.300781 L 199.554688 11.300781 L 199.554688 23.863281 Z M 209.386719 13.097656 L 209.386719 23.863281 L 207.5 23.863281 L 207.5 13.097656 L 203.910156 13.097656 L 203.910156 11.300781 L 212.980469 11.300781 L 212.980469 13.097656 Z M 209.386719 13.097656 " fill-opacity="1" fill-rule="nonzero"/><path fill="#4a4a55" d="M 111.503906 24.078125 C 110.46875 24.105469 109.449219 23.820312 108.582031 23.261719 C 107.769531 22.734375 107.167969 21.945312 106.875 21.027344 L 108.652344 20.382812 C 108.898438 20.945312 109.304688 21.425781 109.816406 21.773438 C 110.335938 22.117188 110.949219 22.292969 111.574219 22.28125 C 112.175781 22.3125 112.769531 22.136719 113.253906 21.78125 C 113.679688 21.425781 113.910156 20.894531 113.878906 20.34375 C 113.882812 20.09375 113.824219 19.84375 113.707031 19.617188 C 113.605469 19.417969 113.476562 19.230469 113.316406 19.070312 C 113.117188 18.890625 112.890625 18.742188 112.644531 18.632812 C 112.34375 18.480469 112.09375 18.367188 111.890625 18.289062 C 111.691406 18.210938 111.398438 18.109375 111.011719 17.976562 C 110.527344 17.808594 110.164062 17.675781 109.921875 17.582031 C 109.597656 17.445312 109.277344 17.285156 108.972656 17.105469 C 108.640625 16.933594 108.339844 16.707031 108.082031 16.441406 C 107.859375 16.183594 107.675781 15.886719 107.546875 15.570312 C 107.03125 14.335938 107.375 12.910156 108.398438 12.039062 C 109.125 11.402344 110.109375 11.085938 111.355469 11.085938 C 112.394531 11.085938 113.253906 11.3125 113.921875 11.769531 C 114.574219 12.195312 115.054688 12.839844 115.277344 13.582031 L 113.535156 14.15625 C 113.359375 13.765625 113.0625 13.441406 112.691406 13.230469 C 112.238281 12.984375 111.726562 12.863281 111.210938 12.878906 C 110.703125 12.851562 110.203125 12.992188 109.785156 13.273438 C 109.441406 13.539062 109.246094 13.957031 109.269531 14.386719 C 109.273438 14.71875 109.417969 15.03125 109.667969 15.25 C 109.910156 15.484375 110.191406 15.671875 110.503906 15.804688 C 110.792969 15.925781 111.234375 16.085938 111.828125 16.289062 C 112.191406 16.421875 112.460938 16.519531 112.636719 16.585938 C 112.8125 16.652344 113.066406 16.761719 113.40625 16.917969 C 113.679688 17.035156 113.9375 17.175781 114.1875 17.339844 C 114.410156 17.496094 114.621094 17.667969 114.820312 17.851562 C 115.039062 18.039062 115.226562 18.257812 115.375 18.503906 C 115.515625 18.761719 115.625 19.03125 115.703125 19.3125 C 115.792969 19.640625 115.839844 19.984375 115.839844 20.328125 C 115.839844 21.5 115.433594 22.417969 114.621094 23.082031 C 113.8125 23.742188 112.773438 24.078125 111.503906 24.078125 Z M 123.132812 23.863281 L 118.777344 11.300781 L 120.8125 11.300781 L 123.695312 20.058594 C 123.855469 20.53125 123.988281 21.007812 124.09375 21.496094 C 124.203125 21.007812 124.335938 20.53125 124.496094 20.058594 L 127.34375 11.300781 L 129.355469 11.300781 L 125.019531 23.863281 Z M 133.203125 23.863281 L 133.203125 11.300781 L 141.078125 11.300781 L 141.078125 13.0625 L 135.089844 13.0625 L 135.089844 16.507812 L 138.957031 16.507812 L 138.957031 18.265625 L 135.089844 18.265625 L 135.089844 22.105469 L 141.480469 22.105469 L 141.480469 23.863281 Z M 146.285156 23.863281 L 146.285156 11.300781 L 148.171875 11.300781 L 148.171875 22.070312 L 154.378906 22.070312 L 154.378906 23.863281 Z M 161.492188 13.097656 L 161.492188 23.863281 L 159.605469 23.863281 L 159.605469 13.097656 L 156.011719 13.097656 L 156.011719 11.300781 L 165.085938 11.300781 L 165.085938 13.097656 Z M 168.984375 23.863281 L 168.984375 11.300781 L 176.859375 11.300781 L 176.859375 13.0625 L 170.871094 13.0625 L 170.871094 16.507812 L 174.738281 16.507812 L 174.738281 18.265625 L 170.871094 18.265625 L 170.871094 22.105469 L 177.261719 22.105469 L 177.261719 23.863281 Z M 168.984375 23.863281 " fill-opacity="1" fill-rule="nonzero"/><g clip-path="url(#2eda1e242c)"><path fill="#ff3e00" d="M 98.265625 8.914062 C 96.050781 5.78125 91.679688 4.851562 88.515625 6.84375 L 82.964844 10.34375 C 81.445312 11.285156 80.402344 12.820312 80.085938 14.5625 C 79.820312 16.015625 80.050781 17.515625 80.746094 18.824219 C 80.269531 19.535156 79.945312 20.335938 79.792969 21.179688 C 79.472656 22.957031 79.890625 24.785156 80.953125 26.253906 C 83.167969 29.390625 87.542969 30.320312 90.703125 28.328125 L 96.257812 24.828125 C 97.773438 23.882812 98.820312 22.351562 99.136719 20.605469 C 99.398438 19.152344 99.167969 17.652344 98.472656 16.347656 C 98.949219 15.632812 99.273438 14.832031 99.425781 13.992188 C 99.746094 12.214844 99.328125 10.382812 98.265625 8.914062 " fill-opacity="1" fill-rule="nonzero"/></g><path fill="#ffffff" d="M 87.972656 26.550781 C 86.183594 27.011719 84.292969 26.316406 83.238281 24.816406 C 82.601562 23.929688 82.347656 22.832031 82.542969 21.761719 C 82.574219 21.589844 82.617188 21.417969 82.675781 21.25 L 82.777344 20.933594 L 83.0625 21.140625 C 83.71875 21.617188 84.453125 21.980469 85.234375 22.214844 L 85.441406 22.277344 L 85.421875 22.480469 C 85.398438 22.769531 85.476562 23.058594 85.648438 23.296875 C 85.964844 23.75 86.535156 23.957031 87.074219 23.820312 C 87.195312 23.789062 87.308594 23.738281 87.414062 23.671875 L 92.96875 20.171875 C 93.242188 20 93.433594 19.722656 93.488281 19.40625 C 93.546875 19.082031 93.472656 18.753906 93.28125 18.484375 C 92.960938 18.03125 92.390625 17.824219 91.851562 17.960938 C 91.730469 17.992188 91.617188 18.042969 91.511719 18.109375 L 89.394531 19.445312 C 89.042969 19.664062 88.664062 19.828125 88.265625 19.933594 C 86.472656 20.394531 84.582031 19.703125 83.527344 18.199219 C 82.890625 17.316406 82.640625 16.214844 82.832031 15.144531 C 83.023438 14.097656 83.652344 13.175781 84.5625 12.609375 L 90.117188 9.109375 C 90.464844 8.890625 90.847656 8.722656 91.246094 8.617188 C 93.035156 8.160156 94.925781 8.851562 95.980469 10.355469 C 96.621094 11.238281 96.871094 12.339844 96.679688 13.40625 C 96.644531 13.582031 96.601562 13.753906 96.546875 13.921875 L 96.441406 14.238281 L 96.15625 14.03125 C 95.5 13.554688 94.765625 13.191406 93.984375 12.957031 L 93.777344 12.894531 L 93.796875 12.691406 C 93.820312 12.402344 93.742188 12.113281 93.574219 11.875 C 93.253906 11.421875 92.6875 11.214844 92.148438 11.351562 C 92.027344 11.382812 91.914062 11.433594 91.808594 11.5 L 86.253906 15 C 85.976562 15.167969 85.789062 15.449219 85.730469 15.761719 C 85.671875 16.085938 85.75 16.417969 85.941406 16.683594 C 86.257812 17.136719 86.828125 17.347656 87.367188 17.207031 C 87.488281 17.175781 87.601562 17.125 87.707031 17.058594 L 89.828125 15.726562 C 90.175781 15.503906 90.554688 15.339844 90.957031 15.234375 C 92.746094 14.773438 94.636719 15.46875 95.691406 16.96875 C 96.328125 17.851562 96.578125 18.953125 96.386719 20.023438 C 96.195312 21.070312 95.570312 21.992188 94.65625 22.558594 L 89.101562 26.058594 C 88.753906 26.28125 88.375 26.445312 87.972656 26.550781 " fill-opacity="1" fill-rule="nonzero"/><g clip-path="url(#ec9f1a9aa9)"><path fill="#000000" d="M 265.804688 11.128906 L 277.464844 11.128906 L 277.464844 13.238281 L 272.839844 13.238281 L 272.839844 24.335938 L 270.527344 24.335938 L 270.527344 13.238281 L 265.804688 13.238281 Z M 265.804688 11.128906 " fill-opacity="1" fill-rule="nonzero"/></g><g clip-path="url(#41d60da504)"><path fill="#000000" d="M 246.628906 11.128906 L 246.628906 13.238281 L 237.28125 13.238281 L 237.28125 16.632812 L 244.796875 16.632812 L 244.796875 18.742188 L 237.28125 18.742188 L 237.28125 22.226562 L 246.628906 22.226562 L 246.628906 24.335938 L 234.96875 24.335938 L 234.96875 13.238281 L 234.964844 13.238281 L 234.964844 11.128906 Z M 246.628906 11.128906 " fill-opacity="1" fill-rule="nonzero"/></g><g clip-path="url(#3099de0ec1)"><path fill="#000000" d="M 252.449219 11.136719 L 249.421875 11.136719 L 260.265625 24.34375 L 263.300781 24.34375 L 257.878906 17.742188 L 263.292969 11.144531 L 260.265625 11.152344 L 256.363281 15.898438 Z M 252.449219 11.136719 " fill-opacity="1" fill-rule="nonzero"/></g><g clip-path="url(#e0eee685c3)"><path fill="#000000" d="M 255.554688 20.570312 L 254.039062 18.722656 L 249.414062 24.351562 L 252.449219 24.351562 Z M 255.554688 20.570312 " fill-opacity="1" fill-rule="nonzero"/></g><g clip-path="url(#92e7f0c62c)"><path fill="#000000" d="M 235.046875 24.335938 L 224.191406 11.125 L 221.300781 11.125 L 221.300781 24.332031 L 223.613281 24.332031 L 223.613281 13.949219 L 232.144531 24.335938 Z M 235.046875 24.335938 " fill-opacity="1" fill-rule="evenodd"/></g><g clip-path="url(#4b003ba14f)"><path fill="#000000" d="M 277.984375 24.257812 C 277.816406 24.257812 277.671875 24.199219 277.550781 24.085938 C 277.429688 23.96875 277.371094 23.828125 277.375 23.664062 C 277.371094 23.503906 277.429688 23.367188 277.550781 23.25 C 277.671875 23.136719 277.816406 23.078125 277.984375 23.078125 C 278.148438 23.078125 278.292969 23.136719 278.414062 23.25 C 278.535156 23.367188 278.59375 23.503906 278.597656 23.664062 C 278.59375 23.773438 278.566406 23.875 278.511719 23.964844 C 278.453125 24.054688 278.378906 24.125 278.285156 24.175781 C 278.195312 24.230469 278.09375 24.257812 277.984375 24.257812 Z M 277.984375 24.257812 " fill-opacity="1" fill-rule="nonzero"/></g><g clip-path="url(#e29934fe65)"><path fill="#000000" d="M 281.933594 18.691406 L 282.957031 18.691406 L 282.957031 22.5625 C 282.957031 22.917969 282.878906 23.222656 282.726562 23.480469 C 282.570312 23.734375 282.355469 23.929688 282.078125 24.066406 C 281.804688 24.203125 281.484375 24.273438 281.117188 24.273438 C 280.785156 24.273438 280.484375 24.214844 280.21875 24.097656 C 279.953125 23.984375 279.742188 23.8125 279.585938 23.585938 C 279.429688 23.359375 279.351562 23.074219 279.351562 22.734375 L 280.378906 22.734375 C 280.378906 22.882812 280.414062 23.011719 280.480469 23.121094 C 280.546875 23.226562 280.636719 23.308594 280.753906 23.367188 C 280.871094 23.425781 281.007812 23.453125 281.15625 23.453125 C 281.324219 23.453125 281.464844 23.417969 281.578125 23.351562 C 281.691406 23.285156 281.78125 23.183594 281.839844 23.050781 C 281.902344 22.921875 281.933594 22.757812 281.933594 22.5625 Z M 281.933594 18.691406 " fill-opacity="1" fill-rule="nonzero"/></g><g clip-path="url(#7c81e366f9)"><path fill="#000000" d="M 287.175781 20.207031 C 287.152344 19.972656 287.039062 19.789062 286.851562 19.660156 C 286.65625 19.527344 286.40625 19.460938 286.101562 19.460938 C 285.886719 19.460938 285.703125 19.492188 285.550781 19.554688 C 285.394531 19.621094 285.277344 19.703125 285.195312 19.8125 C 285.113281 19.917969 285.074219 20.042969 285.070312 20.179688 C 285.070312 20.292969 285.097656 20.394531 285.152344 20.476562 C 285.207031 20.5625 285.28125 20.632812 285.375 20.691406 C 285.46875 20.75 285.574219 20.796875 285.691406 20.835938 C 285.804688 20.878906 285.921875 20.910156 286.039062 20.9375 L 286.574219 21.066406 C 286.789062 21.113281 286.996094 21.179688 287.195312 21.261719 C 287.394531 21.34375 287.574219 21.449219 287.730469 21.574219 C 287.890625 21.699219 288.015625 21.851562 288.109375 22.027344 C 288.199219 22.207031 288.246094 22.414062 288.246094 22.652344 C 288.246094 22.976562 288.164062 23.257812 287.992188 23.503906 C 287.820312 23.746094 287.574219 23.9375 287.253906 24.074219 C 286.929688 24.210938 286.542969 24.28125 286.085938 24.28125 C 285.644531 24.28125 285.257812 24.214844 284.933594 24.082031 C 284.605469 23.949219 284.351562 23.753906 284.171875 23.5 C 283.988281 23.246094 283.886719 22.9375 283.875 22.570312 L 284.890625 22.570312 C 284.902344 22.761719 284.964844 22.921875 285.074219 23.050781 C 285.179688 23.175781 285.320312 23.269531 285.496094 23.335938 C 285.667969 23.398438 285.863281 23.429688 286.078125 23.429688 C 286.300781 23.429688 286.5 23.394531 286.667969 23.332031 C 286.839844 23.265625 286.972656 23.175781 287.066406 23.054688 C 287.164062 22.941406 287.214844 22.800781 287.214844 22.644531 C 287.214844 22.5 287.167969 22.382812 287.085938 22.289062 C 287 22.195312 286.878906 22.113281 286.726562 22.050781 C 286.574219 21.988281 286.394531 21.929688 286.191406 21.878906 L 285.542969 21.71875 C 285.074219 21.605469 284.703125 21.425781 284.429688 21.1875 C 284.160156 20.953125 284.023438 20.636719 284.023438 20.242188 C 284.023438 19.917969 284.113281 19.632812 284.296875 19.390625 C 284.480469 19.144531 284.730469 18.957031 285.042969 18.820312 C 285.359375 18.6875 285.71875 18.617188 286.117188 18.617188 C 286.519531 18.617188 286.875 18.6875 287.179688 18.820312 C 287.484375 18.957031 287.726562 19.144531 287.898438 19.382812 C 288.074219 19.621094 288.164062 19.894531 288.167969 20.207031 Z M 287.175781 20.207031 " fill-opacity="1" fill-rule="nonzero"/></g><g clip-path="url(#b29b77091b)"><path fill="#00dc82" d="M 352.613281 27.59375 L 364.683594 27.59375 C 365.070312 27.59375 365.4375 27.457031 365.773438 27.269531 C 366.105469 27.082031 366.449219 26.84375 366.640625 26.519531 C 366.835938 26.191406 366.96875 25.820312 366.96875 25.445312 C 366.96875 25.070312 366.835938 24.699219 366.640625 24.371094 L 358.488281 10.527344 C 358.292969 10.203125 358.058594 9.964844 357.726562 9.777344 C 357.390625 9.589844 356.914062 9.453125 356.53125 9.453125 C 356.144531 9.453125 355.777344 9.589844 355.441406 9.777344 C 355.109375 9.964844 354.875 10.203125 354.679688 10.527344 L 352.613281 14.070312 L 348.484375 7.199219 C 348.289062 6.875 348.054688 6.53125 347.722656 6.34375 C 347.386719 6.15625 347.019531 6.128906 346.632812 6.128906 C 346.25 6.128906 345.878906 6.15625 345.546875 6.34375 C 345.214844 6.53125 344.871094 6.875 344.675781 7.199219 L 334.566406 24.371094 C 334.371094 24.699219 334.347656 25.070312 334.347656 25.445312 C 334.347656 25.820312 334.371094 26.191406 334.566406 26.519531 C 334.757812 26.84375 335.101562 27.082031 335.433594 27.269531 C 335.769531 27.457031 336.136719 27.59375 336.523438 27.59375 L 344.132812 27.59375 C 347.148438 27.59375 349.34375 26.257812 350.875 23.726562 L 354.570312 17.398438 L 356.53125 14.070312 L 362.507812 24.15625 L 354.570312 24.15625 Z M 344.023438 24.15625 L 338.695312 24.15625 L 346.632812 10.636719 L 350.65625 17.398438 L 347.992188 21.980469 C 346.976562 23.621094 345.816406 24.15625 344.023438 24.15625 Z M 344.023438 24.15625 " fill-opacity="1" fill-rule="nonzero"/></g></svg>