<svg xmlns="http://www.w3.org/2000/svg" xmlns:xlink="http://www.w3.org/1999/xlink" width="550" zoomAndPan="magnify" viewBox="0 0 412.5 37.5" height="50" preserveAspectRatio="xMidYMid meet" version="1.0"><defs><g/><clipPath id="6e47b8df8b"><path d="M 6.167969 4.441406 L 32 4.441406 L 32 32.566406 L 6.167969 32.566406 Z M 6.167969 4.441406 " clip-rule="nonzero"/></clipPath><clipPath id="d2d237e762"><path d="M 210 16 L 224.644531 16 L 224.644531 30 L 210 30 Z M 210 16 " clip-rule="nonzero"/></clipPath><clipPath id="2ddbbed3e0"><path d="M 196 21 L 220 21 L 220 33.304688 L 196 33.304688 Z M 196 21 " clip-rule="nonzero"/></clipPath><clipPath id="2200bf0549"><path d="M 195.039062 11 L 202 11 L 202 26 L 195.039062 26 Z M 195.039062 11 " clip-rule="nonzero"/></clipPath><clipPath id="7476ab97f1"><path d="M 196 3.699219 L 221 3.699219 L 221 16 L 196 16 Z M 196 3.699219 " clip-rule="nonzero"/></clipPath></defs><g clip-path="url(#6e47b8df8b)"><path fill="#ff3e00" d="M 29.777344 7.601562 C 27.042969 3.683594 21.648438 2.523438 17.75 5.011719 L 10.898438 9.386719 C 9.027344 10.566406 7.738281 12.484375 7.347656 14.664062 C 7.023438 16.480469 7.308594 18.355469 8.164062 19.988281 C 7.578125 20.878906 7.179688 21.882812 6.988281 22.933594 C 6.59375 25.152344 7.109375 27.441406 8.421875 29.277344 C 11.152344 33.199219 16.546875 34.359375 20.445312 31.867188 L 27.296875 27.492188 C 29.167969 26.3125 30.457031 24.398438 30.847656 22.21875 C 31.175781 20.398438 30.886719 18.527344 30.03125 16.890625 C 30.617188 16 31.015625 15 31.207031 13.949219 C 31.601562 11.726562 31.085938 9.4375 29.777344 7.601562 " fill-opacity="1" fill-rule="nonzero"/></g><path fill="#ffffff" d="M 17.082031 29.648438 C 14.871094 30.222656 12.539062 29.355469 11.242188 27.476562 C 10.453125 26.375 10.144531 25 10.378906 23.660156 C 10.417969 23.445312 10.472656 23.230469 10.542969 23.019531 L 10.671875 22.625 L 11.023438 22.882812 C 11.832031 23.480469 12.738281 23.933594 13.703125 24.226562 L 13.957031 24.304688 L 13.933594 24.558594 C 13.902344 24.921875 14 25.28125 14.210938 25.578125 C 14.601562 26.144531 15.304688 26.40625 15.96875 26.234375 C 16.117188 26.195312 16.261719 26.132812 16.390625 26.050781 L 23.242188 21.671875 C 23.578125 21.457031 23.8125 21.113281 23.882812 20.71875 C 23.953125 20.3125 23.859375 19.898438 23.625 19.566406 C 23.234375 19 22.53125 18.738281 21.863281 18.910156 C 21.714844 18.953125 21.574219 19.011719 21.445312 19.097656 L 18.832031 20.765625 C 18.398438 21.039062 17.929688 21.246094 17.4375 21.378906 C 15.230469 21.953125 12.898438 21.085938 11.597656 19.207031 C 10.8125 18.105469 10.5 16.730469 10.738281 15.390625 C 10.972656 14.082031 11.75 12.929688 12.875 12.222656 L 19.722656 7.84375 C 20.15625 7.570312 20.625 7.363281 21.117188 7.234375 C 23.324219 6.65625 25.65625 7.523438 26.957031 9.402344 C 27.742188 10.507812 28.054688 11.882812 27.816406 13.21875 C 27.777344 13.4375 27.722656 13.652344 27.652344 13.859375 L 27.523438 14.253906 L 27.171875 13.996094 C 26.363281 13.402344 25.457031 12.945312 24.492188 12.65625 L 24.238281 12.578125 L 24.261719 12.324219 C 24.292969 11.960938 24.195312 11.597656 23.988281 11.300781 C 23.59375 10.738281 22.894531 10.476562 22.226562 10.648438 C 22.078125 10.6875 21.9375 10.75 21.808594 10.832031 L 14.957031 15.207031 C 14.617188 15.421875 14.382812 15.769531 14.3125 16.164062 C 14.242188 16.566406 14.335938 16.980469 14.574219 17.3125 C 14.964844 17.878906 15.667969 18.140625 16.332031 17.96875 C 16.480469 17.929688 16.621094 17.867188 16.753906 17.785156 L 19.367188 16.113281 C 19.796875 15.839844 20.265625 15.632812 20.757812 15.503906 C 22.964844 14.925781 25.296875 15.792969 26.597656 17.671875 C 27.382812 18.773438 27.695312 20.152344 27.457031 21.488281 C 27.222656 22.796875 26.449219 23.949219 25.320312 24.660156 L 18.472656 29.035156 C 18.042969 29.308594 17.574219 29.515625 17.082031 29.648438 " fill-opacity="1" fill-rule="nonzero"/><g fill="#5b83f9" fill-opacity="1"><g transform="translate(275.92079, 26.357408)"><g><path d="M 8.222656 -16.828125 L 2.066406 -16.828125 L 2.066406 0 L 4.519531 0 L 4.519531 -5.601562 L 8.222656 -5.601562 C 11.851562 -5.601562 13.679688 -8.390625 13.679688 -11.203125 C 13.679688 -14.015625 11.851562 -16.828125 8.222656 -16.828125 Z M 8.222656 -8.003906 L 4.519531 -8.003906 L 4.519531 -14.375 L 8.222656 -14.375 C 10.265625 -14.375 11.273438 -12.789062 11.273438 -11.179688 C 11.273438 -9.589844 10.265625 -8.003906 8.222656 -8.003906 Z M 8.222656 -8.003906 "/></g></g></g><g fill="#5b83f9" fill-opacity="1"><g transform="translate(292.118555, 26.357408)"><g><path d="M 4.160156 -4.253906 L 10.984375 -4.253906 L 12.597656 0 L 15.191406 0 L 8.4375 -17.042969 L 6.660156 -17.042969 L -0.0976562 0 L 2.523438 0 Z M 10.097656 -6.539062 L 5.046875 -6.539062 L 7.574219 -13.171875 Z M 10.097656 -6.539062 "/></g></g></g><g fill="#5b83f9" fill-opacity="1"><g transform="translate(309.277567, 26.357408)"><g><path d="M 10.480469 -12.476562 L 12.886719 -12.574219 C 12.453125 -15.648438 9.761719 -16.996094 7.164062 -16.996094 C 5.214844 -16.996094 3.195312 -16.226562 2.066406 -14.761719 C 1.441406 -13.941406 1.128906 -12.980469 1.128906 -11.972656 C 1.128906 -11.851562 1.152344 -11.707031 1.152344 -11.5625 L 1.152344 -11.585938 C 1.417969 -8.078125 4.496094 -7.5 7.117188 -7.234375 C 8.796875 -7.066406 10.527344 -6.851562 10.816406 -5.578125 C 10.867188 -5.359375 10.890625 -5.167969 10.890625 -5 C 10.890625 -3.269531 8.917969 -2.257812 7.117188 -2.257812 C 5.554688 -2.257812 3.652344 -3.078125 3.484375 -4.640625 L 3.484375 -4.542969 L 3.460938 -4.902344 L 1.007812 -4.855469 L 1.035156 -4.398438 C 1.347656 -1.394531 4.496094 0.144531 7.089844 0.144531 C 10.121094 0.144531 13.34375 -1.730469 13.34375 -4.976562 C 13.34375 -5.3125 13.292969 -5.722656 13.222656 -6.082031 C 12.574219 -8.773438 9.710938 -9.375 7.402344 -9.664062 C 5.527344 -9.832031 3.582031 -10.074219 3.582031 -12.019531 C 3.582031 -12.5 3.703125 -12.980469 3.992188 -13.34375 C 4.6875 -14.230469 5.960938 -14.617188 7.117188 -14.617188 C 8.558594 -14.617188 10.144531 -13.96875 10.480469 -12.476562 Z M 10.480469 -12.476562 "/></g></g></g><g fill="#5b83f9" fill-opacity="1"><g transform="translate(325.499366, 26.357408)"><g><path d="M 10.480469 -12.476562 L 12.886719 -12.574219 C 12.453125 -15.648438 9.761719 -16.996094 7.164062 -16.996094 C 5.214844 -16.996094 3.195312 -16.226562 2.066406 -14.761719 C 1.441406 -13.941406 1.128906 -12.980469 1.128906 -11.972656 C 1.128906 -11.851562 1.152344 -11.707031 1.152344 -11.5625 L 1.152344 -11.585938 C 1.417969 -8.078125 4.496094 -7.5 7.117188 -7.234375 C 8.796875 -7.066406 10.527344 -6.851562 10.816406 -5.578125 C 10.867188 -5.359375 10.890625 -5.167969 10.890625 -5 C 10.890625 -3.269531 8.917969 -2.257812 7.117188 -2.257812 C 5.554688 -2.257812 3.652344 -3.078125 3.484375 -4.640625 L 3.484375 -4.542969 L 3.460938 -4.902344 L 1.007812 -4.855469 L 1.035156 -4.398438 C 1.347656 -1.394531 4.496094 0.144531 7.089844 0.144531 C 10.121094 0.144531 13.34375 -1.730469 13.34375 -4.976562 C 13.34375 -5.3125 13.292969 -5.722656 13.222656 -6.082031 C 12.574219 -8.773438 9.710938 -9.375 7.402344 -9.664062 C 5.527344 -9.832031 3.582031 -10.074219 3.582031 -12.019531 C 3.582031 -12.5 3.703125 -12.980469 3.992188 -13.34375 C 4.6875 -14.230469 5.960938 -14.617188 7.117188 -14.617188 C 8.558594 -14.617188 10.144531 -13.96875 10.480469 -12.476562 Z M 10.480469 -12.476562 "/></g></g></g><g fill="#d6d4d4" fill-opacity="1"><g transform="translate(341.723111, 26.357408)"><g><path d="M 4.472656 0 L 4.472656 -16.828125 L 2.066406 -16.828125 L 2.066406 0 Z M 10.792969 -16.828125 L 4.929688 -9.015625 L 4.929688 -7.789062 L 11.347656 0 L 14.472656 0 L 7.378906 -8.460938 L 13.796875 -16.828125 Z M 10.792969 -16.828125 "/></g></g></g><g fill="#d6d4d4" fill-opacity="1"><g transform="translate(357.968941, 26.357408)"><g><path d="M 12.332031 -2.429688 L 4.519531 -2.429688 L 4.519531 -7.378906 L 12.140625 -7.378906 L 12.140625 -9.832031 L 4.519531 -9.832031 L 4.519531 -14.566406 L 12.308594 -14.566406 L 12.308594 -16.996094 L 2.066406 -16.996094 L 2.066406 0 L 12.332031 0 Z M 12.332031 -2.429688 "/></g></g></g><g fill="#d6d4d4" fill-opacity="1"><g transform="translate(373.301578, 26.357408)"><g><path d="M 7.234375 -9.421875 L 2.5 -17.140625 L -0.359375 -17.140625 L 6.011719 -6.851562 L 6.011719 0 L 8.460938 0 L 8.460938 -6.851562 L 14.90625 -17.140625 L 12.019531 -17.140625 Z M 7.234375 -9.421875 "/></g></g></g><g fill="#d6d4d4" fill-opacity="1"><g transform="translate(389.715626, 26.357408)"><g><path d="M 10.480469 -12.476562 L 12.886719 -12.574219 C 12.453125 -15.648438 9.761719 -16.996094 7.164062 -16.996094 C 5.214844 -16.996094 3.195312 -16.226562 2.066406 -14.761719 C 1.441406 -13.941406 1.128906 -12.980469 1.128906 -11.972656 C 1.128906 -11.851562 1.152344 -11.707031 1.152344 -11.5625 L 1.152344 -11.585938 C 1.417969 -8.078125 4.496094 -7.5 7.117188 -7.234375 C 8.796875 -7.066406 10.527344 -6.851562 10.816406 -5.578125 C 10.867188 -5.359375 10.890625 -5.167969 10.890625 -5 C 10.890625 -3.269531 8.917969 -2.257812 7.117188 -2.257812 C 5.554688 -2.257812 3.652344 -3.078125 3.484375 -4.640625 L 3.484375 -4.542969 L 3.460938 -4.902344 L 1.007812 -4.855469 L 1.035156 -4.398438 C 1.347656 -1.394531 4.496094 0.144531 7.089844 0.144531 C 10.121094 0.144531 13.34375 -1.730469 13.34375 -4.976562 C 13.34375 -5.3125 13.292969 -5.722656 13.222656 -6.082031 C 12.574219 -8.773438 9.710938 -9.375 7.402344 -9.664062 C 5.527344 -9.832031 3.582031 -10.074219 3.582031 -12.019531 C 3.582031 -12.5 3.703125 -12.980469 3.992188 -13.34375 C 4.6875 -14.230469 5.960938 -14.617188 7.117188 -14.617188 C 8.558594 -14.617188 10.144531 -13.96875 10.480469 -12.476562 Z M 10.480469 -12.476562 "/></g></g></g><path fill="#5b83f9" d="M 259.382812 10.730469 C 259.382812 11.113281 259.347656 11.492188 259.273438 11.867188 C 259.199219 12.242188 259.085938 12.605469 258.941406 12.960938 C 258.792969 13.3125 258.613281 13.648438 258.402344 13.964844 C 258.1875 14.285156 257.949219 14.578125 257.675781 14.847656 C 257.40625 15.121094 257.113281 15.363281 256.792969 15.574219 C 256.476562 15.785156 256.140625 15.964844 255.785156 16.113281 C 255.433594 16.257812 255.070312 16.371094 254.695312 16.445312 C 254.320312 16.519531 253.941406 16.554688 253.558594 16.554688 C 253.175781 16.554688 252.796875 16.519531 252.421875 16.445312 C 252.042969 16.371094 251.679688 16.257812 251.328125 16.113281 C 250.972656 15.964844 250.636719 15.785156 250.320312 15.574219 C 250 15.363281 249.707031 15.121094 249.4375 14.847656 C 249.164062 14.578125 248.925781 14.285156 248.710938 13.964844 C 248.5 13.648438 248.320312 13.3125 248.171875 12.960938 C 248.027344 12.605469 247.917969 12.242188 247.84375 11.867188 C 247.765625 11.492188 247.730469 11.113281 247.730469 10.730469 C 247.730469 10.347656 247.765625 9.96875 247.84375 9.59375 C 247.917969 9.21875 248.027344 8.851562 248.171875 8.5 C 248.320312 8.144531 248.5 7.808594 248.710938 7.492188 C 248.925781 7.171875 249.164062 6.878906 249.4375 6.609375 C 249.707031 6.339844 250 6.097656 250.320312 5.882812 C 250.636719 5.671875 250.972656 5.492188 251.328125 5.347656 C 251.679688 5.199219 252.042969 5.089844 252.421875 5.015625 C 252.796875 4.941406 253.175781 4.902344 253.558594 4.902344 C 253.941406 4.902344 254.320312 4.941406 254.695312 5.015625 C 255.070312 5.089844 255.433594 5.199219 255.785156 5.347656 C 256.140625 5.492188 256.476562 5.671875 256.792969 5.882812 C 257.113281 6.097656 257.40625 6.339844 257.675781 6.609375 C 257.949219 6.878906 258.1875 7.171875 258.402344 7.492188 C 258.613281 7.808594 258.792969 8.144531 258.941406 8.5 C 259.085938 8.851562 259.199219 9.21875 259.273438 9.59375 C 259.347656 9.96875 259.382812 10.347656 259.382812 10.730469 Z M 259.382812 10.730469 " fill-opacity="1" fill-rule="nonzero"/><path fill="#5b83f9" d="M 269.09375 16.554688 C 269.097656 16.011719 269.003906 15.484375 268.816406 14.976562 C 268.628906 14.464844 268.359375 14.003906 268.003906 13.589844 C 267.652344 13.179688 267.234375 12.839844 266.761719 12.578125 C 266.285156 12.3125 265.777344 12.140625 265.242188 12.058594 C 264.703125 11.976562 264.167969 11.992188 263.636719 12.105469 C 263.105469 12.214844 262.609375 12.414062 262.148438 12.707031 C 261.6875 12.996094 261.292969 13.355469 260.960938 13.789062 C 260.632812 14.21875 260.386719 14.695312 260.230469 15.214844 C 260.070312 15.738281 260.007812 16.269531 260.039062 16.808594 C 260.070312 17.351562 260.199219 17.875 260.417969 18.371094 C 260.636719 18.867188 260.9375 19.3125 261.316406 19.699219 C 261.695312 20.089844 262.128906 20.402344 262.621094 20.636719 L 262.621094 27.5625 L 264.5625 29.503906 L 267.800781 26.269531 L 265.859375 24.324219 L 267.800781 22.382812 L 266.195312 20.777344 C 266.621094 20.613281 267.015625 20.390625 267.371094 20.105469 C 267.730469 19.824219 268.039062 19.492188 268.296875 19.117188 C 268.558594 18.738281 268.753906 18.332031 268.890625 17.894531 C 269.027344 17.460938 269.09375 17.011719 269.09375 16.554688 Z M 264.5625 16.554688 C 264.390625 16.554688 264.226562 16.523438 264.066406 16.457031 C 263.910156 16.390625 263.769531 16.296875 263.648438 16.175781 C 263.527344 16.054688 263.433594 15.914062 263.367188 15.757812 C 263.300781 15.597656 263.269531 15.433594 263.269531 15.261719 C 263.269531 15.089844 263.300781 14.925781 263.367188 14.765625 C 263.433594 14.605469 263.527344 14.46875 263.648438 14.347656 C 263.769531 14.222656 263.910156 14.128906 264.066406 14.066406 C 264.226562 14 264.390625 13.964844 264.5625 13.964844 C 264.734375 13.964844 264.898438 14 265.058594 14.066406 C 265.21875 14.128906 265.359375 14.222656 265.480469 14.347656 C 265.601562 14.46875 265.695312 14.605469 265.761719 14.765625 C 265.824219 14.925781 265.859375 15.089844 265.859375 15.261719 C 265.859375 15.433594 265.824219 15.597656 265.761719 15.757812 C 265.695312 15.914062 265.601562 16.054688 265.480469 16.175781 C 265.359375 16.296875 265.21875 16.390625 265.058594 16.457031 C 264.898438 16.523438 264.734375 16.554688 264.5625 16.554688 Z M 264.5625 16.554688 " fill-opacity="1" fill-rule="nonzero"/><path fill="#5b83f9" d="M 258.660156 19.171875 C 257.652344 18.722656 256.601562 18.5 255.5 18.5 L 251.613281 18.5 C 251.105469 18.5 250.597656 18.546875 250.097656 18.648438 C 249.597656 18.746094 249.113281 18.894531 248.640625 19.089844 C 248.171875 19.285156 247.722656 19.523438 247.296875 19.808594 C 246.875 20.089844 246.480469 20.414062 246.121094 20.773438 C 245.761719 21.136719 245.4375 21.527344 245.15625 21.953125 C 244.871094 22.375 244.632812 22.824219 244.4375 23.292969 C 244.242188 23.765625 244.09375 24.25 243.996094 24.753906 C 243.894531 25.253906 243.84375 25.757812 243.84375 26.269531 L 243.84375 28.859375 L 260.679688 28.859375 L 260.679688 21.722656 C 259.792969 21.042969 259.117188 20.191406 258.660156 19.171875 Z M 258.660156 19.171875 " fill-opacity="1" fill-rule="nonzero"/><g clip-path="url(#d2d237e762)"><path fill="#4285f4" d="M 224.328125 18.835938 C 224.328125 17.863281 224.242188 16.9375 224.09375 16.035156 L 210.15625 16.035156 L 210.15625 21.597656 L 218.136719 21.597656 C 217.777344 23.425781 216.730469 24.96875 215.175781 26.015625 L 215.175781 29.714844 L 219.9375 29.714844 C 222.726562 27.136719 224.328125 23.339844 224.328125 18.835938 Z M 224.328125 18.835938 " fill-opacity="1" fill-rule="nonzero"/></g><g clip-path="url(#2ddbbed3e0)"><path fill="#34a853" d="M 210.15625 33.304688 C 214.152344 33.304688 217.496094 31.972656 219.9375 29.714844 L 215.175781 26.015625 C 213.84375 26.902344 212.152344 27.445312 210.15625 27.445312 C 206.292969 27.445312 203.023438 24.84375 201.851562 21.328125 L 196.945312 21.328125 L 196.945312 25.140625 C 199.375 29.976562 204.371094 33.304688 210.15625 33.304688 Z M 210.15625 33.304688 " fill-opacity="1" fill-rule="nonzero"/></g><g clip-path="url(#2200bf0549)"><path fill="#fbbc05" d="M 201.851562 21.328125 C 201.546875 20.441406 201.382812 19.488281 201.382812 18.503906 C 201.382812 17.515625 201.558594 16.566406 201.851562 15.679688 L 201.851562 11.867188 L 196.945312 11.867188 C 195.933594 13.863281 195.351562 16.109375 195.351562 18.503906 C 195.351562 20.894531 195.933594 23.140625 196.945312 25.140625 Z M 201.851562 21.328125 " fill-opacity="1" fill-rule="nonzero"/></g><g clip-path="url(#7476ab97f1)"><path fill="#ea4335" d="M 210.15625 9.558594 C 212.339844 9.558594 214.289062 10.3125 215.828125 11.78125 L 220.046875 7.5625 C 217.496094 5.167969 214.152344 3.699219 210.15625 3.699219 C 204.371094 3.699219 199.375 7.03125 196.945312 11.867188 L 201.851562 15.679688 C 203.023438 12.164062 206.292969 9.558594 210.15625 9.558594 Z M 210.15625 9.558594 " fill-opacity="1" fill-rule="nonzero"/></g><g fill="#7f7f8b" fill-opacity="1"><g transform="translate(38.307426, 26.274671)"><g><path d="M 10.480469 -12.476562 L 12.886719 -12.574219 C 12.453125 -15.648438 9.761719 -16.996094 7.164062 -16.996094 C 5.214844 -16.996094 3.195312 -16.226562 2.066406 -14.761719 C 1.441406 -13.941406 1.128906 -12.980469 1.128906 -11.972656 C 1.128906 -11.851562 1.152344 -11.707031 1.152344 -11.5625 L 1.152344 -11.585938 C 1.417969 -8.078125 4.496094 -7.5 7.117188 -7.234375 C 8.796875 -7.066406 10.527344 -6.851562 10.816406 -5.578125 C 10.867188 -5.359375 10.890625 -5.167969 10.890625 -5 C 10.890625 -3.269531 8.917969 -2.257812 7.117188 -2.257812 C 5.554688 -2.257812 3.652344 -3.078125 3.484375 -4.640625 L 3.484375 -4.542969 L 3.460938 -4.902344 L 1.007812 -4.855469 L 1.035156 -4.398438 C 1.347656 -1.394531 4.496094 0.144531 7.089844 0.144531 C 10.121094 0.144531 13.34375 -1.730469 13.34375 -4.976562 C 13.34375 -5.3125 13.292969 -5.722656 13.222656 -6.082031 C 12.574219 -8.773438 9.710938 -9.375 7.402344 -9.664062 C 5.527344 -9.832031 3.582031 -10.074219 3.582031 -12.019531 C 3.582031 -12.5 3.703125 -12.980469 3.992188 -13.34375 C 4.6875 -14.230469 5.960938 -14.617188 7.117188 -14.617188 C 8.558594 -14.617188 10.144531 -13.96875 10.480469 -12.476562 Z M 10.480469 -12.476562 "/></g></g></g><g fill="#7f7f8b" fill-opacity="1"><g transform="translate(54.529224, 26.274671)"><g><path d="M 15.410156 -16.996094 L 12.8125 -16.996094 L 7.691406 -4.230469 L 2.621094 -16.996094 L -0.0234375 -16.996094 L 6.804688 0.046875 L 8.582031 0.046875 Z M 15.410156 -16.996094 "/></g></g></g><g fill="#7f7f8b" fill-opacity="1"><g transform="translate(71.664203, 26.274671)"><g><path d="M 12.332031 -2.429688 L 4.519531 -2.429688 L 4.519531 -7.378906 L 12.140625 -7.378906 L 12.140625 -9.832031 L 4.519531 -9.832031 L 4.519531 -14.566406 L 12.308594 -14.566406 L 12.308594 -16.996094 L 2.066406 -16.996094 L 2.066406 0 L 12.332031 0 Z M 12.332031 -2.429688 "/></g></g></g><g fill="#7f7f8b" fill-opacity="1"><g transform="translate(86.996842, 26.274671)"><g><path d="M 12.40625 -2.429688 L 4.496094 -2.429688 L 4.496094 -16.828125 L 2.066406 -16.828125 L 2.066406 0 L 12.40625 0 Z M 12.40625 -2.429688 "/></g></g></g><g fill="#7f7f8b" fill-opacity="1"><g transform="translate(101.440328, 26.274671)"><g><path d="M 5.242188 -14.6875 L 5.242188 0 L 7.667969 0 L 7.667969 -14.6875 L 12.742188 -14.6875 L 12.742188 -16.996094 L 0.144531 -16.996094 L 0.144531 -14.6875 Z M 5.242188 -14.6875 "/></g></g></g><g fill="#7f7f8b" fill-opacity="1"><g transform="translate(116.268312, 26.274671)"><g><path d="M 12.332031 -2.429688 L 4.519531 -2.429688 L 4.519531 -7.378906 L 12.140625 -7.378906 L 12.140625 -9.832031 L 4.519531 -9.832031 L 4.519531 -14.566406 L 12.308594 -14.566406 L 12.308594 -16.996094 L 2.066406 -16.996094 L 2.066406 0 L 12.332031 0 Z M 12.332031 -2.429688 "/></g></g></g><g fill="#d6d4d4" fill-opacity="1"><g transform="translate(131.61026, 26.274671)"><g><path d="M 4.472656 0 L 4.472656 -16.828125 L 2.066406 -16.828125 L 2.066406 0 Z M 10.792969 -16.828125 L 4.929688 -9.015625 L 4.929688 -7.789062 L 11.347656 0 L 14.472656 0 L 7.378906 -8.460938 L 13.796875 -16.828125 Z M 10.792969 -16.828125 "/></g></g></g><g fill="#d6d4d4" fill-opacity="1"><g transform="translate(147.85609, 26.274671)"><g><path d="M 7.621094 -14.734375 L 10.746094 -14.734375 L 10.746094 -16.972656 L 2.066406 -16.972656 L 2.066406 -14.734375 L 5.191406 -14.734375 L 5.191406 -2.257812 L 2.066406 -2.257812 L 2.066406 0 L 10.746094 0 L 10.746094 -2.257812 L 7.621094 -2.257812 Z M 7.621094 -14.734375 "/></g></g></g><g fill="#d6d4d4" fill-opacity="1"><g transform="translate(162.563925, 26.274671)"><g><path d="M 5.242188 -14.6875 L 5.242188 0 L 7.667969 0 L 7.667969 -14.6875 L 12.742188 -14.6875 L 12.742188 -16.996094 L 0.144531 -16.996094 L 0.144531 -14.6875 Z M 5.242188 -14.6875 "/></g></g></g></svg>