<svg xmlns="http://www.w3.org/2000/svg" xmlns:xlink="http://www.w3.org/1999/xlink" width="550" zoomAndPan="magnify" viewBox="0 0 412.5 37.5" height="50" preserveAspectRatio="xMidYMid meet" version="1.0"><defs><g/><clipPath id="d0711f9213"><path d="M 135 10 L 171.957031 10 L 171.957031 27 L 135 27 Z M 135 10 " clip-rule="nonzero"/></clipPath><clipPath id="17dd0ff3cd"><path d="M 6.167969 3.699219 L 32 3.699219 L 32 33.304688 L 6.167969 33.304688 Z M 6.167969 3.699219 " clip-rule="nonzero"/></clipPath><clipPath id="962f25209b"><path d="M 210 16 L 224.644531 16 L 224.644531 30 L 210 30 Z M 210 16 " clip-rule="nonzero"/></clipPath><clipPath id="798886a369"><path d="M 196 21 L 220 21 L 220 33.304688 L 196 33.304688 Z M 196 21 " clip-rule="nonzero"/></clipPath><clipPath id="4cec5f9e22"><path d="M 195.039062 11 L 202 11 L 202 26 L 195.039062 26 Z M 195.039062 11 " clip-rule="nonzero"/></clipPath><clipPath id="e4d94f9209"><path d="M 196 3.699219 L 221 3.699219 L 221 16 L 196 16 Z M 196 3.699219 " clip-rule="nonzero"/></clipPath></defs><g clip-path="url(#d0711f9213)"><path fill="#8d8d93" d="M 144.609375 26.289062 L 140.203125 18.078125 L 137.425781 21.441406 L 137.425781 26.289062 L 135.097656 26.289062 L 135.097656 10.585938 L 137.425781 10.585938 L 137.425781 18.191406 L 143.46875 10.585938 L 146.15625 10.585938 L 141.769531 16.105469 L 147.339844 26.289062 Z M 152.375 26.289062 L 152.375 10.585938 L 154.703125 10.585938 L 154.703125 26.289062 Z M 166.832031 12.832031 L 166.832031 26.289062 L 164.503906 26.289062 L 164.503906 12.832031 L 160.074219 12.832031 L 160.074219 10.585938 L 171.265625 10.585938 L 171.265625 12.832031 Z M 166.832031 12.832031 " fill-opacity="1" fill-rule="nonzero"/></g><path fill="#4a4a55" d="M 46.101562 26.558594 C 44.824219 26.589844 43.566406 26.234375 42.496094 25.535156 C 41.496094 24.875 40.753906 23.890625 40.394531 22.742188 L 42.585938 21.9375 C 42.890625 22.640625 43.386719 23.242188 44.019531 23.671875 C 44.660156 24.105469 45.417969 24.328125 46.191406 24.3125 C 46.933594 24.351562 47.664062 24.128906 48.261719 23.683594 C 48.785156 23.242188 49.070312 22.578125 49.03125 21.890625 C 49.035156 21.574219 48.960938 21.261719 48.820312 20.980469 C 48.695312 20.730469 48.535156 20.5 48.339844 20.296875 C 48.09375 20.074219 47.8125 19.886719 47.511719 19.75 C 47.136719 19.5625 46.828125 19.417969 46.582031 19.320312 C 46.335938 19.222656 45.972656 19.09375 45.496094 18.929688 C 44.898438 18.71875 44.453125 18.554688 44.152344 18.4375 C 43.75 18.265625 43.355469 18.066406 42.976562 17.84375 C 42.570312 17.625 42.199219 17.34375 41.882812 17.011719 C 41.605469 16.6875 41.382812 16.320312 41.222656 15.925781 C 40.585938 14.378906 41.011719 12.597656 42.273438 11.507812 C 43.167969 10.714844 44.382812 10.316406 45.921875 10.316406 C 47.203125 10.316406 48.257812 10.601562 49.085938 11.167969 C 49.890625 11.703125 50.480469 12.507812 50.753906 13.433594 L 48.605469 14.152344 C 48.390625 13.667969 48.027344 13.261719 47.566406 12.996094 C 47.007812 12.6875 46.378906 12.535156 45.742188 12.558594 C 45.117188 12.523438 44.5 12.699219 43.984375 13.054688 C 43.558594 13.382812 43.320312 13.902344 43.347656 14.445312 C 43.351562 14.855469 43.527344 15.25 43.839844 15.519531 C 44.136719 15.8125 44.484375 16.050781 44.867188 16.214844 C 45.226562 16.367188 45.769531 16.566406 46.503906 16.820312 C 46.949219 16.984375 47.28125 17.109375 47.496094 17.191406 C 47.714844 17.273438 48.03125 17.410156 48.449219 17.605469 C 48.785156 17.753906 49.105469 17.929688 49.410156 18.132812 C 49.683594 18.328125 49.945312 18.542969 50.195312 18.773438 C 50.464844 19.007812 50.695312 19.28125 50.878906 19.589844 C 51.050781 19.910156 51.1875 20.25 51.28125 20.597656 C 51.394531 21.011719 51.449219 21.4375 51.449219 21.867188 C 51.449219 23.332031 50.949219 24.480469 49.949219 25.308594 C 48.949219 26.140625 47.667969 26.554688 46.101562 26.558594 Z M 60.445312 26.289062 L 55.074219 10.585938 L 57.582031 10.585938 L 61.140625 21.53125 C 61.335938 22.121094 61.5 22.71875 61.632812 23.328125 C 61.761719 22.71875 61.929688 22.121094 62.125 21.53125 L 65.636719 10.585938 L 68.121094 10.585938 L 62.773438 26.289062 Z M 72.867188 26.289062 L 72.867188 10.585938 L 82.582031 10.585938 L 82.582031 12.785156 L 75.195312 12.785156 L 75.195312 17.09375 L 79.960938 17.09375 L 79.960938 19.289062 L 75.195312 19.289062 L 75.195312 24.089844 L 83.074219 24.089844 L 83.074219 26.289062 Z M 89.003906 26.289062 L 89.003906 10.585938 L 91.332031 10.585938 L 91.332031 24.042969 L 98.984375 24.042969 L 98.984375 26.289062 Z M 107.757812 12.832031 L 107.757812 26.289062 L 105.429688 26.289062 L 105.429688 12.832031 L 101 12.832031 L 101 10.585938 L 112.1875 10.585938 L 112.1875 12.832031 Z M 117 26.289062 L 117 10.585938 L 126.714844 10.585938 L 126.714844 12.785156 L 119.328125 12.785156 L 119.328125 17.09375 L 124.09375 17.09375 L 124.09375 19.289062 L 119.328125 19.289062 L 119.328125 24.089844 L 127.207031 24.089844 L 127.207031 26.289062 Z M 117 26.289062 " fill-opacity="1" fill-rule="nonzero"/><g clip-path="url(#17dd0ff3cd)"><path fill="#ff3e00" d="M 29.777344 7.601562 C 27.042969 3.683594 21.648438 2.523438 17.75 5.011719 L 10.898438 9.386719 C 9.027344 10.566406 7.738281 12.484375 7.347656 14.664062 C 7.023438 16.480469 7.308594 18.355469 8.164062 19.988281 C 7.578125 20.878906 7.179688 21.882812 6.988281 22.933594 C 6.59375 25.152344 7.109375 27.441406 8.421875 29.277344 C 11.152344 33.199219 16.546875 34.359375 20.445312 31.867188 L 27.296875 27.492188 C 29.167969 26.3125 30.457031 24.398438 30.847656 22.21875 C 31.175781 20.398438 30.886719 18.527344 30.03125 16.890625 C 30.617188 16 31.015625 15 31.207031 13.949219 C 31.601562 11.726562 31.085938 9.4375 29.777344 7.601562 " fill-opacity="1" fill-rule="nonzero"/></g><path fill="#ffffff" d="M 17.082031 29.648438 C 14.871094 30.222656 12.539062 29.355469 11.242188 27.476562 C 10.453125 26.375 10.144531 25 10.378906 23.660156 C 10.417969 23.445312 10.472656 23.230469 10.542969 23.019531 L 10.671875 22.625 L 11.023438 22.882812 C 11.832031 23.480469 12.738281 23.933594 13.703125 24.226562 L 13.957031 24.304688 L 13.933594 24.558594 C 13.902344 24.921875 14 25.28125 14.210938 25.578125 C 14.601562 26.144531 15.304688 26.40625 15.96875 26.234375 C 16.117188 26.195312 16.261719 26.132812 16.390625 26.050781 L 23.242188 21.671875 C 23.578125 21.457031 23.8125 21.113281 23.882812 20.71875 C 23.953125 20.3125 23.859375 19.898438 23.625 19.566406 C 23.234375 19 22.53125 18.738281 21.863281 18.910156 C 21.714844 18.953125 21.574219 19.011719 21.445312 19.097656 L 18.832031 20.765625 C 18.398438 21.039062 17.929688 21.246094 17.4375 21.378906 C 15.230469 21.953125 12.898438 21.085938 11.597656 19.207031 C 10.8125 18.105469 10.5 16.730469 10.738281 15.390625 C 10.972656 14.082031 11.75 12.929688 12.875 12.222656 L 19.722656 7.84375 C 20.15625 7.570312 20.625 7.363281 21.117188 7.234375 C 23.324219 6.65625 25.65625 7.523438 26.957031 9.402344 C 27.742188 10.507812 28.054688 11.882812 27.816406 13.21875 C 27.777344 13.4375 27.722656 13.652344 27.652344 13.859375 L 27.523438 14.253906 L 27.171875 13.996094 C 26.363281 13.402344 25.457031 12.945312 24.492188 12.65625 L 24.238281 12.578125 L 24.261719 12.324219 C 24.292969 11.960938 24.195312 11.597656 23.988281 11.300781 C 23.59375 10.738281 22.894531 10.476562 22.226562 10.648438 C 22.078125 10.6875 21.9375 10.75 21.808594 10.832031 L 14.957031 15.207031 C 14.617188 15.421875 14.382812 15.769531 14.3125 16.164062 C 14.242188 16.566406 14.335938 16.980469 14.574219 17.3125 C 14.964844 17.878906 15.667969 18.140625 16.332031 17.96875 C 16.480469 17.929688 16.621094 17.867188 16.753906 17.785156 L 19.367188 16.113281 C 19.796875 15.839844 20.265625 15.632812 20.757812 15.503906 C 22.964844 14.925781 25.296875 15.792969 26.597656 17.671875 C 27.382812 18.773438 27.695312 20.152344 27.457031 21.488281 C 27.222656 22.796875 26.449219 23.949219 25.320312 24.660156 L 18.472656 29.035156 C 18.042969 29.308594 17.574219 29.515625 17.082031 29.648438 " fill-opacity="1" fill-rule="nonzero"/><g fill="#4438ca" fill-opacity="1"><g transform="translate(275.92079, 27.098227)"><g><path d="M 8.222656 -16.828125 L 2.066406 -16.828125 L 2.066406 0 L 4.519531 0 L 4.519531 -5.601562 L 8.222656 -5.601562 C 11.851562 -5.601562 13.679688 -8.390625 13.679688 -11.203125 C 13.679688 -14.015625 11.851562 -16.828125 8.222656 -16.828125 Z M 8.222656 -8.003906 L 4.519531 -8.003906 L 4.519531 -14.375 L 8.222656 -14.375 C 10.265625 -14.375 11.273438 -12.789062 11.273438 -11.179688 C 11.273438 -9.589844 10.265625 -8.003906 8.222656 -8.003906 Z M 8.222656 -8.003906 "/></g></g></g><g fill="#4438ca" fill-opacity="1"><g transform="translate(292.118555, 27.098227)"><g><path d="M 4.160156 -4.253906 L 10.984375 -4.253906 L 12.597656 0 L 15.191406 0 L 8.4375 -17.042969 L 6.660156 -17.042969 L -0.0976562 0 L 2.523438 0 Z M 10.097656 -6.539062 L 5.046875 -6.539062 L 7.574219 -13.171875 Z M 10.097656 -6.539062 "/></g></g></g><g fill="#4438ca" fill-opacity="1"><g transform="translate(309.277567, 27.098227)"><g><path d="M 10.480469 -12.476562 L 12.886719 -12.574219 C 12.453125 -15.648438 9.761719 -16.996094 7.164062 -16.996094 C 5.214844 -16.996094 3.195312 -16.226562 2.066406 -14.761719 C 1.441406 -13.941406 1.128906 -12.980469 1.128906 -11.972656 C 1.128906 -11.851562 1.152344 -11.707031 1.152344 -11.5625 L 1.152344 -11.585938 C 1.417969 -8.078125 4.496094 -7.5 7.117188 -7.234375 C 8.796875 -7.066406 10.527344 -6.851562 10.816406 -5.578125 C 10.867188 -5.359375 10.890625 -5.167969 10.890625 -5 C 10.890625 -3.269531 8.917969 -2.257812 7.117188 -2.257812 C 5.554688 -2.257812 3.652344 -3.078125 3.484375 -4.640625 L 3.484375 -4.542969 L 3.460938 -4.902344 L 1.007812 -4.855469 L 1.035156 -4.398438 C 1.347656 -1.394531 4.496094 0.144531 7.089844 0.144531 C 10.121094 0.144531 13.34375 -1.730469 13.34375 -4.976562 C 13.34375 -5.3125 13.292969 -5.722656 13.222656 -6.082031 C 12.574219 -8.773438 9.710938 -9.375 7.402344 -9.664062 C 5.527344 -9.832031 3.582031 -10.074219 3.582031 -12.019531 C 3.582031 -12.5 3.703125 -12.980469 3.992188 -13.34375 C 4.6875 -14.230469 5.960938 -14.617188 7.117188 -14.617188 C 8.558594 -14.617188 10.144531 -13.96875 10.480469 -12.476562 Z M 10.480469 -12.476562 "/></g></g></g><g fill="#4438ca" fill-opacity="1"><g transform="translate(325.499366, 27.098227)"><g><path d="M 10.480469 -12.476562 L 12.886719 -12.574219 C 12.453125 -15.648438 9.761719 -16.996094 7.164062 -16.996094 C 5.214844 -16.996094 3.195312 -16.226562 2.066406 -14.761719 C 1.441406 -13.941406 1.128906 -12.980469 1.128906 -11.972656 C 1.128906 -11.851562 1.152344 -11.707031 1.152344 -11.5625 L 1.152344 -11.585938 C 1.417969 -8.078125 4.496094 -7.5 7.117188 -7.234375 C 8.796875 -7.066406 10.527344 -6.851562 10.816406 -5.578125 C 10.867188 -5.359375 10.890625 -5.167969 10.890625 -5 C 10.890625 -3.269531 8.917969 -2.257812 7.117188 -2.257812 C 5.554688 -2.257812 3.652344 -3.078125 3.484375 -4.640625 L 3.484375 -4.542969 L 3.460938 -4.902344 L 1.007812 -4.855469 L 1.035156 -4.398438 C 1.347656 -1.394531 4.496094 0.144531 7.089844 0.144531 C 10.121094 0.144531 13.34375 -1.730469 13.34375 -4.976562 C 13.34375 -5.3125 13.292969 -5.722656 13.222656 -6.082031 C 12.574219 -8.773438 9.710938 -9.375 7.402344 -9.664062 C 5.527344 -9.832031 3.582031 -10.074219 3.582031 -12.019531 C 3.582031 -12.5 3.703125 -12.980469 3.992188 -13.34375 C 4.6875 -14.230469 5.960938 -14.617188 7.117188 -14.617188 C 8.558594 -14.617188 10.144531 -13.96875 10.480469 -12.476562 Z M 10.480469 -12.476562 "/></g></g></g><g fill="#232323" fill-opacity="1"><g transform="translate(341.723111, 27.098227)"><g><path d="M 4.472656 0 L 4.472656 -16.828125 L 2.066406 -16.828125 L 2.066406 0 Z M 10.792969 -16.828125 L 4.929688 -9.015625 L 4.929688 -7.789062 L 11.347656 0 L 14.472656 0 L 7.378906 -8.460938 L 13.796875 -16.828125 Z M 10.792969 -16.828125 "/></g></g></g><g fill="#232323" fill-opacity="1"><g transform="translate(357.968941, 27.098227)"><g><path d="M 12.332031 -2.429688 L 4.519531 -2.429688 L 4.519531 -7.378906 L 12.140625 -7.378906 L 12.140625 -9.832031 L 4.519531 -9.832031 L 4.519531 -14.566406 L 12.308594 -14.566406 L 12.308594 -16.996094 L 2.066406 -16.996094 L 2.066406 0 L 12.332031 0 Z M 12.332031 -2.429688 "/></g></g></g><g fill="#232323" fill-opacity="1"><g transform="translate(373.301578, 27.098227)"><g><path d="M 7.234375 -9.421875 L 2.5 -17.140625 L -0.359375 -17.140625 L 6.011719 -6.851562 L 6.011719 0 L 8.460938 0 L 8.460938 -6.851562 L 14.90625 -17.140625 L 12.019531 -17.140625 Z M 7.234375 -9.421875 "/></g></g></g><g fill="#232323" fill-opacity="1"><g transform="translate(389.715626, 27.098227)"><g><path d="M 10.480469 -12.476562 L 12.886719 -12.574219 C 12.453125 -15.648438 9.761719 -16.996094 7.164062 -16.996094 C 5.214844 -16.996094 3.195312 -16.226562 2.066406 -14.761719 C 1.441406 -13.941406 1.128906 -12.980469 1.128906 -11.972656 C 1.128906 -11.851562 1.152344 -11.707031 1.152344 -11.5625 L 1.152344 -11.585938 C 1.417969 -8.078125 4.496094 -7.5 7.117188 -7.234375 C 8.796875 -7.066406 10.527344 -6.851562 10.816406 -5.578125 C 10.867188 -5.359375 10.890625 -5.167969 10.890625 -5 C 10.890625 -3.269531 8.917969 -2.257812 7.117188 -2.257812 C 5.554688 -2.257812 3.652344 -3.078125 3.484375 -4.640625 L 3.484375 -4.542969 L 3.460938 -4.902344 L 1.007812 -4.855469 L 1.035156 -4.398438 C 1.347656 -1.394531 4.496094 0.144531 7.089844 0.144531 C 10.121094 0.144531 13.34375 -1.730469 13.34375 -4.976562 C 13.34375 -5.3125 13.292969 -5.722656 13.222656 -6.082031 C 12.574219 -8.773438 9.710938 -9.375 7.402344 -9.664062 C 5.527344 -9.832031 3.582031 -10.074219 3.582031 -12.019531 C 3.582031 -12.5 3.703125 -12.980469 3.992188 -13.34375 C 4.6875 -14.230469 5.960938 -14.617188 7.117188 -14.617188 C 8.558594 -14.617188 10.144531 -13.96875 10.480469 -12.476562 Z M 10.480469 -12.476562 "/></g></g></g><path fill="#4438ca" d="M 259.382812 11.46875 C 259.382812 11.851562 259.347656 12.230469 259.273438 12.605469 C 259.199219 12.980469 259.085938 13.347656 258.941406 13.699219 C 258.792969 14.054688 258.613281 14.390625 258.402344 14.707031 C 258.1875 15.027344 257.949219 15.320312 257.675781 15.589844 C 257.40625 15.859375 257.113281 16.101562 256.792969 16.316406 C 256.476562 16.527344 256.140625 16.707031 255.785156 16.851562 C 255.433594 17 255.070312 17.109375 254.695312 17.183594 C 254.320312 17.257812 253.941406 17.296875 253.558594 17.296875 C 253.175781 17.296875 252.796875 17.257812 252.421875 17.183594 C 252.042969 17.109375 251.679688 17 251.328125 16.851562 C 250.972656 16.707031 250.636719 16.527344 250.320312 16.316406 C 250 16.101562 249.707031 15.859375 249.4375 15.589844 C 249.164062 15.320312 248.925781 15.027344 248.710938 14.707031 C 248.5 14.390625 248.320312 14.054688 248.171875 13.699219 C 248.027344 13.347656 247.917969 12.980469 247.84375 12.605469 C 247.765625 12.230469 247.730469 11.851562 247.730469 11.46875 C 247.730469 11.085938 247.765625 10.707031 247.84375 10.332031 C 247.917969 9.957031 248.027344 9.59375 248.171875 9.238281 C 248.320312 8.886719 248.5 8.550781 248.710938 8.234375 C 248.925781 7.914062 249.164062 7.621094 249.4375 7.351562 C 249.707031 7.078125 250 6.835938 250.320312 6.625 C 250.636719 6.414062 250.972656 6.234375 251.328125 6.085938 C 251.679688 5.941406 252.042969 5.828125 252.421875 5.753906 C 252.796875 5.679688 253.175781 5.644531 253.558594 5.644531 C 253.941406 5.644531 254.320312 5.679688 254.695312 5.753906 C 255.070312 5.828125 255.433594 5.941406 255.785156 6.085938 C 256.140625 6.234375 256.476562 6.414062 256.792969 6.625 C 257.113281 6.835938 257.40625 7.078125 257.675781 7.351562 C 257.949219 7.621094 258.1875 7.914062 258.402344 8.234375 C 258.613281 8.550781 258.792969 8.886719 258.941406 9.238281 C 259.085938 9.59375 259.199219 9.957031 259.273438 10.332031 C 259.347656 10.707031 259.382812 11.085938 259.382812 11.46875 Z M 259.382812 11.46875 " fill-opacity="1" fill-rule="nonzero"/><path fill="#4438ca" d="M 269.09375 17.296875 C 269.097656 16.753906 269.003906 16.226562 268.816406 15.714844 C 268.628906 15.207031 268.359375 14.746094 268.003906 14.332031 C 267.652344 13.917969 267.234375 13.582031 266.761719 13.316406 C 266.285156 13.054688 265.777344 12.882812 265.242188 12.800781 C 264.703125 12.71875 264.167969 12.734375 263.636719 12.84375 C 263.105469 12.957031 262.609375 13.15625 262.148438 13.445312 C 261.6875 13.738281 261.292969 14.097656 260.960938 14.527344 C 260.632812 14.960938 260.386719 15.4375 260.230469 15.957031 C 260.070312 16.476562 260.007812 17.007812 260.039062 17.550781 C 260.070312 18.09375 260.199219 18.613281 260.417969 19.113281 C 260.636719 19.609375 260.9375 20.050781 261.316406 20.441406 C 261.695312 20.832031 262.128906 21.144531 262.621094 21.375 L 262.621094 28.304688 L 264.5625 30.246094 L 267.800781 27.007812 L 265.859375 25.066406 L 267.800781 23.125 L 266.195312 21.519531 C 266.621094 21.355469 267.015625 21.128906 267.371094 20.847656 C 267.730469 20.5625 268.039062 20.234375 268.296875 19.855469 C 268.558594 19.480469 268.753906 19.074219 268.890625 18.636719 C 269.027344 18.199219 269.09375 17.753906 269.09375 17.296875 Z M 264.5625 17.296875 C 264.390625 17.296875 264.226562 17.265625 264.066406 17.199219 C 263.910156 17.132812 263.769531 17.039062 263.648438 16.917969 C 263.527344 16.796875 263.433594 16.65625 263.367188 16.496094 C 263.300781 16.339844 263.269531 16.175781 263.269531 16.003906 C 263.269531 15.832031 263.300781 15.664062 263.367188 15.507812 C 263.433594 15.347656 263.527344 15.207031 263.648438 15.085938 C 263.769531 14.964844 263.910156 14.871094 264.066406 14.804688 C 264.226562 14.738281 264.390625 14.707031 264.5625 14.707031 C 264.734375 14.707031 264.898438 14.738281 265.058594 14.804688 C 265.21875 14.871094 265.359375 14.964844 265.480469 15.085938 C 265.601562 15.207031 265.695312 15.347656 265.761719 15.507812 C 265.824219 15.664062 265.859375 15.832031 265.859375 16.003906 C 265.859375 16.175781 265.824219 16.339844 265.761719 16.496094 C 265.695312 16.65625 265.601562 16.796875 265.480469 16.917969 C 265.359375 17.039062 265.21875 17.132812 265.058594 17.199219 C 264.898438 17.265625 264.734375 17.296875 264.5625 17.296875 Z M 264.5625 17.296875 " fill-opacity="1" fill-rule="nonzero"/><path fill="#4438ca" d="M 258.660156 19.914062 C 257.652344 19.464844 256.601562 19.238281 255.5 19.238281 L 251.613281 19.238281 C 251.105469 19.238281 250.597656 19.289062 250.097656 19.390625 C 249.597656 19.488281 249.113281 19.636719 248.640625 19.832031 C 248.171875 20.027344 247.722656 20.265625 247.296875 20.546875 C 246.875 20.832031 246.480469 21.152344 246.121094 21.515625 C 245.761719 21.875 245.4375 22.269531 245.15625 22.691406 C 244.871094 23.117188 244.632812 23.5625 244.4375 24.035156 C 244.242188 24.507812 244.09375 24.992188 243.996094 25.492188 C 243.894531 25.992188 243.84375 26.5 243.84375 27.007812 L 243.84375 29.597656 L 260.679688 29.597656 L 260.679688 22.464844 C 259.792969 21.78125 259.117188 20.933594 258.660156 19.914062 Z M 258.660156 19.914062 " fill-opacity="1" fill-rule="nonzero"/><g clip-path="url(#962f25209b)"><path fill="#4285f4" d="M 224.328125 18.835938 C 224.328125 17.863281 224.242188 16.9375 224.09375 16.035156 L 210.15625 16.035156 L 210.15625 21.597656 L 218.136719 21.597656 C 217.777344 23.425781 216.730469 24.96875 215.175781 26.015625 L 215.175781 29.714844 L 219.9375 29.714844 C 222.726562 27.136719 224.328125 23.339844 224.328125 18.835938 Z M 224.328125 18.835938 " fill-opacity="1" fill-rule="nonzero"/></g><g clip-path="url(#798886a369)"><path fill="#34a853" d="M 210.15625 33.304688 C 214.152344 33.304688 217.496094 31.972656 219.9375 29.714844 L 215.175781 26.015625 C 213.84375 26.902344 212.152344 27.445312 210.15625 27.445312 C 206.292969 27.445312 203.023438 24.84375 201.851562 21.328125 L 196.945312 21.328125 L 196.945312 25.140625 C 199.375 29.976562 204.371094 33.304688 210.15625 33.304688 Z M 210.15625 33.304688 " fill-opacity="1" fill-rule="nonzero"/></g><g clip-path="url(#4cec5f9e22)"><path fill="#fbbc05" d="M 201.851562 21.328125 C 201.546875 20.441406 201.382812 19.488281 201.382812 18.503906 C 201.382812 17.515625 201.558594 16.566406 201.851562 15.679688 L 201.851562 11.867188 L 196.945312 11.867188 C 195.933594 13.863281 195.351562 16.109375 195.351562 18.503906 C 195.351562 20.894531 195.933594 23.140625 196.945312 25.140625 Z M 201.851562 21.328125 " fill-opacity="1" fill-rule="nonzero"/></g><g clip-path="url(#e4d94f9209)"><path fill="#ea4335" d="M 210.15625 9.558594 C 212.339844 9.558594 214.289062 10.3125 215.828125 11.78125 L 220.046875 7.5625 C 217.496094 5.167969 214.152344 3.699219 210.15625 3.699219 C 204.371094 3.699219 199.375 7.03125 196.945312 11.867188 L 201.851562 15.679688 C 203.023438 12.164062 206.292969 9.558594 210.15625 9.558594 Z M 210.15625 9.558594 " fill-opacity="1" fill-rule="nonzero"/></g></svg>