<svg xmlns="http://www.w3.org/2000/svg" xmlns:xlink="http://www.w3.org/1999/xlink" width="700" zoomAndPan="magnify" viewBox="0 0 525 52.499999" height="70" preserveAspectRatio="xMidYMid meet" version="1.0"><defs><g/><clipPath id="cadb9751e6"><path d="M 8 5.199219 L 44 5.199219 L 44 46.804688 L 8 46.804688 Z M 8 5.199219 " clip-rule="nonzero"/></clipPath><clipPath id="41104398b2"><path d="M 277 22 L 297.722656 22 L 297.722656 42 L 277 42 Z M 277 22 " clip-rule="nonzero"/></clipPath><clipPath id="c74eee0e8f"><path d="M 258 29 L 292 29 L 292 46.804688 L 258 46.804688 Z M 258 29 " clip-rule="nonzero"/></clipPath><clipPath id="eed6192fbb"><path d="M 256.121094 16 L 266 16 L 266 36 L 256.121094 36 Z M 256.121094 16 " clip-rule="nonzero"/></clipPath><clipPath id="0cfed5fe88"><path d="M 258 5.199219 L 292 5.199219 L 292 23 L 258 23 Z M 258 5.199219 " clip-rule="nonzero"/></clipPath></defs><path fill="#8d8d93" d="M 202.476562 36.941406 L 196.269531 25.40625 L 192.367188 30.132812 L 192.367188 36.941406 L 189.089844 36.941406 L 189.089844 14.878906 L 192.367188 14.878906 L 192.367188 25.5625 L 200.867188 14.878906 L 204.648438 14.878906 L 198.476562 22.632812 L 206.316406 36.941406 Z M 213.402344 36.941406 L 213.402344 14.878906 L 216.675781 14.878906 L 216.675781 36.941406 Z M 233.746094 18.03125 L 233.746094 36.941406 L 230.46875 36.941406 L 230.46875 18.03125 L 224.234375 18.03125 L 224.234375 14.878906 L 239.980469 14.878906 L 239.980469 18.03125 Z M 233.746094 18.03125 " fill-opacity="1" fill-rule="nonzero"/><path fill="#4a4a55" d="M 63.867188 37.320312 C 62.070312 37.363281 60.300781 36.863281 58.796875 35.886719 C 57.386719 34.957031 56.34375 33.570312 55.835938 31.960938 L 58.921875 30.828125 C 59.351562 31.816406 60.046875 32.660156 60.9375 33.269531 C 61.839844 33.875 62.90625 34.1875 63.992188 34.167969 C 65.035156 34.222656 66.066406 33.910156 66.90625 33.285156 C 67.644531 32.664062 68.046875 31.726562 67.992188 30.761719 C 67.996094 30.320312 67.894531 29.882812 67.691406 29.484375 C 67.515625 29.132812 67.289062 28.808594 67.015625 28.523438 C 66.667969 28.207031 66.277344 27.949219 65.851562 27.75 C 65.324219 27.488281 64.890625 27.289062 64.542969 27.152344 C 64.195312 27.015625 63.6875 26.832031 63.015625 26.601562 C 62.175781 26.308594 61.546875 26.078125 61.125 25.910156 C 60.558594 25.667969 60.003906 25.386719 59.472656 25.074219 C 58.898438 24.769531 58.378906 24.375 57.929688 23.90625 C 57.542969 23.449219 57.226562 22.933594 57 22.378906 C 56.109375 20.207031 56.703125 17.707031 58.480469 16.167969 C 59.738281 15.054688 61.449219 14.5 63.613281 14.5 C 65.417969 14.5 66.902344 14.898438 68.066406 15.695312 C 69.199219 16.449219 70.03125 17.574219 70.414062 18.878906 L 67.390625 19.886719 C 67.085938 19.207031 66.574219 18.636719 65.925781 18.265625 C 65.144531 17.828125 64.253906 17.617188 63.359375 17.648438 C 62.480469 17.601562 61.613281 17.84375 60.886719 18.34375 C 60.289062 18.808594 59.953125 19.539062 59.992188 20.296875 C 59.996094 20.878906 60.246094 21.429688 60.683594 21.8125 C 61.101562 22.222656 61.59375 22.554688 62.132812 22.789062 C 62.636719 22.996094 63.402344 23.28125 64.429688 23.636719 C 65.058594 23.871094 65.527344 24.042969 65.832031 24.160156 C 66.136719 24.273438 66.582031 24.46875 67.171875 24.742188 C 67.640625 24.949219 68.09375 25.199219 68.523438 25.480469 C 68.910156 25.757812 69.277344 26.058594 69.625 26.378906 C 70.007812 26.710938 70.332031 27.097656 70.585938 27.53125 C 70.832031 27.976562 71.023438 28.453125 71.152344 28.949219 C 71.316406 29.527344 71.394531 30.128906 71.390625 30.730469 C 71.390625 32.789062 70.6875 34.402344 69.28125 35.566406 C 67.875 36.734375 66.070312 37.316406 63.867188 37.320312 Z M 84.050781 36.941406 L 76.492188 14.878906 L 80.019531 14.878906 L 85.027344 30.257812 C 85.304688 31.085938 85.535156 31.929688 85.71875 32.78125 C 85.90625 31.929688 86.136719 31.085938 86.414062 30.257812 L 91.355469 14.878906 L 94.851562 14.878906 L 87.324219 36.941406 Z M 101.527344 36.941406 L 101.527344 14.878906 L 115.195312 14.878906 L 115.195312 17.96875 L 104.804688 17.96875 L 104.804688 24.019531 L 111.511719 24.019531 L 111.511719 27.109375 L 104.804688 27.109375 L 104.804688 33.851562 L 115.890625 33.851562 L 115.890625 36.941406 Z M 124.234375 36.941406 L 124.234375 14.878906 L 127.507812 14.878906 L 127.507812 33.789062 L 138.277344 33.789062 L 138.277344 36.941406 Z M 150.621094 18.03125 L 150.621094 36.941406 L 147.347656 36.941406 L 147.347656 18.03125 L 141.109375 18.03125 L 141.109375 14.878906 L 156.855469 14.878906 L 156.855469 18.03125 Z M 163.625 36.941406 L 163.625 14.878906 L 177.292969 14.878906 L 177.292969 17.96875 L 166.902344 17.96875 L 166.902344 24.019531 L 173.609375 24.019531 L 173.609375 27.109375 L 166.902344 27.109375 L 166.902344 33.851562 L 177.988281 33.851562 L 177.988281 36.941406 Z M 163.625 36.941406 " fill-opacity="1" fill-rule="nonzero"/><g clip-path="url(#cadb9751e6)"><path fill="#ff3e00" d="M 40.898438 10.683594 C 37.054688 5.175781 29.460938 3.542969 23.976562 7.042969 L 14.335938 13.191406 C 11.703125 14.851562 9.890625 17.542969 9.339844 20.605469 C 8.878906 23.160156 9.285156 25.792969 10.488281 28.089844 C 9.664062 29.34375 9.101562 30.75 8.835938 32.226562 C 8.28125 35.347656 9.003906 38.5625 10.847656 41.144531 C 14.691406 46.652344 22.28125 48.285156 27.769531 44.78125 L 37.40625 38.632812 C 40.039062 36.976562 41.855469 34.285156 42.402344 31.222656 C 42.863281 28.667969 42.460938 26.035156 41.253906 23.738281 C 42.082031 22.484375 42.644531 21.078125 42.910156 19.601562 C 43.464844 16.480469 42.738281 13.261719 40.894531 10.683594 " fill-opacity="1" fill-rule="nonzero"/></g><path fill="#ffffff" d="M 23.03125 41.664062 C 19.925781 42.472656 16.644531 41.253906 14.816406 38.613281 C 13.707031 37.0625 13.273438 35.128906 13.605469 33.25 C 13.660156 32.945312 13.738281 32.644531 13.835938 32.351562 L 14.015625 31.796875 L 14.511719 32.160156 C 15.652344 32.996094 16.925781 33.636719 18.28125 34.046875 L 18.636719 34.152344 L 18.605469 34.511719 C 18.5625 35.019531 18.699219 35.53125 18.992188 35.945312 C 19.546875 36.742188 20.535156 37.109375 21.46875 36.867188 C 21.679688 36.808594 21.878906 36.722656 22.0625 36.605469 L 31.699219 30.457031 C 32.175781 30.15625 32.503906 29.667969 32.605469 29.113281 C 32.707031 28.546875 32.574219 27.964844 32.242188 27.496094 C 31.691406 26.699219 30.699219 26.332031 29.765625 26.578125 C 29.554688 26.632812 29.355469 26.71875 29.171875 26.835938 L 25.496094 29.183594 C 24.890625 29.566406 24.230469 29.855469 23.535156 30.042969 C 20.429688 30.851562 17.148438 29.632812 15.320312 26.992188 C 14.210938 25.441406 13.773438 23.507812 14.109375 21.628906 C 14.4375 19.789062 15.53125 18.167969 17.117188 17.171875 L 26.753906 11.023438 C 27.359375 10.640625 28.019531 10.347656 28.710938 10.164062 C 31.820312 9.355469 35.097656 10.574219 36.929688 13.210938 C 38.035156 14.765625 38.472656 16.699219 38.140625 18.574219 C 38.082031 18.882812 38.007812 19.183594 37.910156 19.476562 L 37.726562 20.03125 L 37.234375 19.671875 C 36.09375 18.832031 34.820312 18.195312 33.464844 17.785156 L 33.105469 17.675781 L 33.140625 17.316406 C 33.183594 16.808594 33.042969 16.300781 32.75 15.882812 C 32.199219 15.089844 31.210938 14.722656 30.277344 14.964844 C 30.066406 15.019531 29.867188 15.105469 29.683594 15.222656 L 20.042969 21.371094 C 19.566406 21.671875 19.238281 22.160156 19.140625 22.714844 C 19.039062 23.28125 19.171875 23.863281 19.503906 24.332031 C 20.054688 25.125 21.042969 25.492188 21.980469 25.25 C 22.1875 25.195312 22.386719 25.109375 22.570312 24.992188 L 26.25 22.644531 C 26.855469 22.261719 27.515625 21.96875 28.207031 21.785156 C 31.3125 20.976562 34.59375 22.195312 36.421875 24.832031 C 37.53125 26.382812 37.96875 28.316406 37.632812 30.195312 C 37.304688 32.039062 36.210938 33.65625 34.628906 34.652344 L 24.992188 40.800781 C 24.386719 41.1875 23.726562 41.476562 23.03125 41.664062 " fill-opacity="1" fill-rule="nonzero"/><g fill="#4438ca" fill-opacity="1"><g transform="translate(345.499076, 36.830797)"><g><path d="M 10.871094 -22.253906 L 2.734375 -22.253906 L 2.734375 0 L 5.976562 0 L 5.976562 -7.40625 L 10.871094 -7.40625 C 15.671875 -7.40625 18.089844 -11.09375 18.089844 -14.8125 C 18.089844 -18.535156 15.671875 -22.253906 10.871094 -22.253906 Z M 10.871094 -10.585938 L 5.976562 -10.585938 L 5.976562 -19.011719 L 10.871094 -19.011719 C 13.574219 -19.011719 14.910156 -16.914062 14.910156 -14.78125 C 14.910156 -12.683594 13.574219 -10.585938 10.871094 -10.585938 Z M 10.871094 -10.585938 "/></g></g></g><g fill="#4438ca" fill-opacity="1"><g transform="translate(366.922104, 36.830797)"><g><path d="M 5.5 -5.625 L 14.527344 -5.625 L 16.65625 0 L 20.089844 0 L 11.15625 -22.539062 L 8.804688 -22.539062 L -0.128906 0 L 3.339844 0 Z M 13.351562 -8.648438 L 6.675781 -8.648438 L 10.015625 -17.421875 Z M 13.351562 -8.648438 "/></g></g></g><g fill="#4438ca" fill-opacity="1"><g transform="translate(389.616467, 36.830797)"><g><path d="M 13.859375 -16.5 L 17.039062 -16.625 C 16.46875 -20.695312 12.90625 -22.476562 9.472656 -22.476562 C 6.898438 -22.476562 4.226562 -21.457031 2.734375 -19.519531 C 1.90625 -18.4375 1.492188 -17.167969 1.492188 -15.832031 C 1.492188 -15.671875 1.527344 -15.480469 1.527344 -15.289062 L 1.527344 -15.324219 C 1.875 -10.679688 5.945312 -9.917969 9.410156 -9.570312 C 11.636719 -9.347656 13.925781 -9.058594 14.304688 -7.375 C 14.367188 -7.089844 14.402344 -6.835938 14.402344 -6.613281 C 14.402344 -4.324219 11.792969 -2.988281 9.410156 -2.988281 C 7.34375 -2.988281 4.832031 -4.070312 4.609375 -6.136719 L 4.609375 -6.007812 L 4.578125 -6.484375 L 1.335938 -6.421875 L 1.367188 -5.816406 C 1.78125 -1.84375 5.945312 0.191406 9.378906 0.191406 C 13.382812 0.191406 17.644531 -2.289062 17.644531 -6.582031 C 17.644531 -7.027344 17.578125 -7.566406 17.484375 -8.042969 C 16.625 -11.601562 12.84375 -12.398438 9.792969 -12.78125 C 7.3125 -13.003906 4.738281 -13.320312 4.738281 -15.894531 C 4.738281 -16.53125 4.894531 -17.167969 5.277344 -17.644531 C 6.199219 -18.820312 7.882812 -19.328125 9.410156 -19.328125 C 11.316406 -19.328125 13.414062 -18.46875 13.859375 -16.5 Z M 13.859375 -16.5 "/></g></g></g><g fill="#4438ca" fill-opacity="1"><g transform="translate(411.071282, 36.830797)"><g><path d="M 13.859375 -16.5 L 17.039062 -16.625 C 16.46875 -20.695312 12.90625 -22.476562 9.472656 -22.476562 C 6.898438 -22.476562 4.226562 -21.457031 2.734375 -19.519531 C 1.90625 -18.4375 1.492188 -17.167969 1.492188 -15.832031 C 1.492188 -15.671875 1.527344 -15.480469 1.527344 -15.289062 L 1.527344 -15.324219 C 1.875 -10.679688 5.945312 -9.917969 9.410156 -9.570312 C 11.636719 -9.347656 13.925781 -9.058594 14.304688 -7.375 C 14.367188 -7.089844 14.402344 -6.835938 14.402344 -6.613281 C 14.402344 -4.324219 11.792969 -2.988281 9.410156 -2.988281 C 7.34375 -2.988281 4.832031 -4.070312 4.609375 -6.136719 L 4.609375 -6.007812 L 4.578125 -6.484375 L 1.335938 -6.421875 L 1.367188 -5.816406 C 1.78125 -1.84375 5.945312 0.191406 9.378906 0.191406 C 13.382812 0.191406 17.644531 -2.289062 17.644531 -6.582031 C 17.644531 -7.027344 17.578125 -7.566406 17.484375 -8.042969 C 16.625 -11.601562 12.84375 -12.398438 9.792969 -12.78125 C 7.3125 -13.003906 4.738281 -13.320312 4.738281 -15.894531 C 4.738281 -16.53125 4.894531 -17.167969 5.277344 -17.644531 C 6.199219 -18.820312 7.882812 -19.328125 9.410156 -19.328125 C 11.316406 -19.328125 13.414062 -18.46875 13.859375 -16.5 Z M 13.859375 -16.5 "/></g></g></g><g fill="#4438ca" fill-opacity="1"><g transform="translate(432.526094, 36.830797)"><g><path d="M 5.914062 0 L 5.914062 -22.253906 L 2.734375 -22.253906 L 2.734375 0 Z M 14.273438 -22.253906 L 6.515625 -11.921875 L 6.515625 -10.300781 L 15.003906 0 L 19.136719 0 L 9.757812 -11.191406 L 18.246094 -22.253906 Z M 14.273438 -22.253906 "/></g></g></g><g fill="#4438ca" fill-opacity="1"><g transform="translate(454.012686, 36.830797)"><g><path d="M 16.308594 -3.210938 L 5.976562 -3.210938 L 5.976562 -9.757812 L 16.054688 -9.757812 L 16.054688 -13.003906 L 5.976562 -13.003906 L 5.976562 -19.265625 L 16.277344 -19.265625 L 16.277344 -22.476562 L 2.734375 -22.476562 L 2.734375 0 L 16.308594 0 Z M 16.308594 -3.210938 "/></g></g></g><g fill="#4438ca" fill-opacity="1"><g transform="translate(474.291511, 36.830797)"><g><path d="M 9.570312 -12.460938 L 3.304688 -22.667969 L -0.476562 -22.667969 L 7.949219 -9.058594 L 7.949219 0 L 11.191406 0 L 11.191406 -9.058594 L 19.710938 -22.667969 L 15.894531 -22.667969 Z M 9.570312 -12.460938 "/></g></g></g><g fill="#4438ca" fill-opacity="1"><g transform="translate(496.000582, 36.830797)"><g><path d="M 13.859375 -16.5 L 17.039062 -16.625 C 16.46875 -20.695312 12.90625 -22.476562 9.472656 -22.476562 C 6.898438 -22.476562 4.226562 -21.457031 2.734375 -19.519531 C 1.90625 -18.4375 1.492188 -17.167969 1.492188 -15.832031 C 1.492188 -15.671875 1.527344 -15.480469 1.527344 -15.289062 L 1.527344 -15.324219 C 1.875 -10.679688 5.945312 -9.917969 9.410156 -9.570312 C 11.636719 -9.347656 13.925781 -9.058594 14.304688 -7.375 C 14.367188 -7.089844 14.402344 -6.835938 14.402344 -6.613281 C 14.402344 -4.324219 11.792969 -2.988281 9.410156 -2.988281 C 7.34375 -2.988281 4.832031 -4.070312 4.609375 -6.136719 L 4.609375 -6.007812 L 4.578125 -6.484375 L 1.335938 -6.421875 L 1.367188 -5.816406 C 1.78125 -1.84375 5.945312 0.191406 9.378906 0.191406 C 13.382812 0.191406 17.644531 -2.289062 17.644531 -6.582031 C 17.644531 -7.027344 17.578125 -7.566406 17.484375 -8.042969 C 16.625 -11.601562 12.84375 -12.398438 9.792969 -12.78125 C 7.3125 -13.003906 4.738281 -13.320312 4.738281 -15.894531 C 4.738281 -16.53125 4.894531 -17.167969 5.277344 -17.644531 C 6.199219 -18.820312 7.882812 -19.328125 9.410156 -19.328125 C 11.316406 -19.328125 13.414062 -18.46875 13.859375 -16.5 Z M 13.859375 -16.5 "/></g></g></g><path fill="#4438ca" d="M 327.683594 15.96875 C 327.683594 16.472656 327.632812 16.972656 327.535156 17.472656 C 327.433594 17.96875 327.289062 18.449219 327.09375 18.917969 C 326.902344 19.382812 326.664062 19.828125 326.382812 20.25 C 326.101562 20.671875 325.78125 21.058594 325.425781 21.417969 C 325.066406 21.777344 324.675781 22.09375 324.257812 22.375 C 323.835938 22.65625 323.390625 22.894531 322.921875 23.089844 C 322.457031 23.28125 321.972656 23.429688 321.476562 23.527344 C 320.980469 23.625 320.480469 23.675781 319.972656 23.675781 C 319.46875 23.675781 318.964844 23.625 318.46875 23.527344 C 317.972656 23.429688 317.492188 23.28125 317.023438 23.089844 C 316.554688 22.894531 316.109375 22.65625 315.691406 22.375 C 315.269531 22.09375 314.878906 21.777344 314.523438 21.417969 C 314.164062 21.058594 313.84375 20.671875 313.5625 20.25 C 313.28125 19.828125 313.042969 19.382812 312.851562 18.917969 C 312.65625 18.449219 312.511719 17.96875 312.410156 17.472656 C 312.3125 16.972656 312.265625 16.472656 312.265625 15.96875 C 312.265625 15.460938 312.3125 14.960938 312.410156 14.460938 C 312.511719 13.964844 312.65625 13.484375 312.851562 13.015625 C 313.042969 12.550781 313.28125 12.105469 313.5625 11.683594 C 313.84375 11.261719 314.164062 10.875 314.523438 10.515625 C 314.878906 10.15625 315.269531 9.839844 315.691406 9.558594 C 316.109375 9.277344 316.554688 9.039062 317.023438 8.84375 C 317.492188 8.652344 317.972656 8.503906 318.46875 8.40625 C 318.964844 8.308594 319.46875 8.257812 319.972656 8.257812 C 320.480469 8.257812 320.980469 8.308594 321.476562 8.40625 C 321.972656 8.503906 322.457031 8.652344 322.921875 8.84375 C 323.390625 9.039062 323.835938 9.277344 324.257812 9.558594 C 324.675781 9.839844 325.066406 10.15625 325.425781 10.515625 C 325.78125 10.875 326.101562 11.261719 326.382812 11.683594 C 326.664062 12.105469 326.902344 12.550781 327.09375 13.015625 C 327.289062 13.484375 327.433594 13.964844 327.535156 14.460938 C 327.632812 14.960938 327.683594 15.460938 327.683594 15.96875 Z M 327.683594 15.96875 " fill-opacity="1" fill-rule="nonzero"/><path fill="#4438ca" d="M 340.53125 23.675781 C 340.535156 22.957031 340.410156 22.257812 340.164062 21.585938 C 339.914062 20.910156 339.554688 20.300781 339.085938 19.753906 C 338.621094 19.207031 338.070312 18.757812 337.441406 18.410156 C 336.8125 18.0625 336.140625 17.832031 335.429688 17.726562 C 334.71875 17.617188 334.011719 17.640625 333.308594 17.785156 C 332.605469 17.933594 331.949219 18.199219 331.339844 18.582031 C 330.730469 18.964844 330.207031 19.441406 329.769531 20.015625 C 329.335938 20.585938 329.011719 21.214844 328.800781 21.902344 C 328.589844 22.589844 328.507812 23.292969 328.550781 24.011719 C 328.59375 24.730469 328.757812 25.417969 329.050781 26.078125 C 329.339844 26.734375 329.734375 27.320312 330.238281 27.835938 C 330.738281 28.351562 331.316406 28.765625 331.964844 29.074219 L 331.964844 38.238281 L 334.535156 40.808594 L 338.816406 36.523438 L 336.25 33.957031 L 338.816406 31.386719 L 336.695312 29.261719 C 337.257812 29.042969 337.777344 28.746094 338.25 28.371094 C 338.726562 27.996094 339.132812 27.5625 339.476562 27.0625 C 339.820312 26.5625 340.082031 26.027344 340.261719 25.449219 C 340.441406 24.871094 340.53125 24.28125 340.53125 23.675781 Z M 334.535156 23.675781 C 334.308594 23.675781 334.089844 23.632812 333.878906 23.546875 C 333.667969 23.457031 333.484375 23.335938 333.324219 23.175781 C 333.164062 23.015625 333.039062 22.828125 332.953125 22.617188 C 332.867188 22.410156 332.820312 22.191406 332.820312 21.964844 C 332.820312 21.734375 332.867188 21.515625 332.953125 21.308594 C 333.039062 21.097656 333.164062 20.914062 333.324219 20.75 C 333.484375 20.589844 333.667969 20.46875 333.878906 20.378906 C 334.089844 20.292969 334.308594 20.25 334.535156 20.25 C 334.761719 20.25 334.980469 20.292969 335.191406 20.378906 C 335.402344 20.46875 335.585938 20.589844 335.746094 20.75 C 335.90625 20.914062 336.03125 21.097656 336.117188 21.308594 C 336.203125 21.515625 336.25 21.734375 336.25 21.964844 C 336.25 22.191406 336.203125 22.410156 336.117188 22.617188 C 336.03125 22.828125 335.90625 23.015625 335.746094 23.175781 C 335.585938 23.335938 335.402344 23.457031 335.191406 23.546875 C 334.980469 23.632812 334.761719 23.675781 334.535156 23.675781 Z M 334.535156 23.675781 " fill-opacity="1" fill-rule="nonzero"/><path fill="#4438ca" d="M 326.722656 27.136719 C 325.394531 26.542969 324 26.246094 322.542969 26.246094 L 317.402344 26.246094 C 316.726562 26.246094 316.058594 26.3125 315.398438 26.445312 C 314.734375 26.574219 314.09375 26.769531 313.46875 27.027344 C 312.847656 27.285156 312.253906 27.601562 311.691406 27.976562 C 311.132812 28.351562 310.613281 28.78125 310.136719 29.257812 C 309.65625 29.734375 309.230469 30.253906 308.855469 30.8125 C 308.480469 31.375 308.164062 31.96875 307.90625 32.589844 C 307.648438 33.214844 307.453125 33.859375 307.320312 34.519531 C 307.191406 35.179688 307.125 35.851562 307.125 36.523438 L 307.125 39.953125 L 329.394531 39.953125 L 329.394531 30.511719 C 328.222656 29.609375 327.332031 28.484375 326.722656 27.136719 Z M 326.722656 27.136719 " fill-opacity="1" fill-rule="nonzero"/><g clip-path="url(#41104398b2)"><path fill="#4285f4" d="M 297.28125 26.46875 C 297.28125 25.101562 297.160156 23.800781 296.953125 22.535156 L 277.363281 22.535156 L 277.363281 30.351562 L 288.578125 30.351562 C 288.078125 32.917969 286.601562 35.085938 284.417969 36.558594 L 284.417969 41.761719 L 291.109375 41.761719 C 295.027344 38.136719 297.28125 32.796875 297.28125 26.46875 Z M 297.28125 26.46875 " fill-opacity="1" fill-rule="nonzero"/></g><g clip-path="url(#c74eee0e8f)"><path fill="#34a853" d="M 277.363281 46.804688 C 282.980469 46.804688 287.679688 44.933594 291.109375 41.761719 L 284.417969 36.558594 C 282.546875 37.808594 280.171875 38.570312 277.363281 38.570312 C 271.9375 38.570312 267.34375 34.914062 265.699219 29.972656 L 258.796875 29.972656 L 258.796875 35.328125 C 262.214844 42.125 269.234375 46.804688 277.363281 46.804688 Z M 277.363281 46.804688 " fill-opacity="1" fill-rule="nonzero"/></g><g clip-path="url(#eed6192fbb)"><path fill="#fbbc05" d="M 265.699219 29.972656 C 265.265625 28.722656 265.039062 27.390625 265.039062 26.003906 C 265.039062 24.617188 265.28125 23.28125 265.699219 22.03125 L 265.699219 16.675781 L 258.796875 16.675781 C 257.375 19.484375 256.5625 22.640625 256.5625 26.003906 C 256.5625 29.367188 257.375 32.519531 258.796875 35.328125 Z M 265.699219 29.972656 " fill-opacity="1" fill-rule="nonzero"/></g><g clip-path="url(#0cfed5fe88)"><path fill="#ea4335" d="M 277.363281 13.433594 C 280.433594 13.433594 283.171875 14.492188 285.335938 16.554688 L 291.265625 10.625 C 287.679688 7.261719 282.980469 5.199219 277.363281 5.199219 C 269.234375 5.199219 262.214844 9.882812 258.796875 16.675781 L 265.699219 22.03125 C 267.34375 17.09375 271.9375 13.433594 277.363281 13.433594 Z M 277.363281 13.433594 " fill-opacity="1" fill-rule="nonzero"/></g></svg>