<svg xmlns="http://www.w3.org/2000/svg" version="1.0" viewBox="0 0 375 375" fill="currentColor" width="30px" height="30px">
    <path d="M100 375H37.5a37.3 37.3 0 0 1-7.316-.719 39 39 0 0 1-3.57-.894 37.7 37.7 0 0 1-6.79-2.817 36 36 0 0 1-3.156-1.89 37 37 0 0 1-5.684-4.664 37 37 0 0 1-4.664-5.684 36 36 0 0 1-1.89-3.156 37.7 37.7 0 0 1-2.816-6.79 39 39 0 0 1-.895-3.57A37.3 37.3 0 0 1 0 337.5V275a12.46 12.46 0 0 1 2.105-6.945 12.8 12.8 0 0 1 1.555-1.895 12.7 12.7 0 0 1 1.895-1.555 12.6 12.6 0 0 1 4.508-1.867 12.5 12.5 0 0 1 2.437-.238 12.46 12.46 0 0 1 6.945 2.105c.684.457 1.313.977 1.895 1.555a12.7 12.7 0 0 1 1.555 1.895 12.6 12.6 0 0 1 1.867 4.507q.239 1.208.238 2.438v62.5a12.46 12.46 0 0 0 2.105 6.945c.457.684.977 1.313 1.555 1.895a12.7 12.7 0 0 0 1.895 1.555A12.54 12.54 0 0 0 37.5 350H100a12.46 12.46 0 0 1 6.945 2.105q1.024.687 1.895 1.555a12.8 12.8 0 0 1 1.555 1.895 12.6 12.6 0 0 1 1.867 4.507q.236 1.208.238 2.438a12.4 12.4 0 0 1-.953 4.785c-.313.758-.7 1.477-1.152 2.16a12.7 12.7 0 0 1-1.555 1.895 12.7 12.7 0 0 1-1.895 1.555 12.5 12.5 0 0 1-4.507 1.862A12.5 12.5 0 0 1 100 375m237.5 0H275q-1.23-.001-2.438-.242a12 12 0 0 1-2.347-.711c-.758-.313-1.477-.7-2.16-1.152a12.7 12.7 0 0 1-1.895-1.555 12.7 12.7 0 0 1-1.555-1.895 12.6 12.6 0 0 1-1.867-4.507 12.5 12.5 0 0 1-.238-2.438 12.46 12.46 0 0 1 2.105-6.945c.457-.684.977-1.313 1.555-1.895a12.7 12.7 0 0 1 1.895-1.555 12.6 12.6 0 0 1 4.507-1.867q1.208-.239 2.438-.238h62.5q1.23-.001 2.438-.242a12 12 0 0 0 2.347-.711c.758-.313 1.477-.7 2.16-1.152a12.7 12.7 0 0 0 1.895-1.555 12.7 12.7 0 0 0 1.555-1.895A12.54 12.54 0 0 0 350 337.5V275a12.46 12.46 0 0 1 2.105-6.945c.457-.684.977-1.313 1.555-1.895a12.7 12.7 0 0 1 1.895-1.555 12.6 12.6 0 0 1 4.507-1.867q1.208-.239 2.438-.238a12.46 12.46 0 0 1 6.945 2.105c.684.457 1.313.977 1.895 1.555a12.7 12.7 0 0 1 1.555 1.895A12.54 12.54 0 0 1 375 275v62.5a37.3 37.3 0 0 1-.719 7.316 39 39 0 0 1-.894 3.57 37.7 37.7 0 0 1-2.817 6.79 36 36 0 0 1-1.89 3.156 37 37 0 0 1-4.664 5.684 37 37 0 0 1-5.684 4.664 36 36 0 0 1-3.156 1.89 37.7 37.7 0 0 1-6.79 2.816 39 39 0 0 1-3.57.895 37.3 37.3 0 0 1-7.316.719m25-262.5a12.4 12.4 0 0 1-4.785-.953c-.758-.313-1.477-.7-2.16-1.152a12.7 12.7 0 0 1-1.895-1.555 12.7 12.7 0 0 1-1.555-1.895 12.6 12.6 0 0 1-1.867-4.507A12.5 12.5 0 0 1 350 100V37.5q-.001-1.23-.242-2.438a12 12 0 0 0-.711-2.347c-.313-.758-.7-1.477-1.152-2.16a12.7 12.7 0 0 0-1.555-1.895 12.7 12.7 0 0 0-1.895-1.555 12.6 12.6 0 0 0-4.507-1.867A12.5 12.5 0 0 0 337.5 25H275a12.46 12.46 0 0 1-6.945-2.105 12.7 12.7 0 0 1-1.895-1.555 12.7 12.7 0 0 1-1.555-1.895 12.6 12.6 0 0 1-1.867-4.508 12.5 12.5 0 0 1-.238-2.437 12.46 12.46 0 0 1 2.105-6.945c.457-.684.977-1.313 1.555-1.895a12.7 12.7 0 0 1 1.895-1.555 12.6 12.6 0 0 1 4.507-1.867Q273.77-.001 275 0h62.5a37.3 37.3 0 0 1 7.316.719q1.807.362 3.57.894a37.7 37.7 0 0 1 6.79 2.817 36 36 0 0 1 3.156 1.89 37 37 0 0 1 5.684 4.664 37 37 0 0 1 4.664 5.684 36 36 0 0 1 1.89 3.156 37.7 37.7 0 0 1 2.816 6.79q.533 1.763.895 3.57A37.3 37.3 0 0 1 375 37.5V100q-.001 1.23-.242 2.438a12 12 0 0 1-.711 2.347c-.313.758-.7 1.477-1.152 2.16a12.7 12.7 0 0 1-1.555 1.895 12.7 12.7 0 0 1-1.895 1.555 12.6 12.6 0 0 1-4.507 1.867q-1.208.236-2.438.238m-350 0a12.4 12.4 0 0 1-4.785-.953c-.758-.313-1.477-.7-2.16-1.152a12.7 12.7 0 0 1-1.895-1.555 12.7 12.7 0 0 1-1.555-1.895 12.6 12.6 0 0 1-1.867-4.507A12.5 12.5 0 0 1 0 100V37.5a37.3 37.3 0 0 1 .719-7.316q.362-1.807.894-3.57a37.7 37.7 0 0 1 2.817-6.79 36 36 0 0 1 1.89-3.156 37 37 0 0 1 4.664-5.684 37 37 0 0 1 5.684-4.664 36 36 0 0 1 3.156-1.89 37.7 37.7 0 0 1 6.79-2.816 39 39 0 0 1 3.57-.895A37.3 37.3 0 0 1 37.5 0H100a12.46 12.46 0 0 1 6.945 2.105 12.8 12.8 0 0 1 1.895 1.555 12.8 12.8 0 0 1 1.555 1.895 12.6 12.6 0 0 1 1.867 4.508q.236 1.207.238 2.437a12.4 12.4 0 0 1-.953 4.785c-.313.758-.7 1.477-1.152 2.16a12.7 12.7 0 0 1-1.555 1.895 12.7 12.7 0 0 1-1.895 1.555 12.6 12.6 0 0 1-4.507 1.867q-1.208.239-2.438.238H37.5a12.46 12.46 0 0 0-6.945 2.105c-.684.457-1.313.977-1.895 1.555a12.7 12.7 0 0 0-1.555 1.895 12.6 12.6 0 0 0-1.867 4.508A12.5 12.5 0 0 0 25 37.5V100a12.46 12.46 0 0 1-2.105 6.945 12.7 12.7 0 0 1-1.555 1.895 12.7 12.7 0 0 1-1.895 1.555 12.6 12.6 0 0 1-4.508 1.867q-1.207.236-2.437.238m250 25a77 77 0 0 1-.09 3.68 82 82 0 0 1-.27 3.672 76.4 76.4 0 0 1-1.886 10.87 78 78 0 0 1-2.137 7.044 76 76 0 0 1-2.816 6.8 74 74 0 0 1-3.473 6.492 72 72 0 0 1-1.969 3.11 73 73 0 0 1-2.117 3.008 78 78 0 0 1-2.265 2.902 78 78 0 0 1-2.407 2.79 71 71 0 0 1-2.539 2.663 71 71 0 0 1-2.664 2.54q-1.365 1.235-2.789 2.406a78 78 0 0 1-2.902 2.265 73 73 0 0 1-3.008 2.117 72 72 0 0 1-3.11 1.97 74 74 0 0 1-9.855 4.96 73 73 0 0 1-6.933 2.48 78 78 0 0 1-3.547.985 75.5 75.5 0 0 1-10.871 1.887 82 82 0 0 1-3.672.27 77 77 0 0 1-7.36-.001 82 82 0 0 1-3.672-.27 76.4 76.4 0 0 1-10.87-1.886 78 78 0 0 1-7.044-2.137 76 76 0 0 1-6.8-2.816 74 74 0 0 1-6.492-3.473 72 72 0 0 1-3.11-1.969 73 73 0 0 1-3.008-2.117 78 78 0 0 1-2.902-2.265 78 78 0 0 1-2.79-2.407 71 71 0 0 1-2.663-2.539 71 71 0 0 1-2.54-2.664 78 78 0 0 1-2.406-2.789 78 78 0 0 1-2.265-2.902 73 73 0 0 1-2.117-3.008 72 72 0 0 1-1.97-3.11 74 74 0 0 1-4.96-9.855 73 73 0 0 1-2.48-6.933 78 78 0 0 1-.985-3.547 75.5 75.5 0 0 1-1.887-10.871 82 82 0 0 1-.27-3.672 77 77 0 0 1-.089-3.68q0-1.84.09-3.68.093-1.838.27-3.672a76.4 76.4 0 0 1 1.886-10.87 78 78 0 0 1 2.137-7.044 76 76 0 0 1 2.816-6.8 74 74 0 0 1 3.473-6.492 72 72 0 0 1 1.969-3.11 73 73 0 0 1 2.117-3.008 78 78 0 0 1 2.265-2.902 78 78 0 0 1 2.407-2.79 71 71 0 0 1 2.539-2.663 71 71 0 0 1 2.664-2.54q1.365-1.234 2.789-2.406a78 78 0 0 1 2.902-2.265 73 73 0 0 1 3.008-2.117 72 72 0 0 1 3.11-1.97 74 74 0 0 1 9.855-4.96 73 73 0 0 1 6.933-2.48 78 78 0 0 1 3.547-.985 75.5 75.5 0 0 1 10.871-1.887 82 82 0 0 1 3.672-.27 77 77 0 0 1 3.68-.089q1.84 0 3.68.09 1.838.093 3.672.27a76.4 76.4 0 0 1 10.87 1.886 78 78 0 0 1 7.044 2.137 76 76 0 0 1 6.8 2.816 74 74 0 0 1 6.492 3.473 72 72 0 0 1 3.11 1.969q1.53 1.02 3.008 2.117a78 78 0 0 1 2.902 2.265q1.424 1.171 2.79 2.407 1.364 1.234 2.663 2.539a71 71 0 0 1 2.54 2.664q1.235 1.365 2.406 2.789a74 74 0 0 1 4.382 5.91 72 72 0 0 1 1.97 3.11 74 74 0 0 1 4.96 9.855 73 73 0 0 1 2.48 6.933q.534 1.76.985 3.547a75.5 75.5 0 0 1 1.887 10.871q.176 1.834.27 3.672.088 1.84.089 3.68m0 0"></path><path d="M300 300q-.001 1.23-.242 2.438a12 12 0 0 1-.711 2.347c-.313.758-.7 1.477-1.152 2.16a12.7 12.7 0 0 1-1.555 1.895 12.7 12.7 0 0 1-1.895 1.555 12.5 12.5 0 0 1-4.508 1.862 12.5 12.5 0 0 1-2.437.243h-200q-1.23-.001-2.438-.242a12 12 0 0 1-2.347-.711c-.758-.313-1.477-.7-2.16-1.152a12.7 12.7 0 0 1-1.895-1.555 12.7 12.7 0 0 1-1.555-1.895 12.6 12.6 0 0 1-1.867-4.507A12.5 12.5 0 0 1 75 300a112.5 112.5 0 0 1 18.11-61.184 112.7 112.7 0 0 1 16.441-19.906 112 112 0 0 1 9.824-8.41q1.71 1.604 3.492 3.133a95 95 0 0 0 3.637 2.96 93 93 0 0 0 3.77 2.79q1.917 1.349 3.898 2.61c1.32.835 2.66 1.644 4.016 2.417a96 96 0 0 0 4.128 2.23 97 97 0 0 0 4.227 2.032q2.138.965 4.316 1.832 2.18.862 4.403 1.625 2.216.756 4.468 1.414a101 101 0 0 0 9.118 2.191 98 98 0 0 0 4.629.77q2.318.334 4.656.55a99 99 0 0 0 9.367.446q2.344-.002 4.688-.113a99 99 0 0 0 4.68-.332 93 93 0 0 0 4.655-.551 98 98 0 0 0 9.211-1.758c1.524-.367 3.032-.766 4.536-1.203 1.5-.438 2.992-.91 4.468-1.414q2.222-.762 4.403-1.625 2.178-.866 4.316-1.832a98 98 0 0 0 4.227-2.031 98 98 0 0 0 4.129-2.23 102 102 0 0 0 4.015-2.419q1.981-1.26 3.899-2.61a94 94 0 0 0 3.77-2.788 95 95 0 0 0 3.636-2.961 106 106 0 0 0 3.492-3.133 112 112 0 0 1 9.824 8.41 112.7 112.7 0 0 1 16.442 19.906 112.2 112.2 0 0 1 11.469 23.133 112.6 112.6 0 0 1 5.894 25.14q.745 6.436.746 12.911m0 0"></path>
</svg>