<svg xmlns="http://www.w3.org/2000/svg" xmlns:xlink="http://www.w3.org/1999/xlink" width="550" zoomAndPan="magnify" viewBox="0 0 412.5 37.5" height="50" preserveAspectRatio="xMidYMid meet" version="1.0"><defs><g/><clipPath id="3187f1cbd1"><path d="M 2.46875 0 L 409.539062 0 L 409.539062 37.007812 L 2.46875 37.007812 Z M 2.46875 0 " clip-rule="nonzero"/></clipPath><clipPath id="69b0bfbc9c"><path d="M 6.167969 4.441406 L 32 4.441406 L 32 32.566406 L 6.167969 32.566406 Z M 6.167969 4.441406 " clip-rule="nonzero"/></clipPath><clipPath id="31d84ba604"><path d="M 200 16 L 210.363281 16 L 210.363281 27 L 200 27 Z M 200 16 " clip-rule="nonzero"/></clipPath><clipPath id="7e90a85980"><path d="M 190 20 L 208 20 L 208 28.957031 L 190 28.957031 Z M 190 20 " clip-rule="nonzero"/></clipPath><clipPath id="d7c3431249"><path d="M 189.640625 13 L 195 13 L 195 24 L 189.640625 24 Z M 189.640625 13 " clip-rule="nonzero"/></clipPath><clipPath id="b2580316ce"><path d="M 190 8.234375 L 208 8.234375 L 208 17 L 190 17 Z M 190 8.234375 " clip-rule="nonzero"/></clipPath><clipPath id="b693e31add"><path d="M 214.421875 8.234375 L 232.921875 8.234375 L 232.921875 28.957031 L 214.421875 28.957031 Z M 214.421875 8.234375 " clip-rule="nonzero"/></clipPath></defs><g clip-path="url(#3187f1cbd1)"><path fill="#ffffff" d="M 2.46875 0 L 409.539062 0 L 409.539062 37.007812 L 2.46875 37.007812 Z M 2.46875 0 " fill-opacity="1" fill-rule="nonzero"/><path fill="#ffffff" d="M 2.46875 0 L 409.539062 0 L 409.539062 37.007812 L 2.46875 37.007812 Z M 2.46875 0 " fill-opacity="1" fill-rule="nonzero"/></g><g clip-path="url(#69b0bfbc9c)"><path fill="#ff3e00" d="M 29.777344 7.601562 C 27.042969 3.683594 21.648438 2.523438 17.75 5.011719 L 10.898438 9.386719 C 9.027344 10.566406 7.738281 12.484375 7.347656 14.664062 C 7.023438 16.480469 7.308594 18.355469 8.164062 19.988281 C 7.578125 20.878906 7.179688 21.882812 6.988281 22.933594 C 6.59375 25.152344 7.109375 27.441406 8.421875 29.277344 C 11.152344 33.199219 16.546875 34.359375 20.445312 31.867188 L 27.296875 27.492188 C 29.167969 26.3125 30.457031 24.398438 30.847656 22.21875 C 31.175781 20.398438 30.886719 18.527344 30.03125 16.890625 C 30.617188 16 31.015625 15 31.207031 13.949219 C 31.601562 11.726562 31.085938 9.4375 29.777344 7.601562 " fill-opacity="1" fill-rule="nonzero"/></g><path fill="#ffffff" d="M 17.082031 29.648438 C 14.871094 30.222656 12.539062 29.355469 11.242188 27.476562 C 10.453125 26.375 10.144531 25 10.378906 23.660156 C 10.417969 23.445312 10.472656 23.230469 10.542969 23.019531 L 10.671875 22.625 L 11.023438 22.882812 C 11.832031 23.480469 12.738281 23.933594 13.703125 24.226562 L 13.957031 24.304688 L 13.933594 24.558594 C 13.902344 24.921875 14 25.28125 14.210938 25.578125 C 14.601562 26.144531 15.304688 26.40625 15.96875 26.234375 C 16.117188 26.195312 16.261719 26.132812 16.390625 26.050781 L 23.242188 21.671875 C 23.578125 21.457031 23.8125 21.113281 23.882812 20.71875 C 23.953125 20.3125 23.859375 19.898438 23.625 19.566406 C 23.234375 19 22.53125 18.738281 21.863281 18.910156 C 21.714844 18.953125 21.574219 19.011719 21.445312 19.097656 L 18.832031 20.765625 C 18.398438 21.039062 17.929688 21.246094 17.4375 21.378906 C 15.230469 21.953125 12.898438 21.085938 11.597656 19.207031 C 10.8125 18.105469 10.5 16.730469 10.738281 15.390625 C 10.972656 14.082031 11.75 12.929688 12.875 12.222656 L 19.722656 7.84375 C 20.15625 7.570312 20.625 7.363281 21.117188 7.234375 C 23.324219 6.65625 25.65625 7.523438 26.957031 9.402344 C 27.742188 10.507812 28.054688 11.882812 27.816406 13.21875 C 27.777344 13.4375 27.722656 13.652344 27.652344 13.859375 L 27.523438 14.253906 L 27.171875 13.996094 C 26.363281 13.402344 25.457031 12.945312 24.492188 12.65625 L 24.238281 12.578125 L 24.261719 12.324219 C 24.292969 11.960938 24.195312 11.597656 23.988281 11.300781 C 23.59375 10.738281 22.894531 10.476562 22.226562 10.648438 C 22.078125 10.6875 21.9375 10.75 21.808594 10.832031 L 14.957031 15.207031 C 14.617188 15.421875 14.382812 15.769531 14.3125 16.164062 C 14.242188 16.566406 14.335938 16.980469 14.574219 17.3125 C 14.964844 17.878906 15.667969 18.140625 16.332031 17.96875 C 16.480469 17.929688 16.621094 17.867188 16.753906 17.785156 L 19.367188 16.113281 C 19.796875 15.839844 20.265625 15.632812 20.757812 15.503906 C 22.964844 14.925781 25.296875 15.792969 26.597656 17.671875 C 27.382812 18.773438 27.695312 20.152344 27.457031 21.488281 C 27.222656 22.796875 26.449219 23.949219 25.320312 24.660156 L 18.472656 29.035156 C 18.042969 29.308594 17.574219 29.515625 17.082031 29.648438 " fill-opacity="1" fill-rule="nonzero"/><g fill="#4438ca" fill-opacity="1"><g transform="translate(275.920819, 26.357409)"><g><path d="M 8.21875 -16.828125 C 9.4375 -16.828125 10.445312 -16.554688 11.25 -16.015625 C 12.050781 -15.472656 12.65625 -14.769531 13.0625 -13.90625 C 13.476562 -13.050781 13.6875 -12.148438 13.6875 -11.203125 C 13.6875 -10.273438 13.476562 -9.378906 13.0625 -8.515625 C 12.65625 -7.660156 12.050781 -6.960938 11.25 -6.421875 C 10.445312 -5.878906 9.4375 -5.609375 8.21875 -5.609375 L 4.515625 -5.609375 L 4.515625 0 L 2.0625 0 L 2.0625 -16.828125 Z M 8.21875 -8 C 8.914062 -8 9.488281 -8.15625 9.9375 -8.46875 C 10.382812 -8.789062 10.71875 -9.191406 10.9375 -9.671875 C 11.164062 -10.148438 11.28125 -10.65625 11.28125 -11.1875 C 11.28125 -11.726562 11.164062 -12.238281 10.9375 -12.71875 C 10.71875 -13.195312 10.382812 -13.59375 9.9375 -13.90625 C 9.488281 -14.21875 8.914062 -14.375 8.21875 -14.375 L 4.515625 -14.375 L 4.515625 -8 Z M 8.21875 -8 "/></g></g></g><g fill="#4438ca" fill-opacity="1"><g transform="translate(292.118585, 26.357409)"><g><path d="M 4.15625 -4.25 L 2.53125 0 L -0.09375 0 L 6.65625 -17.046875 L 8.4375 -17.046875 L 15.203125 0 L 12.59375 0 L 10.984375 -4.25 Z M 10.09375 -6.546875 L 7.578125 -13.171875 L 5.046875 -6.546875 Z M 10.09375 -6.546875 "/></g></g></g><g fill="#4438ca" fill-opacity="1"><g transform="translate(309.277598, 26.357409)"><g><path d="M 10.484375 -12.484375 C 10.367188 -12.972656 10.132812 -13.375 9.78125 -13.6875 C 9.4375 -14 9.023438 -14.234375 8.546875 -14.390625 C 8.078125 -14.546875 7.601562 -14.625 7.125 -14.625 C 6.539062 -14.625 5.957031 -14.519531 5.375 -14.3125 C 4.800781 -14.113281 4.335938 -13.789062 3.984375 -13.34375 C 3.847656 -13.164062 3.742188 -12.960938 3.671875 -12.734375 C 3.609375 -12.503906 3.578125 -12.269531 3.578125 -12.03125 C 3.578125 -11.382812 3.765625 -10.898438 4.140625 -10.578125 C 4.523438 -10.253906 5.007812 -10.035156 5.59375 -9.921875 C 6.175781 -9.816406 6.78125 -9.734375 7.40625 -9.671875 C 7.976562 -9.609375 8.566406 -9.503906 9.171875 -9.359375 C 9.785156 -9.222656 10.367188 -9.023438 10.921875 -8.765625 C 11.484375 -8.515625 11.96875 -8.171875 12.375 -7.734375 C 12.78125 -7.304688 13.0625 -6.753906 13.21875 -6.078125 C 13.300781 -5.679688 13.34375 -5.316406 13.34375 -4.984375 C 13.34375 -4.160156 13.160156 -3.429688 12.796875 -2.796875 C 12.441406 -2.171875 11.960938 -1.632812 11.359375 -1.1875 C 10.753906 -0.75 10.078125 -0.414062 9.328125 -0.1875 C 8.585938 0.03125 7.84375 0.140625 7.09375 0.140625 C 6.445312 0.140625 5.785156 0.046875 5.109375 -0.140625 C 4.429688 -0.335938 3.796875 -0.625 3.203125 -1 C 2.617188 -1.375 2.128906 -1.84375 1.734375 -2.40625 C 1.347656 -2.976562 1.113281 -3.644531 1.03125 -4.40625 L 1.015625 -4.859375 L 3.46875 -4.90625 L 3.484375 -4.546875 L 3.484375 -4.640625 C 3.546875 -4.128906 3.765625 -3.691406 4.140625 -3.328125 C 4.523438 -2.972656 4.988281 -2.707031 5.53125 -2.53125 C 6.070312 -2.351562 6.601562 -2.265625 7.125 -2.265625 C 7.726562 -2.265625 8.316406 -2.367188 8.890625 -2.578125 C 9.472656 -2.796875 9.953125 -3.109375 10.328125 -3.515625 C 10.703125 -3.929688 10.890625 -4.425781 10.890625 -5 C 10.890625 -5.175781 10.867188 -5.367188 10.828125 -5.578125 C 10.722656 -6.015625 10.484375 -6.335938 10.109375 -6.546875 C 9.734375 -6.765625 9.28125 -6.921875 8.75 -7.015625 C 8.21875 -7.117188 7.675781 -7.191406 7.125 -7.234375 C 6.457031 -7.296875 5.785156 -7.394531 5.109375 -7.53125 C 4.441406 -7.675781 3.816406 -7.898438 3.234375 -8.203125 C 2.660156 -8.503906 2.1875 -8.921875 1.8125 -9.453125 C 1.4375 -9.992188 1.21875 -10.707031 1.15625 -11.59375 L 1.15625 -11.5625 C 1.15625 -11.644531 1.148438 -11.71875 1.140625 -11.78125 C 1.128906 -11.84375 1.125 -11.90625 1.125 -11.96875 C 1.125 -13.007812 1.4375 -13.941406 2.0625 -14.765625 C 2.625 -15.503906 3.367188 -16.0625 4.296875 -16.4375 C 5.234375 -16.8125 6.191406 -17 7.171875 -17 C 8.035156 -17 8.878906 -16.84375 9.703125 -16.53125 C 10.523438 -16.21875 11.222656 -15.734375 11.796875 -15.078125 C 12.378906 -14.429688 12.742188 -13.597656 12.890625 -12.578125 Z M 10.484375 -12.484375 "/></g></g></g><g fill="#4438ca" fill-opacity="1"><g transform="translate(325.499398, 26.357409)"><g><path d="M 10.484375 -12.484375 C 10.367188 -12.972656 10.132812 -13.375 9.78125 -13.6875 C 9.4375 -14 9.023438 -14.234375 8.546875 -14.390625 C 8.078125 -14.546875 7.601562 -14.625 7.125 -14.625 C 6.539062 -14.625 5.957031 -14.519531 5.375 -14.3125 C 4.800781 -14.113281 4.335938 -13.789062 3.984375 -13.34375 C 3.847656 -13.164062 3.742188 -12.960938 3.671875 -12.734375 C 3.609375 -12.503906 3.578125 -12.269531 3.578125 -12.03125 C 3.578125 -11.382812 3.765625 -10.898438 4.140625 -10.578125 C 4.523438 -10.253906 5.007812 -10.035156 5.59375 -9.921875 C 6.175781 -9.816406 6.78125 -9.734375 7.40625 -9.671875 C 7.976562 -9.609375 8.566406 -9.503906 9.171875 -9.359375 C 9.785156 -9.222656 10.367188 -9.023438 10.921875 -8.765625 C 11.484375 -8.515625 11.96875 -8.171875 12.375 -7.734375 C 12.78125 -7.304688 13.0625 -6.753906 13.21875 -6.078125 C 13.300781 -5.679688 13.34375 -5.316406 13.34375 -4.984375 C 13.34375 -4.160156 13.160156 -3.429688 12.796875 -2.796875 C 12.441406 -2.171875 11.960938 -1.632812 11.359375 -1.1875 C 10.753906 -0.75 10.078125 -0.414062 9.328125 -0.1875 C 8.585938 0.03125 7.84375 0.140625 7.09375 0.140625 C 6.445312 0.140625 5.785156 0.046875 5.109375 -0.140625 C 4.429688 -0.335938 3.796875 -0.625 3.203125 -1 C 2.617188 -1.375 2.128906 -1.84375 1.734375 -2.40625 C 1.347656 -2.976562 1.113281 -3.644531 1.03125 -4.40625 L 1.015625 -4.859375 L 3.46875 -4.90625 L 3.484375 -4.546875 L 3.484375 -4.640625 C 3.546875 -4.128906 3.765625 -3.691406 4.140625 -3.328125 C 4.523438 -2.972656 4.988281 -2.707031 5.53125 -2.53125 C 6.070312 -2.351562 6.601562 -2.265625 7.125 -2.265625 C 7.726562 -2.265625 8.316406 -2.367188 8.890625 -2.578125 C 9.472656 -2.796875 9.953125 -3.109375 10.328125 -3.515625 C 10.703125 -3.929688 10.890625 -4.425781 10.890625 -5 C 10.890625 -5.175781 10.867188 -5.367188 10.828125 -5.578125 C 10.722656 -6.015625 10.484375 -6.335938 10.109375 -6.546875 C 9.734375 -6.765625 9.28125 -6.921875 8.75 -7.015625 C 8.21875 -7.117188 7.675781 -7.191406 7.125 -7.234375 C 6.457031 -7.296875 5.785156 -7.394531 5.109375 -7.53125 C 4.441406 -7.675781 3.816406 -7.898438 3.234375 -8.203125 C 2.660156 -8.503906 2.1875 -8.921875 1.8125 -9.453125 C 1.4375 -9.992188 1.21875 -10.707031 1.15625 -11.59375 L 1.15625 -11.5625 C 1.15625 -11.644531 1.148438 -11.71875 1.140625 -11.78125 C 1.128906 -11.84375 1.125 -11.90625 1.125 -11.96875 C 1.125 -13.007812 1.4375 -13.941406 2.0625 -14.765625 C 2.625 -15.503906 3.367188 -16.0625 4.296875 -16.4375 C 5.234375 -16.8125 6.191406 -17 7.171875 -17 C 8.035156 -17 8.878906 -16.84375 9.703125 -16.53125 C 10.523438 -16.21875 11.222656 -15.734375 11.796875 -15.078125 C 12.378906 -14.429688 12.742188 -13.597656 12.890625 -12.578125 Z M 10.484375 -12.484375 "/></g></g></g><g fill="#4a4a55" fill-opacity="1"><g transform="translate(341.723143, 26.357409)"><g><path d="M 4.46875 0 L 2.0625 0 L 2.0625 -16.828125 L 4.46875 -16.828125 Z M 10.796875 -16.828125 L 13.796875 -16.828125 L 7.375 -8.46875 L 14.46875 0 L 11.34375 0 L 4.921875 -7.796875 L 4.921875 -9.015625 Z M 10.796875 -16.828125 "/></g></g></g><g fill="#4a4a55" fill-opacity="1"><g transform="translate(357.968975, 26.357409)"><g><path d="M 12.34375 -2.421875 L 12.34375 0 L 2.0625 0 L 2.0625 -17 L 12.3125 -17 L 12.3125 -14.578125 L 4.515625 -14.578125 L 4.515625 -9.828125 L 12.140625 -9.828125 L 12.140625 -7.375 L 4.515625 -7.375 L 4.515625 -2.421875 Z M 12.34375 -2.421875 "/></g></g></g><g fill="#4a4a55" fill-opacity="1"><g transform="translate(373.301613, 26.357409)"><g><path d="M 7.234375 -9.421875 L 12.03125 -17.140625 L 14.90625 -17.140625 L 8.46875 -6.859375 L 8.46875 0 L 6.015625 0 L 6.015625 -6.859375 L -0.359375 -17.140625 L 2.5 -17.140625 Z M 7.234375 -9.421875 "/></g></g></g><g fill="#4a4a55" fill-opacity="1"><g transform="translate(389.715662, 26.357409)"><g><path d="M 10.484375 -12.484375 C 10.367188 -12.972656 10.132812 -13.375 9.78125 -13.6875 C 9.4375 -14 9.023438 -14.234375 8.546875 -14.390625 C 8.078125 -14.546875 7.601562 -14.625 7.125 -14.625 C 6.539062 -14.625 5.957031 -14.519531 5.375 -14.3125 C 4.800781 -14.113281 4.335938 -13.789062 3.984375 -13.34375 C 3.847656 -13.164062 3.742188 -12.960938 3.671875 -12.734375 C 3.609375 -12.503906 3.578125 -12.269531 3.578125 -12.03125 C 3.578125 -11.382812 3.765625 -10.898438 4.140625 -10.578125 C 4.523438 -10.253906 5.007812 -10.035156 5.59375 -9.921875 C 6.175781 -9.816406 6.78125 -9.734375 7.40625 -9.671875 C 7.976562 -9.609375 8.566406 -9.503906 9.171875 -9.359375 C 9.785156 -9.222656 10.367188 -9.023438 10.921875 -8.765625 C 11.484375 -8.515625 11.96875 -8.171875 12.375 -7.734375 C 12.78125 -7.304688 13.0625 -6.753906 13.21875 -6.078125 C 13.300781 -5.679688 13.34375 -5.316406 13.34375 -4.984375 C 13.34375 -4.160156 13.160156 -3.429688 12.796875 -2.796875 C 12.441406 -2.171875 11.960938 -1.632812 11.359375 -1.1875 C 10.753906 -0.75 10.078125 -0.414062 9.328125 -0.1875 C 8.585938 0.03125 7.84375 0.140625 7.09375 0.140625 C 6.445312 0.140625 5.785156 0.046875 5.109375 -0.140625 C 4.429688 -0.335938 3.796875 -0.625 3.203125 -1 C 2.617188 -1.375 2.128906 -1.84375 1.734375 -2.40625 C 1.347656 -2.976562 1.113281 -3.644531 1.03125 -4.40625 L 1.015625 -4.859375 L 3.46875 -4.90625 L 3.484375 -4.546875 L 3.484375 -4.640625 C 3.546875 -4.128906 3.765625 -3.691406 4.140625 -3.328125 C 4.523438 -2.972656 4.988281 -2.707031 5.53125 -2.53125 C 6.070312 -2.351562 6.601562 -2.265625 7.125 -2.265625 C 7.726562 -2.265625 8.316406 -2.367188 8.890625 -2.578125 C 9.472656 -2.796875 9.953125 -3.109375 10.328125 -3.515625 C 10.703125 -3.929688 10.890625 -4.425781 10.890625 -5 C 10.890625 -5.175781 10.867188 -5.367188 10.828125 -5.578125 C 10.722656 -6.015625 10.484375 -6.335938 10.109375 -6.546875 C 9.734375 -6.765625 9.28125 -6.921875 8.75 -7.015625 C 8.21875 -7.117188 7.675781 -7.191406 7.125 -7.234375 C 6.457031 -7.296875 5.785156 -7.394531 5.109375 -7.53125 C 4.441406 -7.675781 3.816406 -7.898438 3.234375 -8.203125 C 2.660156 -8.503906 2.1875 -8.921875 1.8125 -9.453125 C 1.4375 -9.992188 1.21875 -10.707031 1.15625 -11.59375 L 1.15625 -11.5625 C 1.15625 -11.644531 1.148438 -11.71875 1.140625 -11.78125 C 1.128906 -11.84375 1.125 -11.90625 1.125 -11.96875 C 1.125 -13.007812 1.4375 -13.941406 2.0625 -14.765625 C 2.625 -15.503906 3.367188 -16.0625 4.296875 -16.4375 C 5.234375 -16.8125 6.191406 -17 7.171875 -17 C 8.035156 -17 8.878906 -16.84375 9.703125 -16.53125 C 10.523438 -16.21875 11.222656 -15.734375 11.796875 -15.078125 C 12.378906 -14.429688 12.742188 -13.597656 12.890625 -12.578125 Z M 10.484375 -12.484375 "/></g></g></g><path fill="#4438ca" d="M 259.390625 10.730469 C 259.390625 11.113281 259.351562 11.492188 259.277344 11.867188 C 259.203125 12.242188 259.089844 12.609375 258.945312 12.960938 C 258.796875 13.316406 258.621094 13.652344 258.40625 13.96875 C 258.195312 14.289062 257.953125 14.582031 257.683594 14.851562 C 257.410156 15.125 257.117188 15.363281 256.796875 15.578125 C 256.480469 15.789062 256.144531 15.96875 255.789062 16.117188 C 255.4375 16.261719 255.074219 16.375 254.699219 16.449219 C 254.320312 16.523438 253.941406 16.558594 253.558594 16.558594 C 253.175781 16.558594 252.796875 16.523438 252.421875 16.449219 C 252.046875 16.375 251.683594 16.261719 251.328125 16.117188 C 250.976562 15.96875 250.640625 15.789062 250.320312 15.578125 C 250.003906 15.363281 249.710938 15.125 249.4375 14.851562 C 249.167969 14.582031 248.925781 14.289062 248.714844 13.96875 C 248.5 13.652344 248.320312 13.316406 248.175781 12.960938 C 248.027344 12.609375 247.917969 12.242188 247.84375 11.867188 C 247.769531 11.492188 247.730469 11.113281 247.730469 10.730469 C 247.730469 10.347656 247.769531 9.96875 247.84375 9.59375 C 247.917969 9.21875 248.027344 8.855469 248.175781 8.5 C 248.320312 8.148438 248.5 7.8125 248.714844 7.492188 C 248.925781 7.175781 249.167969 6.878906 249.4375 6.609375 C 249.710938 6.339844 250.003906 6.097656 250.320312 5.886719 C 250.640625 5.671875 250.976562 5.492188 251.328125 5.347656 C 251.683594 5.199219 252.046875 5.089844 252.421875 5.015625 C 252.796875 4.941406 253.175781 4.902344 253.558594 4.902344 C 253.941406 4.902344 254.320312 4.941406 254.699219 5.015625 C 255.074219 5.089844 255.4375 5.199219 255.789062 5.347656 C 256.144531 5.492188 256.480469 5.671875 256.796875 5.886719 C 257.117188 6.097656 257.410156 6.339844 257.683594 6.609375 C 257.953125 6.878906 258.195312 7.175781 258.40625 7.492188 C 258.621094 7.8125 258.796875 8.148438 258.945312 8.5 C 259.089844 8.855469 259.203125 9.21875 259.277344 9.59375 C 259.351562 9.96875 259.390625 10.347656 259.390625 10.730469 Z M 259.390625 10.730469 " fill-opacity="1" fill-rule="nonzero"/><path fill="#4438ca" d="M 269.101562 16.558594 C 269.105469 16.015625 269.011719 15.488281 268.824219 14.976562 C 268.636719 14.46875 268.367188 14.007812 268.011719 13.59375 C 267.65625 13.179688 267.242188 12.84375 266.765625 12.578125 C 266.292969 12.316406 265.785156 12.144531 265.246094 12.0625 C 264.710938 11.980469 264.175781 11.996094 263.640625 12.105469 C 263.109375 12.21875 262.613281 12.417969 262.152344 12.707031 C 261.691406 13 261.296875 13.359375 260.96875 13.792969 C 260.636719 14.222656 260.394531 14.699219 260.234375 15.21875 C 260.074219 15.738281 260.011719 16.269531 260.042969 16.8125 C 260.078125 17.355469 260.203125 17.878906 260.421875 18.375 C 260.640625 18.871094 260.941406 19.316406 261.320312 19.707031 C 261.699219 20.09375 262.136719 20.40625 262.628906 20.640625 L 262.628906 27.570312 L 264.570312 29.511719 L 267.808594 26.273438 L 265.863281 24.332031 L 267.808594 22.386719 L 266.203125 20.78125 C 266.628906 20.617188 267.019531 20.394531 267.378906 20.109375 C 267.738281 19.828125 268.046875 19.496094 268.304688 19.121094 C 268.566406 18.742188 268.761719 18.335938 268.898438 17.898438 C 269.035156 17.464844 269.101562 17.015625 269.101562 16.558594 Z M 264.570312 16.558594 C 264.398438 16.558594 264.234375 16.527344 264.074219 16.460938 C 263.914062 16.394531 263.777344 16.300781 263.652344 16.179688 C 263.53125 16.058594 263.4375 15.917969 263.375 15.761719 C 263.308594 15.601562 263.273438 15.4375 263.273438 15.265625 C 263.273438 15.09375 263.308594 14.925781 263.375 14.769531 C 263.4375 14.609375 263.53125 14.46875 263.652344 14.347656 C 263.777344 14.226562 263.914062 14.132812 264.074219 14.066406 C 264.234375 14.003906 264.398438 13.96875 264.570312 13.96875 C 264.742188 13.96875 264.90625 14.003906 265.066406 14.066406 C 265.222656 14.132812 265.363281 14.226562 265.484375 14.347656 C 265.605469 14.46875 265.699219 14.609375 265.765625 14.769531 C 265.832031 14.925781 265.863281 15.09375 265.863281 15.265625 C 265.863281 15.4375 265.832031 15.601562 265.765625 15.761719 C 265.699219 15.917969 265.605469 16.058594 265.484375 16.179688 C 265.363281 16.300781 265.222656 16.394531 265.066406 16.460938 C 264.90625 16.527344 264.742188 16.558594 264.570312 16.558594 Z M 264.570312 16.558594 " fill-opacity="1" fill-rule="nonzero"/><path fill="#4438ca" d="M 258.664062 19.175781 C 257.65625 18.726562 256.605469 18.503906 255.503906 18.503906 L 251.617188 18.503906 C 251.105469 18.503906 250.601562 18.550781 250.101562 18.652344 C 249.601562 18.75 249.113281 18.898438 248.644531 19.09375 C 248.171875 19.289062 247.722656 19.527344 247.300781 19.8125 C 246.875 20.097656 246.484375 20.417969 246.121094 20.777344 C 245.761719 21.140625 245.4375 21.53125 245.15625 21.957031 C 244.871094 22.378906 244.632812 22.828125 244.4375 23.300781 C 244.242188 23.769531 244.09375 24.257812 243.996094 24.757812 C 243.894531 25.257812 243.847656 25.765625 243.847656 26.273438 L 243.847656 28.863281 L 260.683594 28.863281 L 260.683594 21.726562 C 259.796875 21.046875 259.125 20.195312 258.664062 19.175781 Z M 258.664062 19.175781 " fill-opacity="1" fill-rule="nonzero"/><g clip-path="url(#31d84ba604)"><path fill="#4285f4" d="M 210.144531 18.828125 C 210.144531 18.148438 210.085938 17.5 209.980469 16.871094 L 200.222656 16.871094 L 200.222656 20.765625 L 205.808594 20.765625 C 205.558594 22.042969 204.824219 23.121094 203.738281 23.855469 L 203.738281 26.445312 L 207.070312 26.445312 C 209.023438 24.640625 210.144531 21.980469 210.144531 18.828125 Z M 210.144531 18.828125 " fill-opacity="1" fill-rule="nonzero"/></g><g clip-path="url(#7e90a85980)"><path fill="#34a853" d="M 200.222656 28.957031 C 203.019531 28.957031 205.359375 28.027344 207.070312 26.445312 L 203.738281 23.855469 C 202.804688 24.476562 201.621094 24.855469 200.222656 24.855469 C 197.519531 24.855469 195.230469 23.035156 194.410156 20.574219 L 190.976562 20.574219 L 190.976562 23.242188 C 192.675781 26.625 196.171875 28.957031 200.222656 28.957031 Z M 200.222656 28.957031 " fill-opacity="1" fill-rule="nonzero"/></g><g clip-path="url(#d7c3431249)"><path fill="#fbbc05" d="M 194.410156 20.574219 C 194.195312 19.953125 194.082031 19.289062 194.082031 18.597656 C 194.082031 17.90625 194.203125 17.242188 194.410156 16.617188 L 194.410156 13.949219 L 190.976562 13.949219 C 190.265625 15.351562 189.859375 16.921875 189.859375 18.597656 C 189.859375 20.273438 190.265625 21.84375 190.976562 23.242188 Z M 194.410156 20.574219 " fill-opacity="1" fill-rule="nonzero"/></g><g clip-path="url(#b2580316ce)"><path fill="#ea4335" d="M 200.222656 12.335938 C 201.75 12.335938 203.117188 12.863281 204.195312 13.890625 L 207.148438 10.9375 C 205.359375 9.261719 203.019531 8.234375 200.222656 8.234375 C 196.171875 8.234375 192.675781 10.566406 190.976562 13.949219 L 194.410156 16.617188 C 195.230469 14.15625 197.519531 12.335938 200.222656 12.335938 Z M 200.222656 12.335938 " fill-opacity="1" fill-rule="nonzero"/></g><g clip-path="url(#b693e31add)"><path fill="#000000" d="M 223.167969 14.472656 C 223.167969 14.101562 223.148438 13.761719 223.171875 13.421875 C 223.257812 12.214844 223.617188 11.09375 224.34375 10.117188 C 225.128906 9.058594 226.195312 8.46875 227.496094 8.296875 C 227.6875 8.273438 227.882812 8.257812 228.078125 8.234375 C 228.125 9.832031 226.910156 12.441406 223.984375 12.765625 C 223.863281 13.332031 223.863281 13.90625 223.894531 14.503906 C 224.210938 14.367188 224.5 14.226562 224.796875 14.109375 C 225.664062 13.757812 226.566406 13.585938 227.503906 13.585938 C 230.007812 13.59375 232.0625 15.207031 232.675781 17.636719 C 232.921875 18.597656 232.890625 19.5625 232.746094 20.527344 C 232.371094 22.996094 231.40625 25.210938 229.808594 27.136719 C 229.421875 27.601562 228.996094 28.027344 228.484375 28.355469 C 227.761719 28.820312 226.988281 28.957031 226.160156 28.695312 C 225.871094 28.601562 225.585938 28.5 225.304688 28.390625 C 224.140625 27.9375 222.984375 27.9375 221.820312 28.390625 C 221.414062 28.554688 221 28.683594 220.574219 28.78125 C 219.863281 28.9375 219.21875 28.726562 218.632812 28.320312 C 217.9375 27.835938 217.40625 27.191406 216.917969 26.503906 C 215.605469 24.652344 214.796875 22.601562 214.546875 20.34375 C 214.425781 19.234375 214.441406 18.132812 214.832031 17.054688 C 215.671875 14.730469 217.902344 13.34375 220.359375 13.617188 C 221.289062 13.71875 222.160156 14 223.003906 14.402344 C 223.039062 14.417969 223.082031 14.4375 223.167969 14.472656 Z M 223.167969 14.472656 " fill-opacity="1" fill-rule="nonzero"/></g><g fill="#4a4a55" fill-opacity="1"><g transform="translate(38.307426, 26.274673)"><g><path d="M 10.484375 -12.484375 C 10.367188 -12.972656 10.132812 -13.375 9.78125 -13.6875 C 9.4375 -14 9.023438 -14.234375 8.546875 -14.390625 C 8.078125 -14.546875 7.601562 -14.625 7.125 -14.625 C 6.539062 -14.625 5.957031 -14.519531 5.375 -14.3125 C 4.800781 -14.113281 4.335938 -13.789062 3.984375 -13.34375 C 3.847656 -13.164062 3.742188 -12.960938 3.671875 -12.734375 C 3.609375 -12.503906 3.578125 -12.269531 3.578125 -12.03125 C 3.578125 -11.382812 3.765625 -10.898438 4.140625 -10.578125 C 4.523438 -10.253906 5.007812 -10.035156 5.59375 -9.921875 C 6.175781 -9.816406 6.78125 -9.734375 7.40625 -9.671875 C 7.976562 -9.609375 8.566406 -9.503906 9.171875 -9.359375 C 9.785156 -9.222656 10.367188 -9.023438 10.921875 -8.765625 C 11.484375 -8.515625 11.96875 -8.171875 12.375 -7.734375 C 12.78125 -7.304688 13.0625 -6.753906 13.21875 -6.078125 C 13.300781 -5.679688 13.34375 -5.316406 13.34375 -4.984375 C 13.34375 -4.160156 13.160156 -3.429688 12.796875 -2.796875 C 12.441406 -2.171875 11.960938 -1.632812 11.359375 -1.1875 C 10.753906 -0.75 10.078125 -0.414062 9.328125 -0.1875 C 8.585938 0.03125 7.84375 0.140625 7.09375 0.140625 C 6.445312 0.140625 5.785156 0.046875 5.109375 -0.140625 C 4.429688 -0.335938 3.796875 -0.625 3.203125 -1 C 2.617188 -1.375 2.128906 -1.84375 1.734375 -2.40625 C 1.347656 -2.976562 1.113281 -3.644531 1.03125 -4.40625 L 1.015625 -4.859375 L 3.46875 -4.90625 L 3.484375 -4.546875 L 3.484375 -4.640625 C 3.546875 -4.128906 3.765625 -3.691406 4.140625 -3.328125 C 4.523438 -2.972656 4.988281 -2.707031 5.53125 -2.53125 C 6.070312 -2.351562 6.601562 -2.265625 7.125 -2.265625 C 7.726562 -2.265625 8.316406 -2.367188 8.890625 -2.578125 C 9.472656 -2.796875 9.953125 -3.109375 10.328125 -3.515625 C 10.703125 -3.929688 10.890625 -4.425781 10.890625 -5 C 10.890625 -5.175781 10.867188 -5.367188 10.828125 -5.578125 C 10.722656 -6.015625 10.484375 -6.335938 10.109375 -6.546875 C 9.734375 -6.765625 9.28125 -6.921875 8.75 -7.015625 C 8.21875 -7.117188 7.675781 -7.191406 7.125 -7.234375 C 6.457031 -7.296875 5.785156 -7.394531 5.109375 -7.53125 C 4.441406 -7.675781 3.816406 -7.898438 3.234375 -8.203125 C 2.660156 -8.503906 2.1875 -8.921875 1.8125 -9.453125 C 1.4375 -9.992188 1.21875 -10.707031 1.15625 -11.59375 L 1.15625 -11.5625 C 1.15625 -11.644531 1.148438 -11.71875 1.140625 -11.78125 C 1.128906 -11.84375 1.125 -11.90625 1.125 -11.96875 C 1.125 -13.007812 1.4375 -13.941406 2.0625 -14.765625 C 2.625 -15.503906 3.367188 -16.0625 4.296875 -16.4375 C 5.234375 -16.8125 6.191406 -17 7.171875 -17 C 8.035156 -17 8.878906 -16.84375 9.703125 -16.53125 C 10.523438 -16.21875 11.222656 -15.734375 11.796875 -15.078125 C 12.378906 -14.429688 12.742188 -13.597656 12.890625 -12.578125 Z M 10.484375 -12.484375 "/></g></g></g><g fill="#4a4a55" fill-opacity="1"><g transform="translate(54.529225, 26.274673)"><g><path d="M 15.40625 -17 L 8.578125 0.046875 L 6.8125 0.046875 L -0.03125 -17 L 2.625 -17 L 7.6875 -4.234375 L 12.8125 -17 Z M 15.40625 -17 "/></g></g></g><g fill="#4a4a55" fill-opacity="1"><g transform="translate(71.664206, 26.274673)"><g><path d="M 12.34375 -2.421875 L 12.34375 0 L 2.0625 0 L 2.0625 -17 L 12.3125 -17 L 12.3125 -14.578125 L 4.515625 -14.578125 L 4.515625 -9.828125 L 12.140625 -9.828125 L 12.140625 -7.375 L 4.515625 -7.375 L 4.515625 -2.421875 Z M 12.34375 -2.421875 "/></g></g></g><g fill="#4a4a55" fill-opacity="1"><g transform="translate(86.996845, 26.274673)"><g><path d="M 12.40625 -2.421875 L 12.40625 0 L 2.0625 0 L 2.0625 -16.828125 L 4.5 -16.828125 L 4.5 -2.421875 Z M 12.40625 -2.421875 "/></g></g></g><g fill="#4a4a55" fill-opacity="1"><g transform="translate(101.440332, 26.274673)"><g><path d="M 5.25 -14.6875 L 0.140625 -14.6875 L 0.140625 -17 L 12.75 -17 L 12.75 -14.6875 L 7.671875 -14.6875 L 7.671875 0 L 5.25 0 Z M 5.25 -14.6875 "/></g></g></g><g fill="#4a4a55" fill-opacity="1"><g transform="translate(116.268318, 26.274673)"><g><path d="M 12.34375 -2.421875 L 12.34375 0 L 2.0625 0 L 2.0625 -17 L 12.3125 -17 L 12.3125 -14.578125 L 4.515625 -14.578125 L 4.515625 -9.828125 L 12.140625 -9.828125 L 12.140625 -7.375 L 4.515625 -7.375 L 4.515625 -2.421875 Z M 12.34375 -2.421875 "/></g></g></g><g fill="#7f7f8b" fill-opacity="1"><g transform="translate(131.610266, 26.274673)"><g><path d="M 4.46875 0 L 2.0625 0 L 2.0625 -16.828125 L 4.46875 -16.828125 Z M 10.796875 -16.828125 L 13.796875 -16.828125 L 7.375 -8.46875 L 14.46875 0 L 11.34375 0 L 4.921875 -7.796875 L 4.921875 -9.015625 Z M 10.796875 -16.828125 "/></g></g></g><g fill="#7f7f8b" fill-opacity="1"><g transform="translate(147.856097, 26.274673)"><g><path d="M 7.625 -14.734375 L 7.625 -2.265625 L 10.75 -2.265625 L 10.75 0 L 2.0625 0 L 2.0625 -2.265625 L 5.1875 -2.265625 L 5.1875 -14.734375 L 2.0625 -14.734375 L 2.0625 -16.984375 L 10.75 -16.984375 L 10.75 -14.734375 Z M 7.625 -14.734375 "/></g></g></g><g fill="#7f7f8b" fill-opacity="1"><g transform="translate(162.563933, 26.274673)"><g><path d="M 5.25 -14.6875 L 0.140625 -14.6875 L 0.140625 -17 L 12.75 -17 L 12.75 -14.6875 L 7.671875 -14.6875 L 7.671875 0 L 5.25 0 Z M 5.25 -14.6875 "/></g></g></g></svg>